<?xml version="1.0" encoding="utf-8"?>
<!-- Generator: Adobe Illustrator 27.5.0, SVG Export Plug-In . SVG Version: 6.00 Build 0)  -->
<svg version="1.1" xmlns="http://www.w3.org/2000/svg" xmlns:xlink="http://www.w3.org/1999/xlink" x="0px" y="0px"
	 viewBox="0 0 500 500" style="enable-background:new 0 0 500 500;" xml:space="preserve">
<g id="BACKGROUND">
	<rect style="fill:#FFAD94;" width="500" height="500"/>
</g>
<g id="OBJECTS">
	<g>
		<g style="opacity:0.15;">
			<path d="M275.374,106.903c-1.16-4.574-5.105-7.891-9.375-7.891c-5.515,0-9.682,5.741-9.682,5.741
				c-2.113-3.492-6.408-5.741-9.684-5.741c-4.268,0-8.209,3.317-9.374,7.891c-0.83,3.247-1.861,14.659,19.053,26.345
				C277.235,121.562,276.203,110.15,275.374,106.903z"/>
			<path d="M275.374,106.903c-1.16-4.574-5.105-7.891-9.375-7.891c-0.217,0-0.426,0.024-0.635,0.041
				c1.707,1.404,3.023,3.397,3.615,5.728c0.812,3.167,1.802,14.098-17.558,25.478c1.485,0.991,3.104,1.989,4.893,2.99
				C277.235,121.562,276.203,110.15,275.374,106.903z"/>
			<path d="M221.017,147.143c0,0-1.648,0.016-3.993-0.27c-4.911-0.586-12.864-2.486-14.796-8.633c0,0,0.19-0.618,0.649-1.553
				c0.936-1.98,3.011-5.355,6.796-6.971c0,0,0.175,7.034,6.987,13.831c0.523,0.523,1.078,1.03,1.68,1.537
				C219.147,145.78,220.034,146.477,221.017,147.143z"/>
			<path d="M218.339,145.083l-1.316,1.79c-4.911-0.586-12.864-2.486-14.796-8.633c0,0,0.19-0.618,0.649-1.553
				c2.329,3.374,9.886,5.798,13.783,6.859C217.183,144.069,217.737,144.577,218.339,145.083z"/>
			<polygon points="242.24,133.899 247.684,134.941 244.52,139.958 			"/>
			<path d="M241.357,157.963c3.581,8.713-3.279,32.856-28.341,25.316l-6.4,8.555c-0.332,0.427-0.729,0.808-1.172,1.094
				c-1.616,1.092-3.834,1.092-5.482-0.145c-0.237-0.173-0.443-0.364-0.618-0.57c-1.552-1.646-1.742-4.213-0.348-6.083l1.504-2.012
				l-5.703,2.012c-0.523,0.174-1.046,0.268-1.568,0.268c-1.964,0-3.802-1.219-4.484-3.184c-0.871-2.472,0.428-5.181,2.899-6.052
				l2.297-0.807c-0.032-0.016-0.08-0.033-0.111-0.063c-3.517-1.792-6.384-3.819-7.129-5.926c-0.364-0.997,0.413-3.058,1.363-4.31
				c0.333-0.427,0.681-0.76,1.013-0.917c0.951-0.459,2.107-0.649,3.359-0.682l-0.031-0.016c0.222,0.016,0.444,0,0.665,0.016h0.333
				c5.403,0.095,9.87-0.46,13.482-1.442c0.111-0.032,0.206-0.047,0.301-0.08c-7.415-3.295-15.367-11.485-9.395-31.906
				c0,0,3.2,10.82,14.512,12.15c5.481,0.635,8.555,3.312,10.266,5.91c0.713-2.377,0.792-4.309,0.792-5.038c0-0.19,0-0.301,0-0.301
				c-0.317-1.014-0.492-2.091-0.492-3.216c0-5.973,4.848-10.821,10.821-10.821c5.988,0,10.835,4.848,10.835,10.821
				c0,3.723-1.885,7.002-4.736,8.951c-0.111,0.951-0.111,2.092,0.111,3.454C240.106,154.367,240.565,156.03,241.357,157.963z"/>
			<path d="M213.017,183.279l-6.4,8.555c-0.332,0.427-0.729,0.808-1.172,1.094c-1.616,1.092-3.834,1.092-5.482-0.145
				c-0.237-0.173-0.443-0.364-0.618-0.57c6.686-3.105,13.355-15.24,13.355-15.24c27.597,10.693,27.186-24.032,27.186-24.032h0.016
				c0.206,1.425,0.665,3.089,1.457,5.021C244.939,166.676,238.079,190.819,213.017,183.279z"/>
			<path d="M206.885,163.017c0.111-0.032,0.206-0.047,0.301-0.08c-7.415-3.295-15.367-11.485-9.395-31.906
				c0,0-4.23,23.367,14.908,31.542L206.885,163.017z"/>
			<path d="M237.849,135.242c0,0.875-0.71,1.584-1.585,1.584c-0.875,0-1.584-0.709-1.584-1.584c0-0.874,0.709-1.584,1.584-1.584
				C237.14,133.658,237.849,134.368,237.849,135.242z"/>
			<path d="M282.983,154.525c0,0,1.648,0.016,3.993-0.27c4.911-0.587,12.864-2.487,14.796-8.633c0,0-0.19-0.618-0.649-1.553
				c-0.936-1.98-3.011-5.355-6.796-6.971c0,0-0.175,7.034-6.987,13.83c-0.523,0.523-1.078,1.031-1.68,1.537
				C284.853,153.163,283.966,153.86,282.983,154.525z"/>
			<path d="M285.661,152.466l1.315,1.79c4.911-0.587,12.864-2.487,14.796-8.633c0,0-0.19-0.618-0.649-1.553
				c-2.329,3.374-9.886,5.798-13.783,6.859C286.817,151.452,286.263,151.96,285.661,152.466z"/>
			<polygon points="261.76,141.282 256.316,142.324 259.479,147.34 			"/>
			<path d="M262.643,165.345c-3.581,8.713,3.279,32.857,28.341,25.316l6.4,8.555c0.333,0.427,0.729,0.807,1.172,1.093
				c1.616,1.093,3.834,1.093,5.482-0.144c0.237-0.173,0.443-0.364,0.618-0.57c1.552-1.646,1.742-4.215,0.348-6.083l-1.505-2.011
				l5.703,2.011c0.523,0.175,1.046,0.27,1.568,0.27c1.964,0,3.802-1.219,4.484-3.184c0.871-2.472-0.428-5.181-2.899-6.052
				l-2.297-0.807c0.031-0.016,0.079-0.033,0.111-0.063c3.517-1.791,6.384-3.819,7.129-5.926c0.364-0.997-0.413-3.058-1.363-4.31
				c-0.333-0.427-0.681-0.76-1.013-0.917c-0.951-0.459-2.107-0.65-3.359-0.682l0.031-0.016c-0.222,0.016-0.444,0-0.665,0.016h-0.332
				c-5.402,0.095-9.87-0.46-13.482-1.442c-0.11-0.032-0.205-0.047-0.301-0.08c7.415-3.295,15.367-11.485,9.395-31.906
				c0,0-3.2,10.82-14.512,12.15c-5.482,0.635-8.555,3.312-10.266,5.91c-0.713-2.377-0.792-4.309-0.792-5.038c0-0.19,0-0.301,0-0.301
				c0.317-1.014,0.492-2.092,0.492-3.216c0-5.973-4.848-10.821-10.821-10.821c-5.988,0-10.836,4.848-10.836,10.821
				c0,3.723,1.885,7.002,4.736,8.951c0.111,0.951,0.111,2.092-0.111,3.453C263.894,161.75,263.435,163.414,262.643,165.345z"/>
			<path d="M290.983,190.662l6.4,8.555c0.333,0.427,0.729,0.807,1.172,1.093c1.616,1.093,3.834,1.093,5.482-0.144
				c0.237-0.173,0.443-0.364,0.618-0.57c-6.686-3.105-13.355-15.24-13.355-15.24c-27.597,10.693-27.185-24.033-27.185-24.033H264.1
				c-0.206,1.426-0.665,3.091-1.457,5.022C259.062,174.059,265.921,198.202,290.983,190.662z"/>
			<path d="M297.115,170.399c-0.11-0.032-0.205-0.047-0.301-0.08c7.415-3.295,15.367-11.485,9.395-31.906
				c0,0,4.23,23.367-14.908,31.542L297.115,170.399z"/>
			<path d="M266.151,142.625c0,0.875,0.71,1.584,1.585,1.584c0.875,0,1.584-0.709,1.584-1.584s-0.709-1.584-1.584-1.584
				C266.86,141.041,266.151,141.75,266.151,142.625z"/>
		</g>
		<g>
			<g>
				<path style="fill:#FF7474;" d="M273.374,104.903c-1.16-4.574-5.105-7.891-9.375-7.891c-5.515,0-9.682,5.741-9.682,5.741
					c-2.113-3.492-6.408-5.741-9.684-5.741c-4.268,0-8.209,3.317-9.374,7.891c-0.83,3.247-1.861,14.659,19.053,26.345
					C275.235,119.562,274.203,108.15,273.374,104.903z"/>
				<path style="fill:#F46969;" d="M273.374,104.903c-1.16-4.574-5.105-7.891-9.375-7.891c-0.217,0-0.426,0.024-0.635,0.041
					c1.707,1.404,3.023,3.397,3.615,5.728c0.812,3.167,1.802,14.098-17.558,25.478c1.485,0.991,3.104,1.989,4.893,2.99
					C275.235,119.562,274.203,108.15,273.374,104.903z"/>
				<g>
					<path style="fill:#FFE1B1;" d="M219.017,145.143c0,0-1.648,0.016-3.993-0.27c-4.911-0.586-12.864-2.486-14.796-8.633
						c0,0,0.19-0.618,0.649-1.553c0.936-1.98,3.011-5.355,6.796-6.971c0,0,0.175,7.034,6.987,13.831
						c0.523,0.523,1.078,1.03,1.68,1.537C217.147,143.78,218.034,144.477,219.017,145.143z"/>
					<path style="fill:#F4D09F;" d="M216.339,143.083l-1.316,1.79c-4.911-0.586-12.864-2.486-14.796-8.633
						c0,0,0.19-0.618,0.649-1.553c2.329,3.374,9.886,5.798,13.783,6.859C215.183,142.069,215.737,142.577,216.339,143.083z"/>
					<polygon style="fill:#FFD740;" points="240.24,131.899 245.684,132.941 242.52,137.958 					"/>
					<path style="fill:#FFF3E0;" d="M239.357,155.963c3.581,8.713-3.279,32.856-28.341,25.316l-6.4,8.555
						c-0.332,0.427-0.729,0.808-1.172,1.094c-1.616,1.092-3.834,1.092-5.482-0.145c-0.237-0.173-0.443-0.364-0.618-0.57
						c-1.552-1.646-1.742-4.213-0.348-6.083l1.504-2.012l-5.703,2.012c-0.523,0.174-1.046,0.268-1.568,0.268
						c-1.964,0-3.802-1.219-4.484-3.184c-0.871-2.472,0.428-5.181,2.899-6.052l2.297-0.807c-0.032-0.016-0.08-0.033-0.111-0.063
						c-3.517-1.792-6.384-3.819-7.129-5.926c-0.364-0.997,0.413-3.058,1.363-4.31c0.333-0.427,0.681-0.76,1.013-0.917
						c0.951-0.459,2.107-0.649,3.359-0.682l-0.031-0.016c0.222,0.016,0.444,0,0.665,0.016h0.333c5.403,0.095,9.87-0.46,13.482-1.442
						c0.111-0.032,0.206-0.047,0.301-0.08c-7.415-3.295-15.367-11.485-9.395-31.906c0,0,3.2,10.82,14.512,12.15
						c5.481,0.635,8.555,3.312,10.266,5.91c0.713-2.377,0.792-4.309,0.792-5.038c0-0.19,0-0.301,0-0.301
						c-0.317-1.014-0.492-2.091-0.492-3.216c0-5.973,4.848-10.821,10.821-10.821c5.988,0,10.835,4.848,10.835,10.821
						c0,3.723-1.885,7.002-4.736,8.951c-0.111,0.951-0.111,2.092,0.111,3.454C238.106,152.367,238.565,154.03,239.357,155.963z"/>
					<path style="fill:#FFE5C2;" d="M211.017,181.279l-6.4,8.555c-0.332,0.427-0.729,0.808-1.172,1.094
						c-1.616,1.092-3.834,1.092-5.482-0.145c-0.237-0.173-0.443-0.364-0.618-0.57c6.686-3.105,13.355-15.24,13.355-15.24
						c27.597,10.693,27.186-24.032,27.186-24.032h0.016c0.206,1.425,0.665,3.089,1.457,5.021
						C242.939,164.676,236.079,188.819,211.017,181.279z"/>
					<path style="fill:#FFE5C2;" d="M204.885,161.017c0.111-0.032,0.206-0.047,0.301-0.08c-7.415-3.295-15.367-11.485-9.395-31.906
						c0,0-4.23,23.367,14.908,31.542L204.885,161.017z"/>
					<path style="fill:#616161;" d="M235.849,133.242c0,0.875-0.71,1.584-1.585,1.584c-0.875,0-1.584-0.709-1.584-1.584
						c0-0.874,0.709-1.584,1.584-1.584C235.14,131.658,235.849,132.368,235.849,133.242z"/>
				</g>
				<g>
					<path style="fill:#FFE1B1;" d="M280.983,152.525c0,0,1.648,0.016,3.993-0.27c4.911-0.587,12.864-2.487,14.796-8.633
						c0,0-0.19-0.618-0.649-1.553c-0.936-1.98-3.011-5.355-6.796-6.971c0,0-0.175,7.034-6.987,13.83
						c-0.523,0.523-1.078,1.031-1.68,1.537C282.853,151.163,281.966,151.86,280.983,152.525z"/>
					<path style="fill:#F4D09F;" d="M283.661,150.466l1.315,1.79c4.911-0.587,12.864-2.487,14.796-8.633c0,0-0.19-0.618-0.649-1.553
						c-2.329,3.374-9.886,5.798-13.783,6.859C284.817,149.452,284.263,149.96,283.661,150.466z"/>
					<polygon style="fill:#FFD740;" points="259.76,139.282 254.316,140.324 257.479,145.34 					"/>
					<path style="fill:#FFF3E0;" d="M260.643,163.345c-3.581,8.713,3.279,32.857,28.341,25.316l6.4,8.555
						c0.333,0.427,0.729,0.807,1.172,1.093c1.616,1.093,3.834,1.093,5.482-0.144c0.237-0.173,0.443-0.364,0.618-0.57
						c1.552-1.646,1.742-4.215,0.348-6.083l-1.505-2.011l5.703,2.011c0.523,0.175,1.046,0.27,1.568,0.27
						c1.964,0,3.802-1.219,4.484-3.184c0.871-2.472-0.428-5.181-2.899-6.052l-2.297-0.807c0.031-0.016,0.079-0.033,0.111-0.063
						c3.517-1.791,6.384-3.819,7.129-5.926c0.364-0.997-0.413-3.058-1.363-4.31c-0.333-0.427-0.681-0.76-1.013-0.917
						c-0.951-0.459-2.107-0.65-3.359-0.682l0.031-0.016c-0.222,0.016-0.444,0-0.665,0.016h-0.332
						c-5.402,0.095-9.87-0.46-13.482-1.442c-0.11-0.032-0.205-0.047-0.301-0.08c7.415-3.295,15.367-11.485,9.395-31.906
						c0,0-3.2,10.82-14.512,12.15c-5.482,0.635-8.555,3.312-10.266,5.91c-0.713-2.377-0.792-4.309-0.792-5.038
						c0-0.19,0-0.301,0-0.301c0.317-1.014,0.492-2.092,0.492-3.216c0-5.973-4.848-10.821-10.821-10.821
						c-5.988,0-10.836,4.848-10.836,10.821c0,3.723,1.885,7.002,4.736,8.951c0.111,0.951,0.111,2.092-0.111,3.453
						C261.894,159.75,261.435,161.414,260.643,163.345z"/>
					<path style="fill:#FFE5C2;" d="M288.983,188.662l6.4,8.555c0.333,0.427,0.729,0.807,1.172,1.093
						c1.616,1.093,3.834,1.093,5.482-0.144c0.237-0.173,0.443-0.364,0.618-0.57c-6.686-3.105-13.355-15.24-13.355-15.24
						c-27.597,10.693-27.185-24.033-27.185-24.033H262.1c-0.206,1.426-0.665,3.091-1.457,5.022
						C257.062,172.059,263.921,196.202,288.983,188.662z"/>
					<path style="fill:#FFE5C2;" d="M295.115,168.399c-0.11-0.032-0.205-0.047-0.301-0.08c7.415-3.295,15.367-11.485,9.395-31.906
						c0,0,4.23,23.367-14.908,31.542L295.115,168.399z"/>
					<path style="fill:#616161;" d="M264.151,140.625c0,0.875,0.71,1.584,1.585,1.584c0.875,0,1.584-0.709,1.584-1.584
						s-0.709-1.584-1.584-1.584C264.86,139.041,264.151,139.75,264.151,140.625z"/>
				</g>
			</g>
		</g>
	</g>
	<g>
		<g style="opacity:0.15;">
			<path d="M34.483,294.17l-0.972,54.919c8.599,0,10.021-13.952,18.633-13.952c8.6,0,8.6,13.952,17.198,13.952
				c8.616,0,8.616-13.952,17.229-13.952c8.599,0,8.599,13.952,17.213,13.952c8.616,0,8.616-13.952,17.214-13.952
				c8.613,0,10.035,13.952,18.649,13.952l-0.959-54.919H34.483z"/>
			<path d="M34.483,267.541l-0.972,54.921c8.599,0,10.021-13.952,18.633-13.952c8.6,0,8.6,13.952,17.198,13.952
				c8.616,0,8.616-13.952,17.229-13.952c8.599,0,8.599,13.952,17.213,13.952c8.616,0,8.616-13.952,17.214-13.952
				c8.613,0,10.035,13.952,18.649,13.952l-0.959-54.921H34.483z"/>
			<path d="M117.837,105.072c3.257,5.929-5.938,27.33-5.938,27.33l-25.316-0.037l-25.301,0.037c0,0-9.21-21.398-5.954-27.33
				c1.439-2.621,10.48-2.218,10.48-2.218l4.223-0.88l3.398-0.405l2.449-15.781H97.3l2.451,15.781l3.383,0.405l4.239,0.88
				C107.373,102.855,116.399,102.456,117.837,105.072z"/>
			<path d="M111.892,132.402c0,0,1.038-2.416,2.289-5.839c-2.543-6.044-7.574-10.133-12.956-10.133
				c-8.339,0-14.642,10.161-14.642,10.161c-3.195-6.182-9.691-10.161-14.643-10.161c-5.38,0-10.408,4.089-12.956,10.133
				c1.255,3.426,2.293,5.839,2.293,5.839l25.302-0.037L111.892,132.402z"/>
			<polygon points="70.03,101.974 70.03,123.621 65.807,123.621 65.807,102.855 			"/>
			<polygon points="107.373,102.855 107.373,123.621 103.134,123.621 103.134,101.974 			"/>
			<path d="M138.708,230.394l0.94,57.119c-8.615,0-10.037-13.952-18.649-13.952c-8.599,0-8.599,13.952-17.214,13.952
				c-8.614,0-8.614-13.952-17.213-13.952c-8.613,0-8.613,13.952-17.229,13.952c-8.598,0-8.598-13.952-17.198-13.952
				c-8.613,0-10.035,13.952-18.633,13.952l0.954-57.119c0-14.958,4.602-28.651,12.209-39.259
				c9.577-13.305,23.902-21.754,39.913-21.754c16.01,0,30.339,8.449,39.915,21.754C134.107,201.743,138.708,215.436,138.708,230.394
				z"/>
			<path d="M121.794,185.422l0.059,0.034c0,0-11.745-14.387-11.989-30.293l2.417-22.761c-1.565-7.218-6.884-12.452-12.642-12.452
				c-7.433,0-13.052,9.06-13.052,9.06c-2.849-5.512-8.641-9.06-13.056-9.06c-5.755,0-11.068,5.234-12.638,12.452l2.415,22.734
				c-0.231,15.916-11.993,30.321-11.993,30.321l0.069-0.038c-1.669,1.786-3.251,3.688-4.71,5.716c0.359-0.073,0.735-0.09,1.127-0.09
				c9.695,0,9.695,15.714,19.377,15.714c9.697,0,9.697-15.714,19.394-15.714s9.697,15.714,19.393,15.714
				c9.697,0,9.697-15.714,19.394-15.714c0.391,0,0.781,0.017,1.143,0.09C125.041,189.107,123.462,187.209,121.794,185.422z"/>
		</g>
		<g>
			<g>
				<path style="fill:#F5F5F5;" d="M32.483,292.17l-0.972,54.919c8.599,0,10.021-13.952,18.633-13.952
					c8.6,0,8.6,13.952,17.198,13.952c8.616,0,8.616-13.952,17.229-13.952c8.599,0,8.599,13.952,17.213,13.952
					c8.616,0,8.616-13.952,17.214-13.952c8.613,0,10.035,13.952,18.649,13.952l-0.959-54.919H32.483z"/>
				<path style="fill:#FFFDFC;" d="M32.483,265.541l-0.972,54.921c8.599,0,10.021-13.952,18.633-13.952
					c8.6,0,8.6,13.952,17.198,13.952c8.616,0,8.616-13.952,17.229-13.952c8.599,0,8.599,13.952,17.213,13.952
					c8.616,0,8.616-13.952,17.214-13.952c8.613,0,10.035,13.952,18.649,13.952l-0.959-54.921H32.483z"/>
				<path style="fill:#FFE1B1;" d="M115.837,103.072c3.257,5.929-5.938,27.33-5.938,27.33l-25.316-0.037l-25.301,0.037
					c0,0-9.21-21.398-5.954-27.33c1.439-2.621,10.48-2.218,10.48-2.218l4.223-0.88l3.398-0.405l2.449-15.781H95.3l2.451,15.781
					l3.383,0.405l4.239,0.88C105.373,100.855,114.399,100.456,115.837,103.072z"/>
				<path style="fill:#FFD7A8;" d="M109.892,130.402c0,0,1.038-2.416,2.289-5.839c-2.543-6.044-7.574-10.133-12.956-10.133
					c-8.339,0-14.642,10.161-14.642,10.161c-3.195-6.182-9.691-10.161-14.643-10.161c-5.38,0-10.408,4.089-12.956,10.133
					c1.255,3.426,2.293,5.839,2.293,5.839l25.302-0.037L109.892,130.402z"/>
				<g>
					<polygon style="fill:#FFFDFC;" points="68.03,99.974 68.03,121.621 63.807,121.621 63.807,100.855 					"/>
					<polygon style="fill:#FFFDFC;" points="105.373,100.855 105.373,121.621 101.134,121.621 101.134,99.974 					"/>
				</g>
				<path style="fill:#F5F5F5;" d="M136.708,228.394l0.94,57.119c-8.615,0-10.037-13.952-18.649-13.952
					c-8.599,0-8.599,13.952-17.214,13.952c-8.614,0-8.614-13.952-17.213-13.952c-8.613,0-8.613,13.952-17.229,13.952
					c-8.598,0-8.598-13.952-17.198-13.952c-8.613,0-10.035,13.952-18.633,13.952l0.954-57.119c0-14.958,4.602-28.651,12.209-39.259
					c9.577-13.305,23.902-21.754,39.913-21.754c16.01,0,30.339,8.449,39.915,21.754
					C132.107,199.743,136.708,213.436,136.708,228.394z"/>
				<path style="fill:#FFFDFC;" d="M119.794,183.422l0.059,0.034c0,0-11.745-14.387-11.989-30.293l2.417-22.761
					c-1.565-7.218-6.884-12.452-12.642-12.452c-7.433,0-13.052,9.06-13.052,9.06c-2.849-5.512-8.641-9.06-13.056-9.06
					c-5.755,0-11.068,5.234-12.638,12.452l2.415,22.734c-0.231,15.916-11.993,30.321-11.993,30.321l0.069-0.038
					c-1.669,1.786-3.251,3.688-4.71,5.716c0.359-0.073,0.735-0.09,1.127-0.09c9.695,0,9.695,15.714,19.377,15.714
					c9.697,0,9.697-15.714,19.394-15.714s9.697,15.714,19.393,15.714c9.697,0,9.697-15.714,19.394-15.714
					c0.391,0,0.781,0.017,1.143,0.09C123.041,187.107,121.462,185.209,119.794,183.422z"/>
			</g>
		</g>
	</g>
	<g>
		<g style="opacity:0.15;">
			<path d="M127.891,387.211c-0.311-0.477-0.63-0.935-0.956-1.374l-2.176-2.947l-3.07,1.996
				c-5.51,3.582-10.756,10.729-14.188,16.093c-4.914,7.683-9.198,16.525-11.756,24.262c-0.972,2.939-2.667,4.904-5.183,6.008
				c-1.588,0.697-3.52,1.051-5.744,1.051c-5.98,0-12.072-2.56-12.74-2.85c-0.06-0.026-0.492-0.203-0.87-0.355l-1.761-0.717
				c0,0-23.681,7.629-27.348,8.463c-3.667,0.832,8.794,9.639,21.487,10.908l0,0c3.951,0.684,10.193,1.402,19.003,1.402h0.008
				c2.003,0,4.075-0.037,6.159-0.109c12.668-0.438,14.478-6.922,16.395-13.787c0.268-0.959,0.544-1.953,0.867-2.98
				c1.358-4.328,7.691-11.703,10.747-14.935l2.643,31.95h3.664c0,0,1.71-21.292,1.96-26.355c0.23-4.664,2.82-11.253,4.168-14.11
				C132.946,401.729,132.493,394.256,127.891,387.211z"/>
			<path d="M68.409,429.465c0.74,0.449,7.502,4.465,14.553,5.445c2.622,0.363,4.958,0.264,6.944-0.299
				c3.147-0.889,5.467-2.928,7.094-6.232c4.282-8.703,10.781-18.425,17.832-26.678c3.655-4.278,8.651-9.546,13.88-13.337
				c-0.226-0.386-0.458-0.77-0.708-1.153c-0.311-0.477-0.63-0.935-0.956-1.374l-2.176-2.947l-3.07,1.996
				c-5.51,3.582-10.756,10.729-14.188,16.093c-4.914,7.683-9.198,16.525-11.756,24.262c-0.972,2.938-2.667,4.904-5.183,6.008
				c-1.588,0.697-3.52,1.051-5.744,1.051c-5.98,0-12.072-2.56-12.74-2.85c-0.06-0.027-0.492-0.203-0.87-0.355l-1.761-0.717
				c0,0-0.734,0.236-1.948,0.625C67.983,429.215,68.352,429.43,68.409,429.465z"/>
		</g>
		<g>
			<g>
				<path style="fill:#F5F5F5;" d="M125.891,385.211c-0.311-0.477-0.63-0.935-0.956-1.374l-2.176-2.947l-3.07,1.996
					c-5.51,3.582-10.756,10.729-14.188,16.093c-4.914,7.683-9.198,16.525-11.756,24.262c-0.972,2.939-2.667,4.904-5.183,6.008
					c-1.588,0.697-3.52,1.051-5.744,1.051c-5.98,0-12.072-2.56-12.74-2.85c-0.06-0.026-0.492-0.203-0.87-0.355l-1.761-0.717
					c0,0-23.681,7.629-27.348,8.463c-3.667,0.832,8.794,9.639,21.487,10.908l0,0c3.951,0.684,10.193,1.402,19.003,1.402h0.008
					c2.003,0,4.075-0.037,6.159-0.109c12.668-0.438,14.478-6.922,16.395-13.787c0.268-0.959,0.544-1.953,0.867-2.98
					c1.358-4.328,7.691-11.703,10.747-14.935l2.643,31.95h3.664c0,0,1.71-21.292,1.96-26.355c0.23-4.664,2.82-11.253,4.168-14.11
					C130.946,399.729,130.493,392.256,125.891,385.211z"/>
				<path style="fill:#FFFDFC;" d="M66.409,427.465c0.74,0.449,7.502,4.465,14.553,5.445c2.622,0.363,4.958,0.264,6.944-0.299
					c3.147-0.889,5.467-2.928,7.094-6.232c4.282-8.703,10.781-18.425,17.832-26.678c3.655-4.278,8.651-9.546,13.88-13.337
					c-0.226-0.386-0.458-0.77-0.708-1.153c-0.311-0.477-0.63-0.935-0.956-1.374l-2.176-2.947l-3.07,1.996
					c-5.51,3.582-10.756,10.729-14.188,16.093c-4.914,7.683-9.198,16.525-11.756,24.262c-0.972,2.938-2.667,4.904-5.183,6.008
					c-1.588,0.697-3.52,1.051-5.744,1.051c-5.98,0-12.072-2.56-12.74-2.85c-0.06-0.027-0.492-0.203-0.87-0.355l-1.761-0.717
					c0,0-0.734,0.236-1.948,0.625C65.983,427.215,66.352,427.43,66.409,427.465z"/>
			</g>
		</g>
	</g>
	<g>
		<g style="opacity:0.15;">
			<path d="M281.134,306.089c-8.092,5.544-37.548,23.745-63.649,15.096l-5.097-5.097c-0.483-1.451-0.883-2.93-1.199-4.401
				c-5.45-24.907,11.068-51.602,16.295-59.247L281.134,306.089z"/>
			<path d="M270.438,295.392c-7.636,5.238-34.33,21.756-59.248,16.295c-5.45-24.907,11.068-51.602,16.295-59.247L270.438,295.392z"
				/>
			<path d="M287.808,254.521c2.279-3.955,1.502-8.825-1.584-11.901c2.18-3.772,1.667-8.675-1.56-11.902
				c-2.592-2.592-6.266-3.432-9.567-2.536c-2.42-2.416-6.023-3.513-9.56-2.551c-4.405,1.197-7.286,5.197-7.269,9.554
				c-4.206,1.138-7.299,4.976-7.287,9.538c0.013,4.565,3.126,8.387,7.338,9.502c0.007,4.355,2.91,8.34,7.32,9.514
				c4.411,1.172,8.91-0.844,11.08-4.62C280.929,260.243,285.53,258.474,287.808,254.521z"/>
			<path d="M273.832,241.099c1.386,1.789,1.063,4.362-0.724,5.749c-1.788,1.388-4.361,1.064-5.749-0.724
				c-1.389-1.787-1.064-4.361,0.724-5.75C269.87,238.989,272.445,239.312,273.832,241.099z"/>
			<path d="M297.349,298.462c2.279-3.953,1.501-8.821-1.585-11.898c2.179-3.773,1.666-8.675-1.561-11.901
				c-2.592-2.593-6.265-3.435-9.565-2.537c-2.419-2.416-6.024-3.512-9.561-2.552c-4.403,1.197-7.285,5.197-7.267,9.554
				c-4.205,1.137-7.299,4.975-7.287,9.539c0.013,4.565,3.126,8.387,7.338,9.501c0.007,4.357,2.91,8.34,7.319,9.514
				c4.411,1.174,8.91-0.841,11.08-4.618C290.469,304.185,295.07,302.417,297.349,298.462z"/>
			<path d="M283.374,285.042c1.388,1.787,1.063,4.362-0.726,5.75c-1.787,1.389-4.36,1.064-5.748-0.723
				c-1.388-1.788-1.063-4.362,0.725-5.751C279.412,282.931,281.986,283.256,283.374,285.042z"/>
			<path d="M308.648,275.362c2.279-3.956,1.502-8.824-1.583-11.9c2.18-3.774,1.667-8.677-1.561-11.902
				c-2.592-2.593-6.266-3.433-9.566-2.537c-2.42-2.416-6.023-3.512-9.561-2.551c-4.404,1.199-7.286,5.199-7.268,9.554
				c-4.207,1.138-7.3,4.975-7.287,9.54c0.012,4.565,3.126,8.386,7.337,9.5c0.008,4.358,2.91,8.341,7.321,9.513
				c4.41,1.174,8.909-0.841,11.08-4.618C301.77,281.084,306.371,279.315,308.648,275.362z"/>
			<path d="M294.673,261.94c1.388,1.789,1.063,4.361-0.724,5.749c-1.787,1.388-4.361,1.064-5.748-0.723
				c-1.39-1.788-1.064-4.361,0.723-5.75C290.711,259.829,293.285,260.152,294.673,261.94z"/>
			<path d="M262.197,261.666c2.278-3.955,1.501-8.823-1.584-11.899c2.179-3.773,1.666-8.675-1.561-11.903
				c-2.591-2.591-6.265-3.431-9.566-2.536c-2.421-2.417-6.023-3.513-9.56-2.551c-4.404,1.197-7.286,5.197-7.269,9.553
				c-4.205,1.138-7.298,4.975-7.286,9.54c0.013,4.564,3.125,8.387,7.338,9.501c0.007,4.355,2.909,8.34,7.32,9.513
				c4.41,1.174,8.91-0.842,11.08-4.619C255.317,267.39,259.918,265.62,262.197,261.666z"/>
			<path d="M248.222,248.244c1.386,1.789,1.063,4.361-0.725,5.75c-1.787,1.389-4.36,1.063-5.749-0.724
				c-1.388-1.788-1.063-4.362,0.724-5.75C244.259,246.133,246.834,246.457,248.222,248.244z"/>
			<path d="M280.219,281.333c2.279-3.955,1.501-8.822-1.584-11.9c2.18-3.771,1.666-8.674-1.561-11.901
				c-2.591-2.591-6.265-3.433-9.565-2.537c-2.42-2.417-6.024-3.512-9.561-2.552c-4.403,1.197-7.285,5.197-7.268,9.554
				c-4.205,1.138-7.299,4.977-7.288,9.541c0.014,4.563,3.128,8.385,7.339,9.5c0.008,4.356,2.91,8.339,7.319,9.514
				c4.412,1.173,8.911-0.842,11.081-4.619C273.339,287.056,277.94,285.288,280.219,281.333z"/>
			<path d="M266.242,267.912c1.388,1.788,1.064,4.361-0.724,5.749c-1.788,1.39-4.361,1.064-5.749-0.723
				c-1.389-1.788-1.063-4.363,0.724-5.751C262.282,265.8,264.855,266.125,266.242,267.912z"/>
			
				<rect x="211.009" y="316.608" transform="matrix(0.7071 -0.7071 0.7071 0.7071 -163.9799 244.6154)" width="4.604" height="7.314"/>
			<polygon points="209.098,319.307 189.682,326.865 206.734,343.917 214.269,324.478 			"/>
			<polygon points="211.682,321.892 201.27,338.452 206.734,343.917 214.269,324.478 			"/>
			
				<rect x="213.807" y="315.96" transform="matrix(0.7071 -0.7071 0.7071 0.7071 -163.3244 244.9075)" width="0.329" height="7.292"/>
			<polygon points="215.27,323.464 210.114,318.308 210.347,318.074 215.503,323.23 			"/>
		</g>
		<g>
			<g>
				<path style="fill:#FFE5C2;" d="M279.134,304.089c-8.092,5.544-37.548,23.745-63.649,15.096l-5.097-5.097
					c-0.483-1.451-0.883-2.93-1.199-4.401c-5.45-24.907,11.068-51.602,16.295-59.247L279.134,304.089z"/>
				<path style="fill:#FFF3E0;" d="M268.438,293.392c-7.636,5.238-34.33,21.756-59.248,16.295
					c-5.45-24.907,11.068-51.602,16.295-59.247L268.438,293.392z"/>
				<g>
					<g>
						<path style="fill:#F46969;" d="M285.808,252.521c2.279-3.955,1.502-8.825-1.584-11.901c2.18-3.772,1.667-8.675-1.56-11.902
							c-2.592-2.592-6.266-3.432-9.567-2.536c-2.42-2.416-6.023-3.513-9.56-2.551c-4.405,1.197-7.286,5.197-7.269,9.554
							c-4.206,1.138-7.299,4.976-7.287,9.538c0.013,4.565,3.126,8.387,7.338,9.502c0.007,4.355,2.91,8.34,7.32,9.514
							c4.411,1.172,8.91-0.844,11.08-4.62C278.929,258.243,283.53,256.474,285.808,252.521z"/>
						<path style="fill:#FFF3E0;" d="M271.832,239.099c1.386,1.789,1.063,4.362-0.724,5.749c-1.788,1.387-4.361,1.064-5.749-0.724
							c-1.389-1.787-1.064-4.361,0.724-5.75C267.87,236.989,270.445,237.312,271.832,239.099z"/>
					</g>
					<g>
						<path style="fill:#F46969;" d="M295.349,296.462c2.279-3.953,1.501-8.821-1.585-11.898c2.179-3.773,1.666-8.675-1.561-11.901
							c-2.592-2.593-6.265-3.435-9.565-2.537c-2.419-2.416-6.024-3.512-9.561-2.552c-4.403,1.197-7.285,5.197-7.267,9.554
							c-4.205,1.137-7.299,4.975-7.287,9.539c0.013,4.565,3.126,8.387,7.338,9.501c0.007,4.357,2.91,8.34,7.319,9.514
							c4.411,1.174,8.91-0.841,11.08-4.618C288.469,302.185,293.07,300.417,295.349,296.462z"/>
						<path style="fill:#FFF3E0;" d="M281.374,283.042c1.388,1.787,1.063,4.362-0.726,5.75c-1.787,1.389-4.36,1.064-5.748-0.723
							c-1.388-1.788-1.063-4.362,0.725-5.751C277.412,280.931,279.986,281.256,281.374,283.042z"/>
					</g>
					<g>
						<path style="fill:#E05A5A;" d="M306.648,273.362c2.279-3.956,1.502-8.824-1.583-11.9c2.18-3.774,1.667-8.677-1.561-11.902
							c-2.592-2.593-6.266-3.433-9.566-2.537c-2.42-2.416-6.023-3.512-9.561-2.551c-4.404,1.198-7.286,5.199-7.268,9.554
							c-4.207,1.138-7.3,4.975-7.287,9.54c0.012,4.565,3.126,8.386,7.337,9.5c0.008,4.358,2.91,8.341,7.321,9.513
							c4.41,1.174,8.909-0.841,11.08-4.618C299.77,279.084,304.371,277.315,306.648,273.362z"/>
						<path style="fill:#FFF3E0;" d="M292.673,259.94c1.388,1.789,1.063,4.361-0.724,5.749c-1.787,1.388-4.361,1.064-5.748-0.723
							c-1.39-1.788-1.064-4.361,0.723-5.75C288.711,257.829,291.285,258.152,292.673,259.94z"/>
					</g>
					<g>
						<path style="fill:#E05A5A;" d="M260.197,259.666c2.278-3.955,1.501-8.823-1.584-11.899c2.179-3.773,1.666-8.675-1.561-11.903
							c-2.591-2.591-6.265-3.431-9.566-2.536c-2.421-2.417-6.023-3.513-9.56-2.551c-4.404,1.197-7.286,5.197-7.269,9.553
							c-4.205,1.138-7.298,4.975-7.286,9.54c0.013,4.564,3.125,8.387,7.338,9.501c0.007,4.355,2.909,8.34,7.32,9.513
							c4.41,1.174,8.91-0.842,11.08-4.619C253.317,265.39,257.918,263.62,260.197,259.666z"/>
						<path style="fill:#FFF3E0;" d="M246.222,246.244c1.386,1.79,1.063,4.362-0.725,5.75c-1.787,1.389-4.36,1.063-5.749-0.724
							c-1.388-1.788-1.063-4.363,0.724-5.75C242.259,244.133,244.834,244.457,246.222,246.244z"/>
					</g>
					<g>
						<path style="fill:#FF7474;" d="M278.219,279.333c2.279-3.955,1.501-8.822-1.584-11.9c2.18-3.771,1.666-8.674-1.561-11.901
							c-2.591-2.591-6.265-3.433-9.565-2.537c-2.42-2.417-6.024-3.512-9.561-2.552c-4.403,1.197-7.285,5.197-7.268,9.554
							c-4.205,1.138-7.299,4.977-7.288,9.541c0.014,4.563,3.128,8.385,7.339,9.5c0.008,4.356,2.91,8.339,7.319,9.514
							c4.412,1.173,8.911-0.842,11.081-4.619C271.339,285.056,275.94,283.288,278.219,279.333z"/>
						<path style="fill:#FFF3E0;" d="M264.242,265.912c1.388,1.788,1.064,4.361-0.724,5.749c-1.788,1.39-4.361,1.064-5.749-0.723
							c-1.389-1.788-1.063-4.363,0.724-5.751C260.282,263.8,262.855,264.125,264.242,265.912z"/>
					</g>
				</g>
				
					<rect x="209.009" y="314.608" transform="matrix(0.7071 -0.7071 0.7071 0.7071 -163.1514 242.6155)" style="fill:#E05A5A;" width="4.604" height="7.314"/>
				<polygon style="fill:#FFF3E0;" points="207.098,317.307 187.682,324.865 204.734,341.917 212.269,322.478 				"/>
				<polygon style="fill:#FFE5C2;" points="209.682,319.892 199.27,336.452 204.734,341.917 212.269,322.478 				"/>
				<g>
					
						<rect x="211.807" y="313.96" transform="matrix(0.7071 -0.7071 0.7071 0.7071 -162.496 242.9075)" style="fill:#FF7474;" width="0.329" height="7.292"/>
				</g>
				<g>
					<polygon style="fill:#FF7474;" points="213.27,321.464 208.114,316.308 208.347,316.074 213.503,321.23 					"/>
				</g>
			</g>
		</g>
	</g>
	<g>
		<g style="opacity:0.15;">
			<path d="M456.007,452.412c-0.182,0.616-0.396,1.212-0.658,1.772c-0.161,0.371-0.346,0.729-0.542,1.075l-0.011,0.016l-0.004,0.004
				l-0.01,0.026c-0.169,0.286-0.352,0.566-0.546,0.834c-0.087,0.119-0.177,0.239-0.268,0.357c-1.029,1.311-2.375,2.358-4.099,3.05
				c-0.36,0.144-0.743,0.27-1.145,0.38c-0.642,0.185-1.336,0.323-2.075,0.406c-0.06,0.007-0.11,0.018-0.17,0.021h-0.005
				c-0.407,0.039-0.818,0.065-1.239,0.074c-2.597,0.057-5.365-0.525-8.153-1.512h-0.003c-0.227-0.074-0.454-0.161-0.679-0.248
				c-0.744-0.273-1.486-0.582-2.226-0.912l-0.782-0.356h-0.007c-1.964-0.912-3.902-1.979-5.76-3.105
				c-0.634-0.384-1.256-0.777-1.869-1.175c-2.074-1.341-4.022-2.737-5.756-4.054c-0.587-0.443-1.15-0.882-1.682-1.306
				c-0.372-0.295-0.728-0.582-1.07-0.858c-1.723-1.403-3.088-2.591-3.963-3.38v-20.958c0.718-0.635,1.783-1.554,3.124-2.638
				l0.286-0.229c0.287-0.239,0.593-0.474,0.906-0.72l0.421-0.332c1.572-1.23,3.401-2.59,5.394-3.947
				c0.56-0.387,1.129-0.763,1.713-1.141c1.844-1.194,3.798-2.359,5.801-3.406c0.618-0.325,1.24-0.63,1.868-0.934
				c2.156-1.017,4.35-1.877,6.504-2.459c0.737-0.202,1.472-0.369,2.195-0.498c1.286-0.236,2.552-0.35,3.772-0.332
				c0.527,0.004,1.049,0.041,1.567,0.1c0.482,0.062,0.944,0.148,1.386,0.27c0.864,0.218,1.652,0.554,2.365,0.986
				c1.308,0.777,2.371,1.872,3.206,3.195c0.372,0.571,0.692,1.185,0.972,1.838c0.172,0.387,0.328,0.793,0.463,1.206
				c0.624,1.822,0.974,3.857,1.085,5.978c0.045,0.843,0.051,1.694,0.015,2.555c-0.039,1.232-0.155,2.468-0.341,3.693
				c-0.136,0.923-0.311,1.842-0.522,2.737v0.004c-0.262,1.121-0.583,2.205-0.954,3.245c-0.177,0.5-0.363,0.991-0.564,1.46
				c0.162,0.383,0.312,0.773,0.462,1.176c0.728,1.948,1.337,4.086,1.754,6.258c0.044,0.23,0.085,0.456,0.12,0.683
				c0.136,0.773,0.242,1.551,0.321,2.326c0.04,0.387,0.076,0.773,0.097,1.16C456.882,447.485,456.694,450.107,456.007,452.412z"/>
			<path d="M415.995,428.108c0,0,14.282-9.919,15.37-7.073c1.087,2.846-15.41,9.545-15.41,9.545L415.995,428.108z"/>
			<path d="M415.995,440.581c0,0,14.282,9.919,15.37,7.073c1.087-2.846-15.41-9.543-15.41-9.543L415.995,440.581z"/>
			<path d="M415.929,435.203c0,0,18.448,2.188,18.101-0.839c-0.346-3.028-18.074-1.36-18.074-1.36L415.929,435.203z"/>
			<path d="M356.25,452.412c0.181,0.616,0.397,1.212,0.658,1.772c0.161,0.371,0.345,0.729,0.542,1.075l0.011,0.016l0.004,0.004
				l0.011,0.026c0.169,0.286,0.351,0.566,0.546,0.834c0.086,0.119,0.176,0.239,0.266,0.357c1.03,1.311,2.375,2.358,4.099,3.05
				c0.362,0.144,0.743,0.27,1.145,0.38c0.642,0.185,1.336,0.323,2.074,0.406c0.06,0.007,0.111,0.018,0.17,0.021h0.006
				c0.406,0.039,0.819,0.065,1.24,0.074c2.596,0.057,5.363-0.525,8.151-1.512h0.004c0.226-0.074,0.453-0.161,0.678-0.248
				c0.744-0.273,1.487-0.582,2.226-0.912l0.783-0.356h0.004c1.965-0.912,3.904-1.979,5.762-3.105
				c0.633-0.384,1.255-0.777,1.868-1.175c2.074-1.341,4.022-2.737,5.756-4.054c0.586-0.443,1.149-0.882,1.68-1.306
				c0.373-0.295,0.73-0.582,1.071-0.858c1.723-1.403,3.088-2.591,3.963-3.38v-20.958c-0.718-0.635-1.783-1.554-3.125-2.638
				l-0.286-0.229c-0.287-0.239-0.592-0.474-0.905-0.72l-0.421-0.332c-1.572-1.23-3.4-2.59-5.394-3.947
				c-0.558-0.387-1.129-0.763-1.713-1.141c-1.843-1.194-3.797-2.359-5.8-3.406c-0.619-0.325-1.242-0.63-1.869-0.934
				c-2.155-1.017-4.35-1.877-6.504-2.459c-0.739-0.202-1.472-0.369-2.194-0.498c-1.287-0.236-2.552-0.35-3.772-0.332
				c-0.528,0.004-1.052,0.041-1.567,0.1c-0.483,0.062-0.945,0.148-1.387,0.27c-0.863,0.218-1.652,0.554-2.366,0.986
				c-1.305,0.777-2.37,1.872-3.205,3.195c-0.37,0.571-0.692,1.185-0.972,1.838c-0.171,0.387-0.328,0.793-0.464,1.206
				c-0.621,1.822-0.973,3.857-1.084,5.978c-0.046,0.843-0.051,1.694-0.015,2.555c0.04,1.232,0.155,2.468,0.341,3.693
				c0.137,0.923,0.312,1.842,0.522,2.737v0.004c0.262,1.121,0.582,2.205,0.954,3.245c0.177,0.5,0.363,0.991,0.564,1.46
				c-0.161,0.383-0.312,0.773-0.461,1.176c-0.729,1.948-1.337,4.086-1.754,6.258c-0.044,0.23-0.085,0.456-0.121,0.683
				c-0.134,0.773-0.241,1.551-0.32,2.326c-0.04,0.387-0.075,0.773-0.097,1.16C355.375,447.485,355.563,450.107,356.25,452.412z"/>
			<path d="M396.262,428.108c0,0-14.282-9.919-15.37-7.073c-1.088,2.846,15.41,9.545,15.41,9.545L396.262,428.108z"/>
			<path d="M396.262,440.581c0,0-14.282,9.919-15.37,7.073s15.41-9.543,15.41-9.543L396.262,440.581z"/>
			<path d="M396.328,435.203c0,0-18.447,2.188-18.1-0.839c0.347-3.028,18.075-1.36,18.075-1.36L396.328,435.203z"/>
			<path d="M416.341,423.663l-0.018,3.05l-0.012,2.064l-0.039,6.688l-0.017,2.057l-0.029,5.235c0,0.039,0,0.074-0.006,0.115
				c-0.018,0.467-0.17,0.919-0.431,1.336c-0.344,0.571-0.894,1.084-1.591,1.525c-0.321,0.208-0.672,0.393-1.06,0.558
				c-1.371,0.605-3.099,0.961-4.977,0.954h-0.633l-2.055-0.009l-1.547-0.004c-1.652-0.005-3.189-0.287-4.464-0.773l-0.689-0.294
				c-0.868-0.41-1.576-0.923-2.075-1.505c-0.06-0.076-0.12-0.152-0.175-0.226c-0.397-0.539-0.613-1.121-0.608-1.738l0.03-4.944
				l0.01-1.609v-0.45l0.04-6.682l0.01-2.06l0.021-3.35c0.004-0.493,0.145-0.969,0.411-1.412v-0.004
				c0.417-0.695,1.121-1.313,2.036-1.809c0.09-0.05,0.175-0.094,0.272-0.142h0.004c1.421-0.708,3.294-1.13,5.348-1.125h1.045
				l2.06,0.004l1.125,0.007c1.843,0.007,3.54,0.36,4.891,0.949h0.006c0.234,0.104,0.461,0.218,0.678,0.332
				c0.954,0.521,1.677,1.171,2.078,1.903v0.005c0.161,0.279,0.268,0.577,0.322,0.879v0.005
				C416.326,423.351,416.341,423.507,416.341,423.663z"/>
		</g>
		<g>
			<g>
				<g>
					<path style="fill:#F46969;" d="M454.007,450.412c-0.182,0.616-0.396,1.212-0.658,1.772c-0.161,0.371-0.346,0.729-0.542,1.075
						l-0.011,0.016l-0.004,0.004l-0.01,0.026c-0.169,0.286-0.352,0.566-0.546,0.834c-0.087,0.119-0.177,0.239-0.268,0.357
						c-1.029,1.311-2.375,2.358-4.099,3.05c-0.36,0.144-0.743,0.27-1.145,0.38c-0.642,0.185-1.336,0.323-2.075,0.406
						c-0.06,0.007-0.11,0.018-0.17,0.021h-0.005c-0.407,0.039-0.818,0.065-1.239,0.074c-2.597,0.057-5.365-0.525-8.153-1.512h-0.003
						c-0.227-0.074-0.454-0.161-0.679-0.248c-0.744-0.273-1.486-0.582-2.226-0.912l-0.782-0.356h-0.007
						c-1.964-0.912-3.902-1.979-5.76-3.105c-0.634-0.384-1.256-0.777-1.869-1.175c-2.074-1.341-4.022-2.737-5.756-4.054
						c-0.587-0.443-1.15-0.882-1.682-1.306c-0.372-0.295-0.728-0.582-1.07-0.858c-1.723-1.403-3.088-2.591-3.963-3.38v-20.958
						c0.718-0.635,1.783-1.554,3.124-2.638l0.286-0.229c0.287-0.239,0.593-0.474,0.906-0.72l0.421-0.332
						c1.572-1.23,3.401-2.59,5.394-3.947c0.56-0.387,1.129-0.763,1.713-1.141c1.844-1.194,3.798-2.359,5.801-3.406
						c0.618-0.325,1.24-0.63,1.868-0.934c2.156-1.017,4.35-1.877,6.504-2.459c0.737-0.202,1.472-0.369,2.195-0.498
						c1.286-0.236,2.552-0.35,3.772-0.332c0.527,0.004,1.049,0.041,1.567,0.1c0.482,0.062,0.944,0.148,1.386,0.27
						c0.864,0.218,1.652,0.554,2.365,0.986c1.308,0.777,2.371,1.872,3.206,3.195c0.372,0.571,0.692,1.185,0.972,1.838
						c0.172,0.387,0.328,0.793,0.463,1.206c0.624,1.822,0.974,3.857,1.085,5.978c0.045,0.843,0.051,1.694,0.015,2.555
						c-0.039,1.232-0.155,2.468-0.341,3.693c-0.136,0.923-0.311,1.842-0.522,2.737v0.004c-0.262,1.121-0.583,2.205-0.954,3.245
						c-0.177,0.5-0.363,0.991-0.564,1.46c0.162,0.383,0.312,0.773,0.462,1.176c0.728,1.948,1.337,4.086,1.754,6.258
						c0.044,0.23,0.085,0.456,0.12,0.683c0.136,0.773,0.242,1.551,0.321,2.326c0.04,0.387,0.076,0.773,0.097,1.16
						C454.882,445.485,454.694,448.107,454.007,450.412z"/>
				</g>
				<path style="fill:#E05A5A;" d="M413.995,426.108c0,0,14.282-9.919,15.37-7.073c1.087,2.846-15.41,9.545-15.41,9.545
					L413.995,426.108z"/>
				<path style="fill:#E05A5A;" d="M413.995,438.581c0,0,14.282,9.919,15.37,7.073c1.087-2.846-15.41-9.543-15.41-9.543
					L413.995,438.581z"/>
				<path style="fill:#E05A5A;" d="M413.929,433.203c0,0,18.448,2.188,18.101-0.839c-0.346-3.028-18.074-1.36-18.074-1.36
					L413.929,433.203z"/>
				<g>
					<path style="fill:#F46969;" d="M354.25,450.412c0.181,0.616,0.397,1.212,0.658,1.772c0.161,0.371,0.345,0.729,0.542,1.075
						l0.011,0.016l0.004,0.004l0.011,0.026c0.169,0.286,0.351,0.566,0.546,0.834c0.086,0.119,0.176,0.239,0.266,0.357
						c1.03,1.311,2.375,2.358,4.099,3.05c0.362,0.144,0.743,0.27,1.145,0.38c0.642,0.185,1.336,0.323,2.074,0.406
						c0.06,0.007,0.111,0.018,0.17,0.021h0.006c0.406,0.039,0.819,0.065,1.24,0.074c2.596,0.057,5.363-0.525,8.151-1.512h0.004
						c0.226-0.074,0.453-0.161,0.678-0.248c0.744-0.273,1.487-0.582,2.226-0.912l0.783-0.356h0.004
						c1.965-0.912,3.904-1.979,5.762-3.105c0.633-0.384,1.255-0.777,1.868-1.175c2.074-1.341,4.022-2.737,5.756-4.054
						c0.586-0.443,1.149-0.882,1.68-1.306c0.373-0.295,0.73-0.582,1.071-0.858c1.723-1.403,3.088-2.591,3.963-3.38v-20.958
						c-0.718-0.635-1.783-1.554-3.125-2.638l-0.286-0.229c-0.287-0.239-0.592-0.474-0.905-0.72l-0.421-0.332
						c-1.572-1.23-3.4-2.59-5.394-3.947c-0.558-0.387-1.129-0.763-1.713-1.141c-1.843-1.194-3.797-2.359-5.8-3.406
						c-0.619-0.325-1.242-0.63-1.869-0.934c-2.155-1.017-4.35-1.877-6.504-2.459c-0.739-0.202-1.472-0.369-2.194-0.498
						c-1.287-0.236-2.552-0.35-3.772-0.332c-0.528,0.004-1.052,0.041-1.567,0.1c-0.483,0.062-0.945,0.148-1.387,0.27
						c-0.863,0.218-1.652,0.554-2.366,0.986c-1.305,0.777-2.37,1.872-3.205,3.195c-0.37,0.571-0.692,1.185-0.972,1.838
						c-0.171,0.387-0.328,0.793-0.464,1.206c-0.621,1.822-0.973,3.857-1.084,5.978c-0.046,0.843-0.051,1.694-0.015,2.555
						c0.04,1.232,0.155,2.468,0.341,3.693c0.137,0.923,0.312,1.842,0.522,2.737v0.004c0.262,1.121,0.582,2.205,0.954,3.245
						c0.177,0.5,0.363,0.991,0.564,1.46c-0.161,0.383-0.312,0.773-0.461,1.176c-0.729,1.948-1.337,4.086-1.754,6.258
						c-0.044,0.23-0.085,0.456-0.121,0.683c-0.134,0.773-0.241,1.551-0.32,2.326c-0.04,0.387-0.075,0.773-0.097,1.16
						C353.375,445.485,353.563,448.107,354.25,450.412z"/>
				</g>
				<path style="fill:#E05A5A;" d="M394.262,426.108c0,0-14.282-9.919-15.37-7.073c-1.088,2.846,15.41,9.545,15.41,9.545
					L394.262,426.108z"/>
				<path style="fill:#E05A5A;" d="M394.262,438.581c0,0-14.282,9.919-15.37,7.073s15.41-9.543,15.41-9.543L394.262,438.581z"/>
				<path style="fill:#E05A5A;" d="M394.328,433.203c0,0-18.447,2.188-18.1-0.839c0.347-3.028,18.075-1.36,18.075-1.36
					L394.328,433.203z"/>
				<g>
					<g>
						<path style="fill:#FF7474;" d="M414.341,421.663l-0.018,3.05l-0.012,2.064l-0.039,6.688l-0.017,2.057l-0.029,5.235
							c0,0.039,0,0.074-0.006,0.115c-0.018,0.467-0.17,0.919-0.431,1.336c-0.344,0.571-0.894,1.084-1.591,1.525
							c-0.321,0.208-0.672,0.393-1.06,0.558c-1.371,0.605-3.099,0.961-4.977,0.954h-0.633l-2.055-0.009l-1.547-0.004
							c-1.652-0.005-3.189-0.287-4.464-0.773l-0.689-0.294c-0.868-0.41-1.576-0.923-2.075-1.505c-0.06-0.076-0.12-0.152-0.175-0.226
							c-0.397-0.539-0.613-1.121-0.608-1.738l0.03-4.944l0.01-1.609v-0.45l0.04-6.682l0.01-2.06l0.021-3.35
							c0.004-0.493,0.145-0.969,0.411-1.412v-0.004c0.417-0.695,1.121-1.313,2.036-1.809c0.09-0.05,0.175-0.094,0.272-0.142h0.004
							c1.421-0.708,3.294-1.13,5.348-1.125h1.045l2.06,0.004l1.125,0.007c1.843,0.007,3.54,0.36,4.891,0.949h0.006
							c0.234,0.104,0.461,0.218,0.678,0.332c0.954,0.521,1.677,1.171,2.078,1.903v0.005c0.161,0.279,0.268,0.577,0.322,0.879v0.005
							C414.326,421.351,414.341,421.507,414.341,421.663z"/>
					</g>
				</g>
			</g>
		</g>
	</g>
	<g>
		<g style="opacity:0.15;">
			<path style="fill-rule:evenodd;clip-rule:evenodd;" d="M459.53,312.996c1.526,2.558,2.784,5.188,3.663,7.962
				c1.24,3.912,1.927,7.889,1.013,12.023c-0.349,1.579-0.749,3.111-1.381,4.597c-0.192,0.448-0.271,0.978-0.275,1.471
				c-0.023,3.11-0.011,6.219-0.012,9.329c0,0.204-0.02,0.408-0.033,0.66c-11.957,0-23.878,0-35.885,0c0-2.475,0-4.949,0-7.581
				c-2.275,0.822-4.424,1.596-6.57,2.378c-2.305,0.839-4.586,1.749-6.915,2.515c-2.197,0.722-4.411,1.477-6.677,1.885
				c-2.548,0.459-5.161,0.718-7.75,0.761c-6.999,0.114-14.002,0.107-21.003,0.069c-3.431-0.018-6.842-0.398-10.195-1.16
				c-2.372-0.54-4.74-1.101-7.086-1.739c-1.189-0.323-2.326-0.838-3.483-1.273c-1.327-0.499-2.665-0.975-3.974-1.517
				c-1.816-0.753-3.515-1.739-4.561-3.458c-1.249-2.051-0.974-3.872,0.741-5.627c1.387-1.42,3.165-2.1,5.129-2.168
				c4.211-0.145,8.427-0.17,12.637-0.351c3.883-0.167,7.78-0.385,11.586-1.226c2.64-0.584,5.266-1.328,7.591-2.785
				c2.283-1.431,4.517-2.94,6.765-4.428c1.653-1.095,3.308-2.186,4.937-3.316c2.313-1.607,4.594-3.263,6.906-4.872
				c2.347-1.634,4.723-3.224,7.071-4.855c1.613-1.12,3.202-2.276,4.799-3.42c0.665-0.477,1.435-0.57,2.103-0.001
				c1.092,0.933,9.95,8.846,11.875,9.564c4.146,1.55,8.471,2.079,12.882,1.81c2.922-0.179,5.783-0.688,8.572-1.638
				C454.641,315.704,457.117,314.491,459.53,312.996z"/>
			<rect x="426.619" y="341.457" style="fill-rule:evenodd;clip-rule:evenodd;" width="35.917" height="7.581"/>
			<path d="M414.645,319.403c-0.532,0-1.062-0.211-1.456-0.628l-6.009-6.374c-0.758-0.804-0.721-2.07,0.083-2.827
				c0.804-0.758,2.07-0.721,2.827,0.083l6.009,6.374c0.758,0.804,0.721,2.069-0.083,2.827
				C415.63,319.223,415.137,319.403,414.645,319.403z"/>
			<path d="M407.77,324.591c-0.532,0-1.062-0.211-1.456-0.628l-6.009-6.374c-0.758-0.804-0.721-2.07,0.083-2.827
				c0.804-0.758,2.07-0.721,2.827,0.083l6.009,6.374c0.758,0.804,0.721,2.069-0.083,2.827
				C408.755,324.41,408.262,324.591,407.77,324.591z"/>
			<path d="M400.895,329.778c-0.532,0-1.062-0.211-1.456-0.628l-6.009-6.374c-0.758-0.804-0.721-2.07,0.083-2.827
				c0.804-0.758,2.07-0.721,2.827,0.083l6.009,6.374c0.758,0.804,0.721,2.069-0.083,2.827
				C401.88,329.598,401.387,329.778,400.895,329.778z"/>
			<path d="M459.475,312.996c-2.413,1.495-4.889,2.707-7.532,3.607c-2.789,0.951-5.65,1.459-8.572,1.639
				c-4.411,0.27-8.735-0.26-12.882-1.81c-1.925-0.719-10.783-8.632-11.875-9.564c-0.668-0.569-1.438-0.476-2.103,0.001
				c-0.155,0.111-0.31,0.221-0.466,0.332c5.128,8.877,14.713,14.855,25.701,14.855c7.21,0,13.818-2.574,18.959-6.852
				C460.316,314.463,459.91,313.726,459.475,312.996z"/>
		</g>
		<g>
			<g>
				<path style="fill-rule:evenodd;clip-rule:evenodd;fill:#424242;" d="M457.53,310.996c1.526,2.558,2.784,5.188,3.663,7.962
					c1.24,3.912,1.927,7.889,1.013,12.023c-0.349,1.579-0.749,3.111-1.381,4.597c-0.192,0.448-0.271,0.978-0.275,1.471
					c-0.023,3.11-0.011,6.219-0.012,9.329c0,0.204-0.02,0.408-0.033,0.66c-11.957,0-23.878,0-35.885,0c0-2.475,0-4.949,0-7.581
					c-2.275,0.822-4.424,1.596-6.57,2.378c-2.305,0.839-4.586,1.749-6.915,2.515c-2.197,0.722-4.411,1.477-6.677,1.885
					c-2.548,0.459-5.161,0.718-7.75,0.761c-6.999,0.114-14.002,0.107-21.003,0.069c-3.431-0.018-6.842-0.398-10.195-1.16
					c-2.372-0.54-4.74-1.101-7.086-1.739c-1.189-0.323-2.326-0.838-3.483-1.273c-1.327-0.499-2.665-0.975-3.974-1.517
					c-1.816-0.753-3.515-1.739-4.561-3.458c-1.249-2.051-0.974-3.872,0.741-5.627c1.387-1.42,3.165-2.1,5.129-2.168
					c4.211-0.145,8.427-0.17,12.637-0.351c3.883-0.167,7.78-0.385,11.586-1.226c2.64-0.584,5.266-1.328,7.591-2.785
					c2.283-1.431,4.517-2.94,6.765-4.428c1.653-1.095,3.308-2.186,4.937-3.316c2.313-1.607,4.594-3.263,6.906-4.872
					c2.347-1.634,4.723-3.224,7.071-4.855c1.613-1.12,3.202-2.276,4.799-3.42c0.665-0.477,1.435-0.57,2.103-0.001
					c1.092,0.933,9.95,8.846,11.875,9.564c4.146,1.55,8.471,2.079,12.882,1.81c2.922-0.179,5.783-0.688,8.572-1.638
					C452.641,313.704,455.117,312.491,457.53,310.996z"/>
				<rect x="424.619" y="339.457" style="fill-rule:evenodd;clip-rule:evenodd;fill:#616161;" width="35.917" height="7.581"/>
				<g>
					<path style="fill:#616161;" d="M412.645,317.403c-0.532,0-1.062-0.211-1.456-0.628l-6.009-6.374
						c-0.758-0.804-0.721-2.07,0.083-2.827c0.804-0.758,2.07-0.721,2.827,0.083l6.009,6.374c0.758,0.804,0.721,2.069-0.083,2.827
						C413.63,317.223,413.137,317.403,412.645,317.403z"/>
				</g>
				<g>
					<path style="fill:#616161;" d="M405.77,322.591c-0.532,0-1.062-0.211-1.456-0.628l-6.009-6.374
						c-0.758-0.804-0.721-2.07,0.083-2.827c0.804-0.758,2.07-0.721,2.827,0.083l6.009,6.374c0.758,0.804,0.721,2.069-0.083,2.827
						C406.755,322.41,406.262,322.591,405.77,322.591z"/>
				</g>
				<g>
					<path style="fill:#616161;" d="M398.895,327.778c-0.532,0-1.062-0.211-1.456-0.628l-6.009-6.374
						c-0.758-0.804-0.721-2.07,0.083-2.827c0.804-0.758,2.07-0.721,2.827,0.083l6.009,6.374c0.758,0.804,0.721,2.069-0.083,2.827
						C399.88,327.598,399.387,327.778,398.895,327.778z"/>
				</g>
				<path style="fill:#616161;" d="M457.475,310.996c-2.413,1.495-4.889,2.707-7.532,3.607c-2.789,0.951-5.65,1.459-8.572,1.639
					c-4.411,0.27-8.735-0.26-12.882-1.81c-1.925-0.719-10.783-8.632-11.875-9.564c-0.668-0.569-1.438-0.476-2.103,0.001
					c-0.155,0.111-0.31,0.221-0.466,0.332c5.128,8.877,14.713,14.855,25.701,14.855c7.21,0,13.818-2.574,18.959-6.852
					C458.316,312.463,457.91,311.726,457.475,310.996z"/>
			</g>
		</g>
	</g>
	<g>
		<g style="opacity:0.15;">
			<path d="M438.218,232.348h-64.169c0,0-5.368-117.004-1.837-122.511c1.559-2.422,19.638-9.409,19.638-9.409v-0.031l2.669-14.608
				h23.23l2.668,14.608v0.031c0,0,18.065,6.987,19.623,9.409C443.571,115.328,438.218,232.348,438.218,232.348z"/>
			<path d="M438.218,232.348h-64.169c0,0-5.368-117.004-1.837-122.511c1.559-2.422,19.638-9.409,19.638-9.409v-0.031l14.284,5.831
				l14.269-5.831h0.015v0.031c0,0,18.065,6.987,19.623,9.409C443.571,115.328,438.218,232.348,438.218,232.348z"/>
			<rect x="404.168" y="106.286" width="3.92" height="126.062"/>
			<polygon points="406.134,106.227 395.069,113.424 391.854,100.403 			"/>
			<polygon points="406.026,106.227 417.091,113.424 420.306,100.403 			"/>
			<polygon points="364.148,109.947 333.73,231.234 355.519,236.247 369.02,177.823 			"/>
			<path d="M391.854,100.403l-27.707,9.544c0,0,4.926,69.576,3.078,82.197c-1.847,12.621-3.078,36.018-3.078,36.018
				s14.161,18.78,24.628,13.853c10.467-4.926,15.393-14.161,15.393-14.161v-77.579L391.854,100.403z"/>
			<path d="M391.854,100.403l-6.157,6.774h-9.236c0,0,9.853,36.633,27.707,52.027v-8.929L391.854,100.403z"/>
			<path d="M369.309,194.41v7.525c0,1.605,1.302,2.907,2.907,2.907h13.811c1.606,0,2.908-1.301,2.908-2.907v-7.525H369.309z"/>
			<polygon points="448.109,109.947 478.526,231.234 456.738,236.247 443.237,177.823 			"/>
			<path d="M420.402,100.403l27.707,9.544c0,0-4.926,69.576-3.079,82.197c1.847,12.621,3.079,36.018,3.079,36.018
				s-14.161,18.78-24.627,13.853c-10.468-4.926-15.393-14.161-15.393-14.161v-77.579L420.402,100.403z"/>
			<path d="M420.402,100.403l6.157,6.774h9.236c0,0-9.852,36.633-27.706,52.027v-8.929L420.402,100.403z"/>
			<path d="M442.948,194.41v7.525c0,1.605-1.302,2.907-2.907,2.907h-13.81c-1.606,0-2.908-1.301-2.908-2.907v-7.525H442.948z"/>
			<path d="M415.936,187.528c0,1.066-0.863,1.928-1.928,1.928s-1.928-0.863-1.928-1.928c0-1.064,0.863-1.928,1.928-1.928
				S415.936,186.463,415.936,187.528z"/>
			<circle cx="414.008" cy="205.484" r="1.928"/>
			<path d="M415.936,220.886c0,1.064-0.863,1.928-1.928,1.928s-1.928-0.864-1.928-1.928c0-1.065,0.863-1.928,1.928-1.928
				S415.936,219.821,415.936,220.886z"/>
		</g>
		<g>
			<g>
				<path style="fill:#FFE1B1;" d="M436.218,230.348h-64.169c0,0-5.368-117.004-1.837-122.511
					c1.559-2.422,19.638-9.409,19.638-9.409v-0.031l2.669-14.608h23.23l2.668,14.608v0.031c0,0,18.065,6.987,19.623,9.409
					C441.571,113.328,436.218,230.348,436.218,230.348z"/>
				<g>
					<path style="fill:#F5F5F5;" d="M436.218,230.348h-64.169c0,0-5.368-117.004-1.837-122.511
						c1.559-2.422,19.638-9.409,19.638-9.409v-0.031l14.284,5.831l14.269-5.831h0.015v0.031c0,0,18.065,6.987,19.623,9.409
						C441.571,113.328,436.218,230.348,436.218,230.348z"/>
					<rect x="402.168" y="104.286" style="fill:#FFFDFC;" width="3.92" height="126.062"/>
					<polygon style="fill:#FFFDFC;" points="404.134,104.227 393.069,111.424 389.854,98.403 					"/>
					<polygon style="fill:#FFFDFC;" points="404.026,104.227 415.091,111.424 418.306,98.403 					"/>
				</g>
				<g>
					<polygon style="fill:#424242;" points="362.148,107.947 331.73,229.234 353.519,234.247 367.02,175.823 					"/>
					<path style="fill:#616161;" d="M389.854,98.403l-27.707,9.544c0,0,4.926,69.576,3.078,82.197
						c-1.847,12.621-3.078,36.018-3.078,36.018s14.161,18.78,24.628,13.853c10.467-4.926,15.393-14.161,15.393-14.161v-77.579
						L389.854,98.403z"/>
					<path style="fill:#424242;" d="M389.854,98.403l-6.157,6.774h-9.236c0,0,9.853,36.633,27.707,52.027v-8.929L389.854,98.403z"/>
					<path style="fill:#424242;" d="M367.309,192.41v7.525c0,1.605,1.302,2.907,2.907,2.907h13.811c1.606,0,2.908-1.301,2.908-2.907
						v-7.525H367.309z"/>
				</g>
				<g>
					<polygon style="fill:#424242;" points="446.109,107.947 476.526,229.234 454.738,234.247 441.237,175.823 					"/>
					<path style="fill:#616161;" d="M418.402,98.403l27.707,9.544c0,0-4.926,69.576-3.079,82.197
						c1.847,12.621,3.079,36.018,3.079,36.018s-14.161,18.78-24.627,13.853c-10.468-4.926-15.393-14.161-15.393-14.161v-77.579
						L418.402,98.403z"/>
					<path style="fill:#424242;" d="M418.402,98.403l6.157,6.774h9.236c0,0-9.852,36.633-27.706,52.027v-8.929L418.402,98.403z"/>
					<path style="fill:#424242;" d="M440.948,192.41v7.525c0,1.605-1.302,2.907-2.907,2.907h-13.81
						c-1.606,0-2.908-1.301-2.908-2.907v-7.525H440.948z"/>
					<path style="fill:#424242;" d="M413.936,185.528c0,1.066-0.863,1.928-1.928,1.928s-1.928-0.863-1.928-1.928
						c0-1.064,0.863-1.928,1.928-1.928S413.936,184.463,413.936,185.528z"/>
					<circle style="fill:#424242;" cx="412.008" cy="203.484" r="1.928"/>
					<path style="fill:#424242;" d="M413.936,218.886c0,1.064-0.863,1.928-1.928,1.928s-1.928-0.864-1.928-1.928
						c0-1.065,0.863-1.928,1.928-1.928S413.936,217.821,413.936,218.886z"/>
				</g>
			</g>
		</g>
	</g>
	<g>
		<g style="opacity:0.15;">
			<path d="M235.226,447.428c-1.23,4.815-6.131,7.724-10.947,6.493c-4.815-1.229-7.724-6.13-6.494-10.946
				c1.23-4.816,6.131-7.724,10.947-6.494C233.547,437.71,236.455,442.611,235.226,447.428z"/>
			<path d="M256.185,419.649c3.06-11.987-4.088-24.179-15.992-27.399l0.002-0.009c-0.053-0.014-0.106-0.023-0.16-0.037
				c-0.054-0.014-0.104-0.03-0.158-0.044l-0.002,0.009c-11.991-2.88-24.108,4.394-27.169,16.381c0,0-3.943,16.128-18.112,20.422
				l-2.309,9.043l67.698,17.283l2.309-9.043C251.915,435.693,256.185,419.649,256.185,419.649z"/>
			<path d="M238.439,397.737l0.002-0.009c0.058,0.015,0.114,0.032,0.172,0.047c0.058,0.015,0.115,0.025,0.173,0.041l-0.002,0.009
				c9.65,2.611,16.407,10.682,17.778,20.021c1.947-11.385-5.063-22.537-16.369-25.596l0.002-0.009
				c-0.053-0.014-0.106-0.023-0.16-0.037c-0.054-0.014-0.104-0.03-0.158-0.044l-0.002,0.009
				c-11.39-2.735-22.888,3.692-26.635,14.616C218.919,399.247,228.717,395.403,238.439,397.737z"/>
			
				<rect x="222.621" y="407.2" transform="matrix(0.2474 -0.9689 0.9689 0.2474 -257.3297 552.9901)" width="9.333" height="69.87"/>
			<path d="M286.061,446.082c1.065,4.854-2.008,9.654-6.863,10.718c-4.855,1.065-9.654-2.007-10.719-6.862
				c-1.065-4.855,2.007-9.654,6.862-10.719C280.197,438.153,284.997,441.227,286.061,446.082z"/>
			<path d="M292.31,411.849c-2.65-12.084-14.514-19.766-26.596-17.296l-0.002-0.009c-0.054,0.012-0.106,0.027-0.16,0.039
				c-0.054,0.012-0.107,0.02-0.161,0.032l0.002,0.009c-12.007,2.813-19.566,14.755-16.915,26.839c0,0,3.721,16.181-7.009,26.382
				l1.999,9.116l68.248-14.969l-1.999-9.116C295.701,428.102,292.31,411.849,292.31,411.849z"/>
			<path d="M266.611,400.243l-0.002-0.009c0.059-0.013,0.116-0.022,0.175-0.035c0.058-0.013,0.114-0.028,0.173-0.041l0.002,0.009
				c9.795-2.002,19.457,2.174,24.877,9.901c-3.374-11.046-14.646-17.861-26.122-15.516l-0.002-0.009
				c-0.054,0.012-0.106,0.027-0.16,0.039c-0.054,0.012-0.107,0.02-0.161,0.032l0.002,0.009
				c-11.404,2.672-18.789,13.579-17.231,25.023C249.851,410.36,256.878,402.525,266.611,400.243z"/>
			
				<rect x="241.657" y="440.252" transform="matrix(0.9768 -0.2142 0.2142 0.9768 -88.8955 69.5861)" width="69.87" height="9.333"/>
			<path d="M241.469,395.355c0,0-16.893,8.371-18.969,24.291l5.667-3.98l0.667,9.859c0,0,7.794-20.218,18.165-25.022
				L241.469,395.355z"/>
			<path d="M242.213,396.049l-0.744-0.693c0,0-16.893,8.371-18.969,24.291l1.185-0.832
				C226.343,404.828,240.333,397.038,242.213,396.049z"/>
			<path d="M264.878,394.091c0,0,16.893,8.371,18.969,24.291l-5.667-3.979l-0.667,9.859c0,0-7.794-20.218-18.165-25.022
				L264.878,394.091z"/>
			<path d="M260.461,398.203l-1.112,1.036c10.37,4.805,18.165,25.022,18.165,25.022l0.168-2.484
				C275.846,417.422,269.085,402.595,260.461,398.203z"/>
			<path d="M268.083,383.326c-0.925-3.642-4.065-6.283-7.466-6.283c-4.392,0-7.71,4.572-7.71,4.572
				c-1.683-2.781-5.104-4.572-7.711-4.572c-3.399,0-6.537,2.642-7.465,6.283c-0.661,2.587-1.482,11.674,15.173,20.98
				C269.565,395,268.743,385.913,268.083,383.326z"/>
			<path d="M268.083,383.326c-0.925-3.642-4.065-6.283-7.466-6.283c-0.173,0-0.34,0.018-0.506,0.032
				c1.36,1.118,2.408,2.706,2.879,4.561c0.646,2.522,1.435,11.227-13.982,20.289c1.182,0.791,2.471,1.584,3.896,2.381
				C269.565,395,268.743,385.913,268.083,383.326z"/>
		</g>
		<g>
			<g>
				<g>
					<path style="fill:#FFE5C2;" d="M233.226,445.428c-1.23,4.815-6.131,7.724-10.947,6.493c-4.815-1.229-7.724-6.13-6.494-10.946
						c1.23-4.816,6.131-7.724,10.947-6.494C231.547,435.71,234.455,440.611,233.226,445.428z"/>
					<path style="fill:#F2CFA0;" d="M254.185,417.649c3.06-11.987-4.088-24.179-15.992-27.399l0.002-0.009
						c-0.053-0.014-0.106-0.023-0.16-0.037c-0.054-0.014-0.104-0.03-0.158-0.044l-0.002,0.009
						c-11.991-2.88-24.108,4.394-27.169,16.381c0,0-3.943,16.128-18.112,20.422l-2.309,9.043l67.698,17.283l2.309-9.043
						C249.915,433.693,254.185,417.649,254.185,417.649z"/>
					<path style="fill:#FFE5C2;" d="M236.439,395.737l0.002-0.009c0.058,0.015,0.114,0.032,0.172,0.047
						c0.058,0.015,0.115,0.025,0.173,0.041l-0.002,0.009c9.65,2.611,16.407,10.682,17.778,20.021
						c1.947-11.385-5.063-22.537-16.369-25.596l0.002-0.009c-0.053-0.014-0.106-0.023-0.16-0.037
						c-0.054-0.014-0.104-0.03-0.158-0.044l-0.002,0.009c-11.39-2.735-22.888,3.692-26.635,14.616
						C216.919,397.247,226.717,393.403,236.439,395.737z"/>
					
						<rect x="220.621" y="405.2" transform="matrix(0.2474 -0.9689 0.9689 0.2474 -256.8971 549.5469)" style="fill:#FFF3E0;" width="9.333" height="69.87"/>
				</g>
				<g>
					<path style="fill:#FFE5C2;" d="M284.061,444.082c1.065,4.854-2.008,9.654-6.863,10.718c-4.855,1.065-9.654-2.007-10.719-6.862
						c-1.065-4.855,2.007-9.654,6.862-10.719C278.197,436.153,282.997,439.227,284.061,444.082z"/>
					<path style="fill:#FFE5C2;" d="M290.31,409.849c-2.65-12.084-14.514-19.766-26.596-17.296l-0.002-0.009
						c-0.054,0.012-0.106,0.027-0.16,0.039c-0.054,0.012-0.107,0.02-0.161,0.032l0.002,0.009
						c-12.007,2.813-19.566,14.755-16.915,26.839c0,0,3.721,16.181-7.009,26.382l1.999,9.116l68.248-14.969l-1.999-9.116
						C293.701,426.102,290.31,409.849,290.31,409.849z"/>
					<path style="fill:#FFF3E0;" d="M264.611,398.243l-0.002-0.009c0.059-0.013,0.116-0.022,0.175-0.035
						c0.058-0.013,0.114-0.028,0.173-0.041l0.002,0.009c9.795-2.002,19.457,2.174,24.877,9.901
						c-3.374-11.046-14.646-17.861-26.122-15.516l-0.002-0.009c-0.054,0.012-0.106,0.027-0.16,0.039
						c-0.054,0.012-0.107,0.02-0.161,0.032l0.002,0.009c-11.404,2.672-18.789,13.579-17.231,25.023
						C247.851,408.36,254.878,400.525,264.611,398.243z"/>
					
						<rect x="239.657" y="438.252" transform="matrix(0.9768 -0.2142 0.2142 0.9768 -88.5135 69.1111)" style="fill:#FFF3E0;" width="69.87" height="9.333"/>
				</g>
				<path style="fill:#F46969;" d="M239.469,393.355c0,0-16.893,8.371-18.969,24.291l5.667-3.98l0.667,9.859
					c0,0,7.794-20.218,18.165-25.022L239.469,393.355z"/>
				<path style="fill:#FF7474;" d="M240.213,394.049l-0.744-0.693c0,0-16.893,8.371-18.969,24.291l1.185-0.832
					C224.343,402.828,238.333,395.038,240.213,394.049z"/>
				<path style="fill:#F46969;" d="M262.878,392.091c0,0,16.893,8.371,18.969,24.291l-5.667-3.979l-0.667,9.859
					c0,0-7.794-20.218-18.165-25.022L262.878,392.091z"/>
				<path style="fill:#EA6565;" d="M258.461,396.203l-1.112,1.036c10.37,4.805,18.165,25.022,18.165,25.022l0.168-2.484
					C273.846,415.422,267.085,400.595,258.461,396.203z"/>
				<g>
					<path style="fill:#FF7474;" d="M266.083,381.326c-0.925-3.642-4.065-6.283-7.466-6.283c-4.392,0-7.71,4.572-7.71,4.572
						c-1.683-2.781-5.104-4.572-7.711-4.572c-3.399,0-6.537,2.642-7.465,6.283c-0.661,2.587-1.482,11.674,15.173,20.98
						C267.565,393,266.743,383.913,266.083,381.326z"/>
					<path style="fill:#F46969;" d="M266.083,381.326c-0.925-3.642-4.065-6.283-7.466-6.283c-0.173,0-0.34,0.018-0.506,0.032
						c1.36,1.118,2.408,2.706,2.879,4.561c0.646,2.522,1.435,11.227-13.982,20.289c1.182,0.791,2.471,1.584,3.896,2.381
						C267.565,393,266.743,383.913,266.083,381.326z"/>
				</g>
			</g>
		</g>
	</g>
	<g>
		<g style="opacity:0.15;">
			<polygon points="82.701,31.857 91.201,50.357 82.701,68.857 130.545,68.857 130.545,31.857 			"/>
			<polygon points="101.243,59 130.545,68.857 130.545,59 			"/>
			<polygon points="421.299,31.857 412.799,50.357 421.299,68.857 373.455,68.857 373.455,31.857 			"/>
			<polygon points="402.757,59 373.455,68.857 373.455,59 			"/>
			<rect x="101.243" y="22" width="301.735" height="37"/>
			<text transform="matrix(1 0 0 1 150.9492 48.0303)" style="font-family:'Rokkitt'; font-size:21px;">WEDDING COLLECTION </text>
			<path d="M126.153,32.186l-12.933-3.72v2.055v3.371v9.125c-0.98-0.505-2.286-0.604-3.571-0.163
				c-2.184,0.748-3.475,2.756-2.882,4.486c0.592,1.73,2.843,2.526,5.027,1.779c1.936-0.663,3.167-2.316,3.009-3.888h0.029V34.356
				l11.321,3.256v8.533c-0.979-0.499-2.279-0.595-3.56-0.157c-2.184,0.748-3.475,2.757-2.882,4.487
				c0.592,1.73,2.843,2.525,5.027,1.778c1.745-0.598,2.917-2,3.016-3.423h0.01V37.964v-5.426L126.153,32.186z"/>
			<polygon points="126.711,33.812 127.765,34.042 127.765,32.538 126.153,32.186 113.22,28.466 113.22,29.932 			"/>
			<path d="M114.831,45.116c-0.448,1.033-1.439,1.947-2.76,2.399c-2.184,0.747-4.435-0.049-5.027-1.778
				c-0.057-0.166-0.091-0.335-0.114-0.504c-0.329,0.701-0.409,1.463-0.165,2.178c0.592,1.729,2.843,2.525,5.027,1.778
				c1.936-0.663,3.167-2.316,3.009-3.888h0.029V45.116z"/>
			<path d="M127.765,48.181c-0.448,1.034-1.439,1.947-2.76,2.399c-2.184,0.747-4.435-0.049-5.027-1.778
				c-0.057-0.166-0.091-0.335-0.114-0.504c-0.329,0.701-0.409,1.462-0.165,2.178c0.592,1.729,2.843,2.525,5.027,1.778
				c1.936-0.663,3.167-2.316,3.01-3.888h0.029V48.181z"/>
			<path d="M391.861,32.186l-12.933-3.72v2.055v3.371v9.125c-0.98-0.505-2.286-0.604-3.571-0.163
				c-2.184,0.748-3.475,2.756-2.882,4.486c0.592,1.73,2.843,2.526,5.027,1.779c1.936-0.663,3.167-2.316,3.009-3.888h0.029V34.356
				l11.321,3.256v8.533c-0.979-0.499-2.279-0.595-3.56-0.157c-2.184,0.748-3.475,2.757-2.882,4.487
				c0.592,1.73,2.843,2.525,5.027,1.778c1.745-0.598,2.917-2,3.016-3.423h0.01V37.964v-5.426L391.861,32.186z"/>
			<polygon points="392.418,33.812 393.472,34.042 393.472,32.538 391.861,32.186 378.928,28.466 378.928,29.932 			"/>
			<path d="M380.538,45.116c-0.448,1.033-1.439,1.947-2.76,2.399c-2.184,0.747-4.435-0.049-5.027-1.778
				c-0.057-0.166-0.091-0.335-0.114-0.504c-0.329,0.701-0.409,1.463-0.165,2.178c0.592,1.729,2.843,2.525,5.027,1.778
				c1.936-0.663,3.167-2.316,3.009-3.888h0.029V45.116z"/>
			<path d="M393.472,48.181c-0.448,1.034-1.439,1.947-2.76,2.399c-2.184,0.747-4.435-0.049-5.027-1.778
				c-0.057-0.166-0.091-0.335-0.114-0.504c-0.329,0.701-0.409,1.462-0.165,2.178c0.592,1.729,2.843,2.525,5.027,1.778
				c1.936-0.663,3.167-2.316,3.01-3.888h0.029V48.181z"/>
		</g>
		<g>
			<g>
				<g>
					<polygon style="fill:#F46969;" points="80.701,29.857 89.201,48.357 80.701,66.857 128.545,66.857 128.545,29.857 					"/>
					<polygon style="fill:#E55A5A;" points="99.243,57 128.545,66.857 128.545,57 					"/>
				</g>
				<g>
					<polygon style="fill:#F46969;" points="419.299,29.857 410.799,48.357 419.299,66.857 371.455,66.857 371.455,29.857 					"/>
					<polygon style="fill:#E55A5A;" points="400.757,57 371.455,66.857 371.455,57 					"/>
				</g>
				<rect x="99.243" y="20" style="fill:#FF7474;" width="301.735" height="37"/>
				<text transform="matrix(1 0 0 1 148.9492 46.0303)" style="fill:#FFFDFC; font-family:'Rokkitt'; font-size:21px;">WEDDING COLLECTION </text>
				<g>
					<path style="fill:#424242;" d="M124.153,30.186l-12.933-3.72v2.055v3.371v9.125c-0.98-0.505-2.286-0.604-3.571-0.163
						c-2.184,0.748-3.475,2.756-2.882,4.486c0.592,1.73,2.843,2.526,5.027,1.779c1.936-0.663,3.167-2.316,3.009-3.888h0.029V32.356
						l11.321,3.256v8.533c-0.979-0.499-2.279-0.595-3.56-0.157c-2.184,0.748-3.475,2.757-2.882,4.487
						c0.592,1.73,2.843,2.525,5.027,1.778c1.745-0.598,2.917-2,3.016-3.423h0.01V35.964v-5.426L124.153,30.186z"/>
					<polygon style="fill:#616161;" points="124.711,31.812 125.765,32.042 125.765,30.538 124.153,30.186 111.22,26.466 
						111.22,27.932 					"/>
					<path style="fill:#353535;" d="M112.831,43.116c-0.448,1.033-1.439,1.947-2.76,2.399c-2.184,0.747-4.435-0.049-5.027-1.778
						c-0.057-0.166-0.091-0.335-0.114-0.504c-0.329,0.701-0.409,1.463-0.165,2.178c0.592,1.729,2.843,2.525,5.027,1.778
						c1.936-0.663,3.167-2.316,3.009-3.888h0.029V43.116z"/>
					<path style="fill:#353535;" d="M125.765,46.181c-0.448,1.034-1.439,1.947-2.76,2.399c-2.184,0.747-4.435-0.049-5.027-1.778
						c-0.057-0.166-0.091-0.335-0.114-0.504c-0.329,0.701-0.409,1.462-0.165,2.178c0.592,1.729,2.843,2.525,5.027,1.778
						c1.936-0.663,3.167-2.316,3.01-3.888h0.029V46.181z"/>
				</g>
				<g>
					<path style="fill:#424242;" d="M389.861,30.186l-12.933-3.72v2.055v3.371v9.125c-0.98-0.505-2.286-0.604-3.571-0.163
						c-2.184,0.748-3.475,2.756-2.882,4.486c0.592,1.73,2.843,2.526,5.027,1.779c1.936-0.663,3.167-2.316,3.009-3.888h0.029V32.356
						l11.321,3.256v8.533c-0.979-0.499-2.279-0.595-3.56-0.157c-2.184,0.748-3.475,2.757-2.882,4.487
						c0.592,1.73,2.843,2.525,5.027,1.778c1.745-0.598,2.917-2,3.016-3.423h0.01V35.964v-5.426L389.861,30.186z"/>
					<polygon style="fill:#616161;" points="390.418,31.812 391.472,32.042 391.472,30.538 389.861,30.186 376.928,26.466 
						376.928,27.932 					"/>
					<path style="fill:#353535;" d="M378.538,43.116c-0.448,1.033-1.439,1.947-2.76,2.399c-2.184,0.747-4.435-0.049-5.027-1.778
						c-0.057-0.166-0.091-0.335-0.114-0.504c-0.329,0.701-0.409,1.463-0.165,2.178c0.592,1.729,2.843,2.525,5.027,1.778
						c1.936-0.663,3.167-2.316,3.009-3.888h0.029V43.116z"/>
					<path style="fill:#353535;" d="M391.472,46.181c-0.448,1.034-1.439,1.947-2.76,2.399c-2.184,0.747-4.435-0.049-5.027-1.778
						c-0.057-0.166-0.091-0.335-0.114-0.504c-0.329,0.701-0.409,1.462-0.165,2.178c0.592,1.729,2.843,2.525,5.027,1.778
						c1.936-0.663,3.167-2.316,3.01-3.888h0.029V46.181z"/>
				</g>
			</g>
		</g>
	</g>
</g>
<g id="DESIGNED_BY_FREEPIK">
	<g id="_x32_">
		<g>
			<path style="fill:#FFFFFF;" d="M175.682,484.647v-0.171c-0.232,0.266-0.461,0.482-0.687,0.648
				c-0.225,0.167-0.47,0.294-0.734,0.38c-0.264,0.088-0.551,0.13-0.864,0.13c-0.414,0-0.797-0.087-1.149-0.262
				c-0.352-0.175-0.657-0.426-0.914-0.751c-0.258-0.324-0.453-0.706-0.585-1.146c-0.133-0.438-0.2-0.913-0.2-1.424
				c0-1.08,0.264-1.923,0.792-2.526c0.527-0.602,1.222-0.905,2.083-0.905c0.498,0,0.918,0.086,1.26,0.256
				c0.342,0.172,0.675,0.435,1,0.789v-2.551c0-0.355,0.07-0.623,0.212-0.805c0.141-0.182,0.342-0.272,0.604-0.272
				c0.261,0,0.462,0.083,0.604,0.25c0.142,0.167,0.212,0.412,0.212,0.737v7.621c0,0.33-0.076,0.576-0.228,0.741
				c-0.152,0.164-0.348,0.246-0.588,0.246c-0.236,0-0.432-0.085-0.586-0.256C175.759,485.207,175.682,484.963,175.682,484.647z
				 M172.283,482.108c0,0.469,0.073,0.867,0.218,1.196c0.146,0.329,0.345,0.577,0.599,0.743c0.253,0.168,0.53,0.251,0.829,0.251
				c0.304,0,0.581-0.079,0.833-0.237c0.251-0.158,0.452-0.401,0.601-0.727c0.15-0.327,0.225-0.736,0.225-1.226
				c0-0.46-0.075-0.855-0.225-1.188c-0.149-0.331-0.352-0.584-0.607-0.76c-0.255-0.175-0.535-0.262-0.839-0.262
				c-0.316,0-0.599,0.09-0.848,0.269c-0.249,0.18-0.442,0.436-0.579,0.772C172.351,481.276,172.283,481.665,172.283,482.108z"/>
			<path style="fill:#FFFFFF;" d="M183.303,482.546h-3.38c0.004,0.392,0.083,0.738,0.237,1.037c0.154,0.301,0.358,0.526,0.614,0.678
				c0.255,0.152,0.538,0.228,0.845,0.228c0.207,0,0.396-0.023,0.566-0.072c0.171-0.049,0.337-0.124,0.498-0.227
				c0.16-0.104,0.308-0.215,0.443-0.333c0.135-0.118,0.309-0.279,0.525-0.482c0.089-0.076,0.216-0.114,0.38-0.114
				c0.177,0,0.32,0.05,0.43,0.147c0.11,0.098,0.166,0.233,0.166,0.411c0,0.156-0.062,0.338-0.184,0.548
				c-0.124,0.209-0.308,0.409-0.554,0.602c-0.248,0.191-0.557,0.351-0.931,0.478c-0.372,0.127-0.802,0.189-1.288,0.189
				c-1.109,0-1.973-0.316-2.588-0.949c-0.616-0.633-0.924-1.492-0.924-2.576c0-0.511,0.076-0.984,0.228-1.421
				c0.152-0.438,0.374-0.811,0.665-1.124c0.292-0.313,0.65-0.551,1.077-0.719c0.426-0.166,0.899-0.249,1.418-0.249
				c0.675,0,1.254,0.142,1.737,0.427c0.484,0.285,0.846,0.653,1.086,1.105c0.24,0.451,0.361,0.912,0.361,1.38
				c0,0.435-0.125,0.716-0.373,0.846C184.105,482.48,183.754,482.546,183.303,482.546z M179.923,481.565h3.133
				c-0.042-0.591-0.202-1.033-0.478-1.326c-0.276-0.294-0.64-0.44-1.092-0.44c-0.431,0-0.784,0.148-1.06,0.446
				C180.149,480.541,179.982,480.981,179.923,481.565z"/>
			<path style="fill:#FFFFFF;" d="M191.177,483.374c0,0.477-0.115,0.886-0.348,1.226c-0.231,0.34-0.575,0.598-1.028,0.772
				c-0.454,0.175-1.005,0.262-1.655,0.262c-0.62,0-1.152-0.095-1.595-0.284c-0.443-0.189-0.771-0.428-0.981-0.712
				c-0.211-0.285-0.317-0.571-0.317-0.858c0-0.19,0.067-0.353,0.203-0.487c0.135-0.135,0.306-0.202,0.513-0.202
				c0.181,0,0.32,0.045,0.417,0.133c0.098,0.089,0.19,0.214,0.278,0.373c0.178,0.31,0.39,0.538,0.637,0.69
				c0.247,0.152,0.583,0.228,1.01,0.228c0.346,0,0.629-0.077,0.851-0.23c0.221-0.155,0.332-0.331,0.332-0.529
				c0-0.304-0.115-0.524-0.345-0.664c-0.23-0.139-0.609-0.272-1.137-0.399c-0.595-0.147-1.079-0.303-1.453-0.466
				c-0.374-0.161-0.672-0.376-0.895-0.642c-0.224-0.266-0.336-0.594-0.336-0.981c0-0.346,0.103-0.673,0.31-0.982
				c0.207-0.307,0.512-0.553,0.915-0.736c0.402-0.185,0.888-0.276,1.458-0.276c0.448,0,0.85,0.046,1.206,0.14
				c0.357,0.092,0.655,0.218,0.893,0.374c0.239,0.155,0.42,0.329,0.544,0.518c0.124,0.19,0.186,0.375,0.186,0.558
				c0,0.197-0.066,0.36-0.199,0.487c-0.132,0.125-0.321,0.189-0.567,0.189c-0.177,0-0.328-0.051-0.452-0.152
				c-0.124-0.101-0.267-0.253-0.427-0.455c-0.131-0.169-0.284-0.304-0.462-0.405c-0.177-0.102-0.418-0.151-0.722-0.151
				c-0.313,0-0.571,0.065-0.778,0.199c-0.206,0.132-0.31,0.298-0.31,0.496c0,0.182,0.076,0.331,0.228,0.446
				c0.152,0.116,0.356,0.213,0.615,0.288c0.257,0.076,0.611,0.168,1.064,0.278c0.535,0.132,0.973,0.288,1.313,0.469
				c0.339,0.181,0.597,0.396,0.773,0.643C191.09,482.776,191.177,483.058,191.177,483.374z"/>
			<path style="fill:#FFFFFF;" d="M192.942,477.805c-0.24,0-0.446-0.074-0.617-0.223c-0.17-0.147-0.256-0.355-0.256-0.626
				c0-0.246,0.087-0.446,0.263-0.605c0.175-0.158,0.379-0.237,0.611-0.237c0.224,0,0.422,0.072,0.595,0.216
				c0.173,0.144,0.26,0.352,0.26,0.627c0,0.266-0.085,0.474-0.254,0.623C193.375,477.728,193.174,477.805,192.942,477.805z
				 M193.797,479.589v4.994c0,0.347-0.083,0.608-0.247,0.786c-0.165,0.177-0.373,0.265-0.626,0.265c-0.254,0-0.459-0.09-0.618-0.271
				c-0.159-0.182-0.237-0.441-0.237-0.779v-4.943c0-0.342,0.079-0.6,0.237-0.772c0.158-0.173,0.364-0.26,0.618-0.26
				c0.253,0,0.462,0.087,0.626,0.26C193.715,479.04,193.797,479.281,193.797,479.589z"/>
			<path style="fill:#FFFFFF;" d="M201.368,479.874v5.02c0,0.574-0.062,1.068-0.185,1.482c-0.121,0.412-0.318,0.755-0.588,1.024
				c-0.27,0.27-0.623,0.471-1.059,0.601c-0.437,0.132-0.98,0.197-1.63,0.197c-0.595,0-1.127-0.084-1.596-0.25
				c-0.468-0.167-0.828-0.382-1.082-0.646c-0.253-0.264-0.38-0.535-0.38-0.813c0-0.211,0.072-0.384,0.216-0.516
				c0.144-0.134,0.317-0.2,0.519-0.2c0.253,0,0.475,0.112,0.665,0.335c0.092,0.114,0.189,0.23,0.288,0.346
				c0.1,0.116,0.209,0.216,0.33,0.298c0.12,0.082,0.265,0.142,0.434,0.183c0.169,0.039,0.363,0.06,0.582,0.06
				c0.447,0,0.794-0.061,1.042-0.186c0.247-0.124,0.42-0.299,0.519-0.522c0.099-0.223,0.157-0.463,0.174-0.718
				c0.017-0.256,0.029-0.666,0.038-1.232c-0.266,0.372-0.572,0.655-0.921,0.85c-0.348,0.193-0.763,0.291-1.243,0.291
				c-0.579,0-1.084-0.148-1.517-0.443c-0.432-0.296-0.765-0.709-0.997-1.241c-0.232-0.532-0.348-1.145-0.348-1.842
				c0-0.519,0.07-0.988,0.212-1.405c0.142-0.418,0.343-0.77,0.604-1.058c0.262-0.287,0.564-0.503,0.905-0.648
				c0.341-0.146,0.717-0.219,1.127-0.219c0.489,0,0.913,0.095,1.272,0.281c0.358,0.189,0.692,0.483,1.001,0.884v-0.234
				c0-0.3,0.073-0.531,0.221-0.696c0.148-0.164,0.338-0.247,0.57-0.247c0.333,0,0.555,0.109,0.665,0.326
				C201.313,479.151,201.368,479.465,201.368,479.874z M196.36,482.065c0,0.7,0.153,1.229,0.458,1.589
				c0.306,0.359,0.702,0.538,1.187,0.538c0.287,0,0.558-0.077,0.813-0.231c0.256-0.154,0.463-0.387,0.625-0.696
				c0.16-0.311,0.24-0.687,0.24-1.13c0-0.704-0.155-1.253-0.465-1.645c-0.311-0.393-0.718-0.589-1.225-0.589
				c-0.494,0-0.89,0.188-1.187,0.563C196.509,480.838,196.36,481.372,196.36,482.065z"/>
			<path style="fill:#FFFFFF;" d="M204.114,479.564v0.209c0.303-0.4,0.636-0.695,0.996-0.883c0.361-0.188,0.775-0.282,1.244-0.282
				c0.456,0,0.863,0.1,1.222,0.298c0.358,0.199,0.627,0.479,0.804,0.841c0.114,0.212,0.188,0.44,0.221,0.685
				c0.034,0.245,0.052,0.557,0.052,0.938v3.215c0,0.347-0.08,0.608-0.238,0.786c-0.158,0.177-0.364,0.265-0.617,0.265
				c-0.258,0-0.466-0.09-0.627-0.271c-0.161-0.182-0.24-0.441-0.24-0.779v-2.88c0-0.569-0.08-1.006-0.238-1.307
				c-0.158-0.302-0.473-0.453-0.947-0.453c-0.307,0-0.588,0.092-0.841,0.275c-0.253,0.184-0.439,0.436-0.557,0.757
				c-0.084,0.258-0.126,0.738-0.126,1.442v2.165c0,0.351-0.082,0.614-0.244,0.789c-0.162,0.175-0.372,0.262-0.629,0.262
				c-0.25,0-0.454-0.09-0.615-0.271c-0.16-0.182-0.24-0.441-0.24-0.779v-4.994c0-0.329,0.071-0.575,0.215-0.738
				c0.144-0.162,0.34-0.243,0.588-0.243c0.152,0,0.289,0.036,0.413,0.108c0.122,0.072,0.22,0.18,0.294,0.322
				C204.077,479.182,204.114,479.357,204.114,479.564z"/>
			<path style="fill:#FFFFFF;" d="M214.627,482.546h-3.38c0.004,0.392,0.083,0.738,0.238,1.037c0.154,0.301,0.358,0.526,0.614,0.678
				c0.254,0.152,0.537,0.228,0.845,0.228c0.207,0,0.396-0.023,0.567-0.072c0.171-0.049,0.336-0.124,0.497-0.227
				c0.16-0.104,0.307-0.215,0.443-0.333c0.134-0.118,0.309-0.279,0.525-0.482c0.088-0.076,0.215-0.114,0.38-0.114
				c0.177,0,0.321,0.05,0.43,0.147c0.11,0.098,0.165,0.233,0.165,0.411c0,0.156-0.061,0.338-0.184,0.548
				c-0.123,0.209-0.307,0.409-0.554,0.602c-0.247,0.191-0.557,0.351-0.93,0.478c-0.374,0.127-0.803,0.189-1.288,0.189
				c-1.11,0-1.973-0.316-2.59-0.949c-0.615-0.633-0.924-1.492-0.924-2.576c0-0.511,0.076-0.984,0.228-1.421
				c0.152-0.438,0.374-0.811,0.665-1.124s0.65-0.551,1.076-0.719c0.426-0.166,0.899-0.249,1.418-0.249
				c0.675,0,1.253,0.142,1.737,0.427c0.483,0.285,0.846,0.653,1.086,1.105c0.24,0.451,0.361,0.912,0.361,1.38
				c0,0.435-0.124,0.716-0.374,0.846C215.43,482.48,215.08,482.546,214.627,482.546z M211.248,481.565h3.133
				c-0.042-0.591-0.202-1.033-0.478-1.326c-0.276-0.294-0.64-0.44-1.092-0.44c-0.431,0-0.785,0.148-1.061,0.446
				C211.474,480.541,211.307,480.981,211.248,481.565z"/>
			<path style="fill:#FFFFFF;" d="M221.672,484.647v-0.171c-0.232,0.266-0.461,0.482-0.687,0.648
				c-0.226,0.167-0.47,0.294-0.734,0.38c-0.263,0.088-0.551,0.13-0.863,0.13c-0.415,0-0.797-0.087-1.149-0.262
				c-0.353-0.175-0.657-0.426-0.915-0.751c-0.258-0.324-0.453-0.706-0.585-1.146c-0.133-0.438-0.2-0.913-0.2-1.424
				c0-1.08,0.264-1.923,0.791-2.526c0.528-0.602,1.222-0.905,2.083-0.905c0.498,0,0.918,0.086,1.26,0.256
				c0.342,0.172,0.675,0.435,1,0.789v-2.551c0-0.355,0.071-0.623,0.213-0.805c0.141-0.182,0.343-0.272,0.605-0.272
				c0.261,0,0.463,0.083,0.604,0.25c0.141,0.167,0.212,0.412,0.212,0.737v7.621c0,0.33-0.076,0.576-0.228,0.741
				c-0.152,0.164-0.348,0.246-0.589,0.246c-0.236,0-0.432-0.085-0.586-0.256C221.749,485.207,221.672,484.963,221.672,484.647z
				 M218.273,482.108c0,0.469,0.072,0.867,0.218,1.196c0.146,0.329,0.345,0.577,0.599,0.743c0.253,0.168,0.529,0.251,0.829,0.251
				c0.304,0,0.582-0.079,0.833-0.237c0.251-0.158,0.452-0.401,0.601-0.727c0.15-0.327,0.225-0.736,0.225-1.226
				c0-0.46-0.075-0.855-0.225-1.188c-0.149-0.331-0.352-0.584-0.608-0.76c-0.255-0.175-0.535-0.262-0.839-0.262
				c-0.316,0-0.599,0.09-0.848,0.269c-0.249,0.18-0.442,0.436-0.58,0.772C218.341,481.276,218.273,481.665,218.273,482.108z"/>
			<path style="fill:#FFFFFF;" d="M228.735,477.025v2.64c0.325-0.338,0.656-0.597,0.994-0.775c0.337-0.18,0.755-0.27,1.253-0.27
				c0.574,0,1.077,0.137,1.51,0.408c0.432,0.273,0.767,0.667,1.006,1.185c0.238,0.516,0.358,1.13,0.358,1.839
				c0,0.523-0.066,1.003-0.199,1.439c-0.133,0.438-0.327,0.815-0.58,1.136c-0.253,0.321-0.56,0.57-0.921,0.745
				c-0.361,0.175-0.759,0.262-1.193,0.262c-0.266,0-0.517-0.031-0.75-0.095c-0.234-0.063-0.434-0.146-0.599-0.25
				c-0.164-0.103-0.304-0.209-0.42-0.319c-0.116-0.109-0.27-0.274-0.459-0.494v0.171c0,0.325-0.078,0.571-0.234,0.738
				c-0.155,0.167-0.354,0.249-0.595,0.249c-0.245,0-0.44-0.082-0.585-0.249c-0.146-0.167-0.218-0.413-0.218-0.738v-7.546
				c0-0.35,0.07-0.615,0.212-0.794c0.142-0.179,0.339-0.269,0.592-0.269c0.266,0,0.471,0.085,0.614,0.256
				C228.664,476.466,228.735,476.708,228.735,477.025z M228.818,482.159c0,0.688,0.157,1.216,0.472,1.585
				c0.314,0.37,0.727,0.555,1.237,0.555c0.434,0,0.809-0.188,1.124-0.566c0.314-0.378,0.472-0.919,0.472-1.624
				c0-0.455-0.065-0.849-0.196-1.178c-0.131-0.329-0.316-0.583-0.557-0.763c-0.241-0.179-0.521-0.269-0.842-0.269
				c-0.329,0-0.623,0.09-0.88,0.269c-0.257,0.18-0.46,0.439-0.608,0.778C228.892,481.286,228.818,481.69,228.818,482.159z"/>
			<path style="fill:#FFFFFF;" d="M236.098,485.85l0.158-0.387l-2.127-5.355c-0.13-0.307-0.196-0.531-0.196-0.671
				c0-0.147,0.038-0.284,0.114-0.41c0.076-0.127,0.18-0.228,0.313-0.305c0.133-0.076,0.271-0.114,0.414-0.114
				c0.249,0,0.437,0.079,0.564,0.237c0.127,0.158,0.238,0.385,0.335,0.681l1.463,4.254l1.386-3.957
				c0.109-0.319,0.208-0.571,0.297-0.753c0.088-0.182,0.182-0.304,0.281-0.366c0.099-0.064,0.24-0.096,0.421-0.096
				c0.131,0,0.256,0.035,0.377,0.105c0.12,0.07,0.212,0.164,0.278,0.282c0.065,0.118,0.099,0.242,0.099,0.373
				c-0.018,0.08-0.044,0.194-0.083,0.343c-0.039,0.146-0.085,0.298-0.139,0.448l-2.253,5.9c-0.195,0.518-0.384,0.926-0.57,1.221
				c-0.186,0.296-0.431,0.523-0.737,0.681c-0.306,0.159-0.718,0.238-1.238,0.238c-0.506,0-0.886-0.055-1.139-0.164
				c-0.254-0.111-0.38-0.312-0.38-0.603c0-0.197,0.06-0.352,0.181-0.459c0.12-0.107,0.298-0.162,0.534-0.162
				c0.093,0,0.184,0.014,0.272,0.039c0.11,0.025,0.205,0.038,0.285,0.038c0.198,0,0.354-0.029,0.469-0.089
				c0.114-0.059,0.216-0.161,0.307-0.308C235.874,486.347,235.98,486.132,236.098,485.85z"/>
		</g>
		<g>
			<path style="fill:#FFFFFF;" d="M261.132,478.757h0.412v-0.518c0-0.543,0.066-0.971,0.204-1.291
				c0.136-0.319,0.371-0.551,0.698-0.696c0.327-0.145,0.775-0.218,1.344-0.218c1.013,0,1.514,0.245,1.514,0.743
				c0,0.158-0.052,0.296-0.16,0.41c-0.103,0.112-0.228,0.17-0.372,0.17c-0.066,0-0.185-0.013-0.351-0.04
				c-0.158-0.022-0.302-0.036-0.416-0.036c-0.311,0-0.511,0.093-0.603,0.276c-0.085,0.184-0.13,0.445-0.13,0.789v0.411h0.422
				c0.661,0,0.987,0.198,0.987,0.598c0,0.278-0.084,0.46-0.262,0.536c-0.174,0.076-0.416,0.113-0.726,0.113h-0.422v4.58
				c0,0.34-0.08,0.6-0.246,0.778c-0.161,0.182-0.369,0.271-0.628,0.271c-0.245,0-0.447-0.089-0.612-0.271
				c-0.163-0.179-0.243-0.439-0.243-0.778v-4.58h-0.476c-0.259,0-0.455-0.056-0.596-0.174c-0.139-0.114-0.209-0.267-0.209-0.452
				C260.263,478.962,260.553,478.757,261.132,478.757"/>
			<path style="fill:#FFFFFF;" d="M266.79,483.139v1.445c0,0.349-0.088,0.612-0.249,0.786c-0.165,0.177-0.372,0.263-0.625,0.263
				c-0.254,0-0.458-0.087-0.618-0.267c-0.157-0.176-0.24-0.438-0.24-0.782v-4.815c0-0.776,0.28-1.165,0.84-1.165
				c0.289,0,0.495,0.09,0.622,0.272c0.126,0.183,0.197,0.449,0.212,0.806c0.205-0.356,0.415-0.623,0.632-0.806
				c0.221-0.182,0.508-0.272,0.872-0.272c0.366,0,0.715,0.09,1.057,0.272c0.344,0.183,0.514,0.425,0.514,0.724
				c0,0.21-0.074,0.387-0.217,0.52c-0.147,0.14-0.303,0.208-0.471,0.208c-0.066,0-0.221-0.042-0.461-0.12
				c-0.244-0.075-0.459-0.115-0.642-0.115c-0.253,0-0.461,0.068-0.621,0.198c-0.162,0.137-0.287,0.332-0.376,0.591
				c-0.086,0.264-0.146,0.577-0.182,0.937C266.805,482.18,266.79,482.62,266.79,483.139"/>
			<path style="fill:#FFFFFF;" d="M274.735,482.544h-3.382c0.006,0.392,0.083,0.74,0.236,1.039c0.157,0.297,0.36,0.523,0.616,0.678
				c0.256,0.151,0.536,0.226,0.845,0.226c0.207,0,0.395-0.021,0.566-0.074c0.169-0.046,0.336-0.123,0.497-0.227
				c0.162-0.101,0.307-0.212,0.443-0.333c0.134-0.117,0.311-0.277,0.526-0.48c0.09-0.075,0.216-0.116,0.379-0.116
				c0.179,0,0.321,0.05,0.433,0.148c0.111,0.098,0.162,0.233,0.162,0.411c0,0.157-0.059,0.339-0.178,0.546
				c-0.125,0.212-0.309,0.411-0.557,0.604c-0.25,0.19-0.559,0.352-0.932,0.476c-0.372,0.127-0.804,0.19-1.287,0.19
				c-1.114,0-1.976-0.314-2.59-0.947c-0.616-0.635-0.928-1.495-0.928-2.578c0-0.511,0.078-0.985,0.232-1.423
				c0.149-0.439,0.372-0.811,0.665-1.125c0.29-0.314,0.647-0.552,1.075-0.719c0.425-0.166,0.897-0.249,1.418-0.249
				c0.674,0,1.254,0.143,1.737,0.431c0.482,0.281,0.849,0.65,1.086,1.103c0.241,0.453,0.361,0.911,0.361,1.382
				c0,0.433-0.126,0.714-0.374,0.844C275.537,482.479,275.187,482.544,274.735,482.544 M271.353,481.561h3.133
				c-0.042-0.59-0.199-1.033-0.476-1.324c-0.278-0.295-0.639-0.44-1.093-0.44c-0.43,0-0.784,0.146-1.061,0.446
				C271.581,480.541,271.411,480.979,271.353,481.561"/>
			<path style="fill:#FFFFFF;" d="M281.925,482.544h-3.381c0.004,0.392,0.084,0.74,0.236,1.039c0.154,0.297,0.359,0.523,0.614,0.678
				c0.255,0.151,0.537,0.226,0.847,0.226c0.205,0,0.395-0.021,0.563-0.074c0.172-0.046,0.337-0.123,0.5-0.227
				c0.162-0.101,0.307-0.212,0.442-0.333c0.133-0.117,0.309-0.277,0.525-0.48c0.09-0.075,0.217-0.116,0.379-0.116
				c0.179,0,0.322,0.05,0.434,0.148c0.11,0.098,0.16,0.233,0.16,0.411c0,0.157-0.058,0.339-0.183,0.546
				c-0.118,0.212-0.303,0.411-0.553,0.604c-0.247,0.19-0.56,0.352-0.93,0.476c-0.372,0.127-0.805,0.19-1.29,0.19
				c-1.111,0-1.972-0.314-2.59-0.947c-0.616-0.635-0.926-1.495-0.926-2.578c0-0.511,0.078-0.985,0.232-1.423
				c0.151-0.439,0.372-0.811,0.664-1.125c0.29-0.314,0.648-0.552,1.076-0.719c0.425-0.166,0.9-0.249,1.419-0.249
				c0.672,0,1.251,0.143,1.742,0.431c0.479,0.281,0.843,0.65,1.08,1.103c0.24,0.453,0.363,0.911,0.363,1.382
				c0,0.433-0.127,0.714-0.374,0.844C282.725,482.479,282.375,482.544,281.925,482.544 M278.543,481.561h3.133
				c-0.042-0.59-0.203-1.033-0.477-1.324c-0.28-0.295-0.641-0.44-1.095-0.44c-0.43,0-0.784,0.146-1.062,0.446
				C278.769,480.541,278.6,480.979,278.543,481.561"/>
			<path style="fill:#FFFFFF;" d="M285.71,479.577v0.207c0.324-0.4,0.663-0.695,1.016-0.883c0.346-0.189,0.745-0.284,1.188-0.284
				c0.53,0,1.023,0.138,1.471,0.411c0.447,0.275,0.799,0.677,1.059,1.204c0.26,0.529,0.39,1.152,0.39,1.875
				c0,0.53-0.075,1.021-0.224,1.467c-0.149,0.445-0.358,0.817-0.619,1.119c-0.262,0.301-0.57,0.535-0.926,0.697
				c-0.361,0.161-0.741,0.242-1.152,0.242c-0.492,0-0.909-0.099-1.243-0.298c-0.336-0.194-0.655-0.489-0.961-0.87v2.594
				c0,0.757-0.277,1.14-0.829,1.14c-0.327,0-0.539-0.098-0.647-0.293c-0.101-0.198-0.156-0.482-0.156-0.86v-7.46
				c0-0.33,0.071-0.572,0.213-0.738c0.143-0.159,0.341-0.242,0.59-0.242c0.246,0,0.444,0.083,0.597,0.249
				C285.634,479.022,285.71,479.261,285.71,479.577 M289.099,482.088c0-0.456-0.071-0.849-0.21-1.175
				c-0.139-0.328-0.332-0.578-0.577-0.752c-0.245-0.175-0.521-0.265-0.821-0.265c-0.476,0-0.879,0.189-1.206,0.563
				c-0.328,0.378-0.493,0.931-0.493,1.662c0,0.684,0.163,1.222,0.49,1.604c0.325,0.382,0.724,0.572,1.208,0.572
				c0.286,0,0.553-0.084,0.798-0.248c0.247-0.169,0.443-0.418,0.589-0.751C289.024,482.963,289.099,482.56,289.099,482.088"/>
			<path style="fill:#FFFFFF;" d="M292.575,477.8c-0.242,0-0.446-0.076-0.615-0.224c-0.173-0.148-0.258-0.354-0.258-0.624
				c0-0.245,0.087-0.446,0.264-0.606c0.175-0.156,0.378-0.236,0.609-0.236c0.227,0,0.424,0.07,0.596,0.213
				c0.173,0.146,0.26,0.355,0.26,0.63c0,0.267-0.085,0.475-0.252,0.624C293.009,477.724,292.809,477.8,292.575,477.8
				 M293.431,479.585v5c0,0.344-0.083,0.605-0.247,0.781c-0.167,0.18-0.374,0.267-0.628,0.267c-0.254,0-0.457-0.089-0.619-0.271
				c-0.155-0.185-0.237-0.443-0.237-0.777v-4.95c0-0.34,0.082-0.597,0.237-0.77c0.162-0.177,0.365-0.261,0.619-0.261
				c0.253,0,0.46,0.084,0.628,0.261C293.348,479.038,293.431,479.28,293.431,479.585"/>
			<path style="fill:#FFFFFF;" d="M299.002,484.844l-1.523-2.51l-0.939,0.886v1.376c0,0.333-0.088,0.588-0.264,0.767
				c-0.171,0.182-0.377,0.271-0.604,0.271c-0.266,0-0.477-0.087-0.627-0.267c-0.151-0.176-0.229-0.438-0.229-0.782v-7.374
				c0-0.382,0.076-0.674,0.221-0.875c0.148-0.203,0.363-0.302,0.635-0.302c0.266,0,0.475,0.092,0.632,0.274
				c0.156,0.18,0.236,0.449,0.236,0.801v4.194l1.943-2.041c0.242-0.251,0.422-0.427,0.551-0.518
				c0.126-0.093,0.279-0.139,0.459-0.139c0.217,0,0.396,0.068,0.544,0.205c0.141,0.138,0.213,0.31,0.213,0.516
				c0,0.253-0.235,0.593-0.703,1.015l-0.918,0.841l1.773,2.788c0.129,0.209,0.226,0.362,0.283,0.471
				c0.056,0.105,0.086,0.213,0.086,0.308c0,0.275-0.076,0.489-0.227,0.65c-0.15,0.157-0.349,0.235-0.59,0.235
				c-0.211,0-0.376-0.054-0.489-0.171C299.353,485.348,299.195,485.141,299.002,484.844"/>
			<path style="fill:#FFFFFF;" d="M302.758,485.633c-0.261,0-0.485-0.084-0.675-0.254c-0.189-0.166-0.286-0.403-0.286-0.709
				c0-0.258,0.092-0.479,0.273-0.663c0.183-0.186,0.405-0.279,0.672-0.279c0.265,0,0.49,0.093,0.682,0.275
				c0.186,0.183,0.281,0.408,0.281,0.668c0,0.301-0.095,0.538-0.281,0.706C303.232,485.549,303.011,485.633,302.758,485.633"/>
			<path style="fill:#FFFFFF;" d="M311.354,483.493c0,0.214-0.064,0.445-0.194,0.689c-0.127,0.247-0.326,0.479-0.59,0.7
				c-0.263,0.221-0.594,0.401-0.997,0.535c-0.4,0.135-0.853,0.204-1.353,0.204c-1.071,0-1.905-0.313-2.504-0.934
				c-0.597-0.623-0.897-1.459-0.897-2.506c0-0.711,0.136-1.337,0.413-1.882c0.271-0.543,0.669-0.965,1.187-1.263
				c0.52-0.299,1.144-0.446,1.862-0.446c0.449,0,0.858,0.065,1.234,0.196c0.374,0.131,0.688,0.301,0.95,0.506
				c0.258,0.21,0.457,0.43,0.593,0.661c0.138,0.234,0.205,0.454,0.205,0.658c0,0.205-0.075,0.381-0.228,0.524
				c-0.157,0.144-0.344,0.217-0.559,0.217c-0.146,0-0.265-0.038-0.361-0.111c-0.096-0.074-0.203-0.193-0.319-0.361
				c-0.211-0.318-0.431-0.561-0.664-0.719c-0.228-0.162-0.52-0.241-0.875-0.241c-0.508,0-0.922,0.198-1.235,0.598
				c-0.312,0.397-0.469,0.946-0.469,1.636c0,0.325,0.042,0.626,0.122,0.898c0.078,0.271,0.194,0.504,0.347,0.695
				s0.335,0.337,0.55,0.436c0.216,0.102,0.454,0.15,0.709,0.15c0.348,0,0.644-0.08,0.891-0.24c0.251-0.161,0.468-0.405,0.657-0.735
				c0.105-0.193,0.218-0.345,0.339-0.455c0.122-0.108,0.273-0.166,0.451-0.166c0.211,0,0.387,0.082,0.524,0.241
				C311.284,483.141,311.354,483.314,311.354,483.493"/>
			<path style="fill:#FFFFFF;" d="M318.813,482.12c0,0.513-0.082,0.989-0.237,1.426c-0.165,0.435-0.394,0.808-0.7,1.118
				c-0.303,0.313-0.668,0.553-1.087,0.721c-0.426,0.164-0.899,0.249-1.425,0.249c-0.523,0-0.995-0.085-1.414-0.255
				c-0.415-0.166-0.781-0.409-1.084-0.721c-0.307-0.318-0.539-0.689-0.701-1.118c-0.153-0.429-0.234-0.902-0.234-1.42
				c0-0.523,0.082-1.004,0.239-1.438c0.162-0.436,0.393-0.808,0.693-1.115c0.3-0.308,0.662-0.544,1.087-0.713
				c0.429-0.166,0.899-0.249,1.414-0.249c0.522,0,0.998,0.083,1.425,0.254c0.425,0.168,0.788,0.41,1.095,0.72
				c0.306,0.316,0.535,0.686,0.693,1.114C318.732,481.126,318.813,481.599,318.813,482.12 M317.078,482.12
				c0-0.705-0.156-1.253-0.465-1.645c-0.309-0.397-0.727-0.592-1.249-0.592c-0.338,0-0.637,0.088-0.895,0.263
				c-0.258,0.175-0.454,0.433-0.593,0.776c-0.14,0.342-0.21,0.741-0.21,1.198c0,0.452,0.068,0.845,0.207,1.182
				c0.138,0.341,0.334,0.599,0.59,0.777c0.257,0.178,0.556,0.27,0.901,0.27c0.522,0,0.94-0.197,1.249-0.594
				C316.921,483.36,317.078,482.815,317.078,482.12"/>
			<path style="fill:#FFFFFF;" d="M325.405,482.247v2.297c0,0.364-0.08,0.634-0.246,0.818c-0.167,0.182-0.381,0.271-0.651,0.271
				c-0.262,0-0.476-0.09-0.634-0.271c-0.165-0.185-0.248-0.454-0.248-0.818v-2.753c0-0.435-0.014-0.774-0.043-1.017
				c-0.03-0.235-0.112-0.437-0.241-0.588c-0.131-0.157-0.339-0.234-0.621-0.234c-0.567,0-0.938,0.193-1.118,0.587
				c-0.178,0.385-0.271,0.942-0.271,1.671v2.334c0,0.358-0.081,0.631-0.241,0.815c-0.166,0.183-0.378,0.274-0.643,0.274
				c-0.264,0-0.478-0.092-0.645-0.274c-0.168-0.185-0.251-0.457-0.251-0.815V479.6c0-0.326,0.074-0.573,0.223-0.741
				c0.153-0.171,0.351-0.254,0.593-0.254c0.237,0,0.434,0.082,0.594,0.236c0.157,0.159,0.236,0.378,0.236,0.656v0.163
				c0.302-0.356,0.623-0.62,0.963-0.786c0.344-0.174,0.721-0.257,1.142-0.257c0.434,0,0.807,0.087,1.118,0.259
				c0.313,0.174,0.569,0.438,0.773,0.784c0.293-0.352,0.606-0.614,0.94-0.786c0.334-0.172,0.702-0.257,1.108-0.257
				c0.471,0,0.88,0.095,1.222,0.278c0.34,0.186,0.595,0.453,0.765,0.797c0.147,0.315,0.22,0.807,0.22,1.477v3.374
				c0,0.364-0.082,0.634-0.245,0.818c-0.164,0.182-0.383,0.271-0.653,0.271c-0.263,0-0.476-0.092-0.643-0.274
				c-0.167-0.185-0.25-0.457-0.25-0.815v-2.906c0-0.373-0.016-0.669-0.046-0.892c-0.031-0.225-0.118-0.414-0.255-0.564
				c-0.142-0.152-0.354-0.23-0.635-0.23c-0.228,0-0.444,0.071-0.649,0.205c-0.205,0.132-0.365,0.317-0.48,0.541
				C325.471,480.991,325.405,481.507,325.405,482.247"/>
		</g>
		<g>
			<path style="fill:#FFFFFF;" d="M244.958,481.702c-0.001-0.004-0.001-0.007-0.001-0.012
				C244.956,481.695,244.956,481.698,244.958,481.702z"/>
			<path style="fill:#FFFFFF;" d="M245.045,482.254c0.001,0,0.001,0,0.001,0c-0.032-0.157-0.058-0.314-0.078-0.468
				C244.988,481.941,245.014,482.099,245.045,482.254z"/>
			<path style="fill:#FFFFFF;" d="M245.617,483.858c-0.004-0.007-0.007-0.015-0.011-0.022
				C245.61,483.844,245.613,483.852,245.617,483.858z"/>
			<path style="fill:#FFFFFF;" d="M245.563,483.751c-0.015-0.029-0.029-0.06-0.044-0.089
				C245.533,483.693,245.548,483.722,245.563,483.751z"/>
			<path style="fill:#FFFFFF;" d="M245.206,482.872c0.084,0.267,0.186,0.525,0.305,0.771c-0.12-0.251-0.22-0.511-0.302-0.771
				C245.208,482.872,245.206,482.872,245.206,482.872z"/>
			<path style="fill:#FFFFFF;" d="M251.648,475.079c0.334,0,0.581,0.026,0.863,0.074l0.08-0.508c0,0-0.78-0.24-1.806-0.156
				l-0.081-0.277c0.319-0.066,0.558-0.351,0.558-0.689c0-0.389-0.316-0.703-0.705-0.703c-0.388,0-0.704,0.314-0.704,0.703
				c0,0.338,0.239,0.622,0.557,0.689l0.089,0.309c-1.089,0.15-1.956,0.575-1.956,0.575l0.153,0.47
				c0.659-0.22,1.23-0.353,1.749-0.409C250.955,475.103,251.336,475.079,251.648,475.079z"/>
			<path style="fill:#FFFFFF;" d="M245.605,477.65l0.004-0.005c0.025-0.033,0.05-0.064,0.075-0.095l-0.208-0.15l-0.325-0.237
				c-0.018,0.025-0.53,0.495-0.934,1.364c-0.017-0.027-0.037-0.054-0.06-0.079c-0.121-0.133-0.29-0.2-0.505-0.196
				c-0.002,0-0.006,0-0.01,0c-0.133,0-0.225-0.044-0.285-0.098c0.06-0.076,0.096-0.171,0.096-0.275c0-0.246-0.2-0.446-0.446-0.446
				c-0.246,0-0.445,0.2-0.445,0.446s0.2,0.445,0.445,0.445c0.038,0,0.075-0.006,0.111-0.014c0.109,0.122,0.283,0.229,0.538,0.223
				c0.131-0.001,0.227,0.032,0.291,0.103c0.074,0.081,0.099,0.197,0.106,0.285c-0.001,0.001-0.001,0.003-0.002,0.003
				c-0.29,0.793-0.207,1.78-0.207,1.78l0.705,0.027c0.014-0.359,0.066-0.988,0.248-1.486
				C245.147,478.28,245.586,477.676,245.605,477.65z"/>
			<path style="fill:#FFFFFF;" d="M257.779,475.668c-0.245,0-0.446,0.199-0.446,0.446c0,0.038,0.006,0.074,0.016,0.109
				c-0.122,0.111-0.229,0.285-0.224,0.541c0.001,0.131-0.032,0.227-0.103,0.291c-0.057,0.05-0.128,0.076-0.197,0.094
				c-0.524-0.735-1.17-1.184-1.17-1.184l-0.505,0.542c0.382,0.348,0.772,0.783,1.152,1.326c0.262,0.376,0.532,0.86,0.757,1.343
				l0.683-0.324c0,0-0.312-0.77-0.751-1.46c0.077-0.027,0.153-0.068,0.221-0.128c0.134-0.121,0.199-0.291,0.195-0.506
				c-0.001-0.139,0.044-0.232,0.099-0.294c0.076,0.058,0.171,0.095,0.274,0.095c0.248,0,0.447-0.199,0.447-0.445
				C258.226,475.867,258.026,475.668,257.779,475.668z"/>
			<path style="fill:#FFFFFF;" d="M256.008,481.802c-0.939,0.457-2.485,1.062-4.52,1.346c-0.798,0.11-1.572,0.151-2.285,0.151
				c-0.927,0-1.746-0.068-2.374-0.148c-0.717-0.09-1.278-0.201-1.621-0.278c0.082,0.261,0.182,0.521,0.302,0.771
				c0.002,0.007,0.005,0.014,0.008,0.019c0.014,0.029,0.029,0.06,0.044,0.089s0.029,0.059,0.044,0.085
				c0.004,0.008,0.007,0.016,0.011,0.022c0.202,0.38,0.444,0.729,0.72,1.032c0.96,1.05,1.938,1.216,1.947,1.217l0.015,0.002
				l0.015,0.005c0.009,0.004,0.876,0.283,2.194,0.283c1.296,0,2.569-0.262,3.781-0.777c0.898-0.46,1.747-1.157,2.169-1.779
				c0.325-0.482,0.56-0.995,0.7-1.529c0.074-0.284,0.132-0.738,0.098-1.217C256.992,481.272,256.574,481.526,256.008,481.802z"/>
			<path style="fill:#FFFFFF;" d="M245.906,477.873c-0.027,0.04-0.435,0.617-0.756,1.502c-0.241,0.663-0.23,1.628-0.23,1.64v0.002
				c0,0.227,0.013,0.451,0.038,0.674c0,0.005,0,0.008,0.001,0.012c0.003,0.028,0.007,0.056,0.01,0.084
				c0.02,0.154,0.046,0.311,0.079,0.468c0.466,0.119,3.251,0.769,6.364,0.335c1.951-0.271,3.432-0.848,4.332-1.284
				c0.747-0.362,1.228-0.69,1.413-0.825c-0.185-0.686-0.694-1.76-1.162-2.431c-1.336-1.909-2.777-2.399-3.517-2.521
				c-0.283-0.046-0.508-0.072-0.829-0.072c-0.298,0-0.668,0.023-1.162,0.076c-0.496,0.051-1.048,0.182-1.688,0.396
				c-0.898,0.301-1.711,0.772-2.35,1.365l-0.021,0.021C246.331,477.4,246.133,477.584,245.906,477.873z M254.083,477.429
				c0.641,0,1.162,0.52,1.162,1.162c0,0.641-0.521,1.162-1.162,1.162c-0.641,0-1.161-0.521-1.161-1.162
				C252.922,477.949,253.442,477.429,254.083,477.429z M248.59,477.383c1.038,0,1.878,0.841,1.878,1.878
				c0,1.036-0.84,1.875-1.878,1.875c-1.036,0-1.876-0.839-1.876-1.875C246.714,478.224,247.554,477.383,248.59,477.383z"/>
		</g>
	</g>
</g>
</svg>
