<?xml version="1.0" encoding="utf-8"?>
<!-- Generator: Adobe Illustrator 27.5.0, SVG Export Plug-In . SVG Version: 6.00 Build 0)  -->
<svg version="1.1" xmlns="http://www.w3.org/2000/svg" xmlns:xlink="http://www.w3.org/1999/xlink" x="0px" y="0px"
	 viewBox="0 0 800 800" style="enable-background:new 0 0 800 800;" xml:space="preserve">
<g id="BACKGROUND">
	<rect id="XMLID_72_" style="fill:#F9F8F7;" width="800" height="800"/>
</g>
<g id="Designed_By_Freepik">
	<g id="Freepik_Sign_1_">
		<g id="XMLID_58_">
			<path style="fill:#C9C0AD;" d="M295.492,756.702v-0.258c-0.349,0.398-0.692,0.725-1.031,0.973
				c-0.338,0.252-0.706,0.441-1.102,0.57c-0.395,0.133-0.827,0.195-1.296,0.195c-0.621,0-1.196-0.131-1.725-0.393
				c-0.528-0.264-0.986-0.639-1.372-1.127c-0.387-0.486-0.68-1.058-0.879-1.719c-0.199-0.658-0.299-1.371-0.299-2.137
				c0-1.621,0.396-2.885,1.188-3.791c0.792-0.904,1.833-1.357,3.125-1.357c0.747,0,1.377,0.129,1.89,0.385
				c0.513,0.256,1.013,0.652,1.501,1.182v-3.826c0-0.533,0.105-0.934,0.318-1.207c0.211-0.271,0.514-0.408,0.907-0.408
				c0.393,0,0.694,0.125,0.907,0.375c0.212,0.252,0.318,0.619,0.318,1.107v11.436c0,0.494-0.113,0.863-0.342,1.111
				c-0.228,0.246-0.522,0.369-0.883,0.369c-0.354,0-0.647-0.127-0.879-0.383C295.608,757.542,295.492,757.176,295.492,756.702z
				 M290.392,752.893c0,0.703,0.109,1.301,0.328,1.795c0.219,0.494,0.518,0.865,0.897,1.115c0.38,0.25,0.795,0.377,1.244,0.377
				c0.456,0,0.872-0.119,1.249-0.357c0.376-0.236,0.677-0.602,0.902-1.092c0.225-0.49,0.337-1.106,0.337-1.838
				c0-0.691-0.112-1.285-0.337-1.783c-0.225-0.496-0.528-0.875-0.912-1.139c-0.383-0.262-0.803-0.393-1.258-0.393
				c-0.475,0-0.899,0.135-1.273,0.402c-0.374,0.269-0.663,0.654-0.869,1.158C290.494,751.643,290.392,752.227,290.392,752.893z"/>
			<path style="fill:#C9C0AD;" d="M306.926,753.549h-5.071c0.006,0.588,0.124,1.107,0.357,1.557c0.23,0.449,0.538,0.789,0.921,1.016
				c0.383,0.229,0.806,0.342,1.268,0.342c0.31,0,0.593-0.035,0.85-0.107c0.257-0.074,0.505-0.188,0.746-0.344
				c0.241-0.154,0.462-0.32,0.665-0.498c0.202-0.178,0.464-0.42,0.788-0.723c0.133-0.113,0.323-0.172,0.571-0.172
				c0.266,0,0.48,0.074,0.645,0.221c0.165,0.146,0.248,0.35,0.248,0.617c0,0.234-0.093,0.506-0.275,0.82
				c-0.185,0.314-0.462,0.615-0.832,0.902c-0.372,0.289-0.835,0.527-1.397,0.717c-0.559,0.191-1.204,0.285-1.933,0.285
				c-1.664,0-2.96-0.475-3.884-1.424c-0.924-0.949-1.386-2.238-1.386-3.865c0-0.768,0.113-1.479,0.341-2.133
				c0.228-0.656,0.561-1.217,0.997-1.685c0.437-0.469,0.975-0.828,1.615-1.078c0.639-0.25,1.349-0.375,2.128-0.375
				c1.013,0,1.882,0.213,2.606,0.641c0.726,0.428,1.27,0.98,1.63,1.656c0.36,0.678,0.542,1.369,0.542,2.07
				c0,0.654-0.187,1.076-0.56,1.27C308.131,753.452,307.604,753.549,306.926,753.549z M301.855,752.077h4.702
				c-0.063-0.887-0.303-1.551-0.717-1.99c-0.415-0.441-0.96-0.66-1.638-0.66c-0.646,0-1.177,0.223-1.591,0.668
				C302.195,750.542,301.944,751.202,301.855,752.077z"/>
			<path style="fill:#C9C0AD;" d="M318.741,754.792c0,0.715-0.173,1.328-0.522,1.838c-0.348,0.51-0.862,0.896-1.544,1.16
				c-0.68,0.262-1.508,0.393-2.483,0.393c-0.931,0-1.728-0.143-2.393-0.428c-0.665-0.283-1.156-0.641-1.472-1.066
				c-0.317-0.43-0.475-0.857-0.475-1.289c0-0.285,0.101-0.527,0.304-0.73c0.202-0.201,0.459-0.303,0.77-0.303
				c0.272,0,0.48,0.066,0.626,0.199s0.286,0.32,0.418,0.559c0.266,0.465,0.585,0.807,0.956,1.037
				c0.37,0.227,0.875,0.342,1.515,0.342c0.519,0,0.945-0.117,1.277-0.348c0.332-0.232,0.498-0.496,0.498-0.793
				c0-0.457-0.172-0.787-0.518-0.996c-0.345-0.209-0.914-0.41-1.705-0.6c-0.893-0.221-1.619-0.455-2.18-0.699
				c-0.561-0.242-1.008-0.564-1.344-0.963c-0.335-0.398-0.503-0.891-0.503-1.473c0-0.518,0.155-1.01,0.465-1.473
				c0.311-0.461,0.768-0.83,1.374-1.105c0.604-0.275,1.333-0.414,2.188-0.414c0.671,0,1.275,0.07,1.809,0.211
				c0.536,0.137,0.983,0.326,1.34,0.561c0.358,0.232,0.63,0.492,0.816,0.777c0.186,0.285,0.28,0.563,0.28,0.836
				c0,0.297-0.1,0.541-0.298,0.732c-0.199,0.188-0.482,0.285-0.851,0.285c-0.266,0-0.492-0.076-0.679-0.231
				c-0.186-0.15-0.4-0.379-0.641-0.682c-0.196-0.254-0.426-0.457-0.693-0.609c-0.266-0.152-0.627-0.227-1.083-0.227
				c-0.469,0-0.857,0.098-1.168,0.299c-0.31,0.199-0.465,0.447-0.465,0.744c0,0.273,0.114,0.496,0.341,0.67
				c0.229,0.176,0.535,0.32,0.922,0.434c0.386,0.113,0.917,0.252,1.596,0.416c0.803,0.197,1.46,0.432,1.97,0.703
				c0.509,0.272,0.896,0.594,1.16,0.965C318.61,753.895,318.741,754.317,318.741,754.792z"/>
			<path style="fill:#C9C0AD;" d="M321.39,746.434c-0.361,0-0.669-0.111-0.926-0.332c-0.256-0.221-0.385-0.535-0.385-0.941
				c0-0.367,0.131-0.668,0.394-0.906c0.263-0.238,0.569-0.357,0.917-0.357c0.336,0,0.633,0.107,0.893,0.324
				c0.26,0.215,0.39,0.527,0.39,0.94c0,0.4-0.127,0.711-0.381,0.935C322.039,746.321,321.738,746.434,321.39,746.434z
				 M322.673,749.112v7.494c0,0.519-0.124,0.912-0.371,1.178c-0.248,0.266-0.56,0.398-0.94,0.398c-0.38,0-0.689-0.135-0.926-0.408
				c-0.238-0.271-0.356-0.662-0.356-1.168v-7.418c0-0.512,0.118-0.898,0.356-1.158c0.237-0.26,0.546-0.391,0.926-0.391
				c0.38,0,0.693,0.131,0.94,0.391C322.549,748.29,322.673,748.651,322.673,749.112z"/>
			<path style="fill:#C9C0AD;" d="M334.031,749.54v7.531c0,0.861-0.093,1.604-0.277,2.225c-0.182,0.619-0.477,1.133-0.883,1.537
				c-0.405,0.404-0.935,0.707-1.59,0.902c-0.655,0.197-1.471,0.295-2.446,0.295c-0.893,0-1.69-0.125-2.394-0.375
				c-0.702-0.252-1.243-0.574-1.624-0.969c-0.379-0.396-0.57-0.803-0.57-1.221c0-0.316,0.108-0.576,0.324-0.773
				c0.215-0.201,0.475-0.301,0.778-0.301c0.38,0,0.712,0.168,0.997,0.504c0.139,0.17,0.283,0.344,0.432,0.518
				c0.149,0.176,0.314,0.324,0.494,0.447c0.181,0.123,0.397,0.215,0.65,0.275c0.253,0.059,0.545,0.09,0.874,0.09
				c0.671,0,1.192-0.094,1.563-0.281c0.371-0.186,0.63-0.447,0.779-0.783c0.149-0.334,0.236-0.693,0.261-1.078
				c0.025-0.383,0.044-0.998,0.057-1.848c-0.399,0.559-0.859,0.982-1.382,1.273c-0.522,0.291-1.145,0.438-1.866,0.438
				c-0.868,0-1.626-0.223-2.275-0.666c-0.648-0.443-1.147-1.063-1.495-1.861c-0.349-0.799-0.522-1.719-0.522-2.764
				c0-0.777,0.105-1.482,0.317-2.107c0.213-0.629,0.515-1.156,0.907-1.588c0.392-0.43,0.845-0.754,1.358-0.973
				s1.076-0.328,1.691-0.328c0.734,0,1.371,0.143,1.909,0.422c0.538,0.283,1.038,0.725,1.5,1.326v-0.352
				c0-0.449,0.11-0.797,0.332-1.045c0.222-0.246,0.507-0.371,0.855-0.371c0.5,0,0.832,0.164,0.996,0.49
				C333.948,748.456,334.031,748.926,334.031,749.54z M326.518,752.827c0,1.051,0.229,1.846,0.688,2.383
				c0.459,0.539,1.053,0.809,1.781,0.809c0.43,0,0.837-0.117,1.22-0.348c0.384-0.23,0.695-0.58,0.936-1.045
				c0.24-0.465,0.361-1.029,0.361-1.695c0-1.057-0.232-1.881-0.698-2.469s-1.078-0.883-1.838-0.883c-0.741,0-1.334,0.281-1.78,0.846
				C326.741,750.987,326.518,751.788,326.518,752.827z"/>
			<path style="fill:#C9C0AD;" d="M338.152,749.075v0.313c0.455-0.602,0.954-1.043,1.496-1.324c0.542-0.281,1.163-0.424,1.866-0.424
				c0.684,0,1.295,0.15,1.834,0.447c0.538,0.299,0.941,0.719,1.206,1.262c0.172,0.318,0.282,0.66,0.332,1.027
				c0.051,0.367,0.077,0.836,0.077,1.406v4.824c0,0.519-0.119,0.912-0.357,1.178c-0.237,0.266-0.546,0.398-0.926,0.398
				c-0.387,0-0.7-0.135-0.94-0.408c-0.241-0.271-0.361-0.662-0.361-1.168v-4.322c0-0.854-0.119-1.508-0.357-1.961
				c-0.238-0.451-0.71-0.68-1.42-0.68c-0.461,0-0.883,0.139-1.263,0.414c-0.38,0.275-0.659,0.654-0.836,1.135
				c-0.126,0.387-0.19,1.107-0.19,2.166v3.248c0,0.525-0.122,0.92-0.365,1.184c-0.244,0.262-0.559,0.393-0.945,0.393
				c-0.375,0-0.681-0.135-0.922-0.408c-0.24-0.271-0.361-0.662-0.361-1.168v-7.494c0-0.494,0.107-0.863,0.323-1.107
				c0.215-0.242,0.51-0.365,0.883-0.365c0.229,0,0.435,0.055,0.619,0.162c0.183,0.109,0.331,0.27,0.441,0.484
				C338.097,748.5,338.152,748.764,338.152,749.075z"/>
			<path style="fill:#C9C0AD;" d="M353.927,753.549h-5.071c0.007,0.588,0.125,1.107,0.357,1.557
				c0.231,0.449,0.538,0.789,0.921,1.016c0.382,0.229,0.805,0.342,1.267,0.342c0.311,0,0.594-0.035,0.851-0.107
				c0.255-0.074,0.504-0.188,0.746-0.344c0.24-0.154,0.461-0.32,0.665-0.498c0.202-0.178,0.464-0.42,0.788-0.723
				c0.133-0.113,0.323-0.172,0.57-0.172c0.266,0,0.481,0.074,0.646,0.221c0.164,0.146,0.247,0.35,0.247,0.617
				c0,0.234-0.091,0.506-0.275,0.82c-0.184,0.314-0.461,0.615-0.832,0.902c-0.371,0.289-0.835,0.527-1.396,0.717
				c-0.56,0.191-1.205,0.285-1.933,0.285c-1.665,0-2.96-0.475-3.885-1.424c-0.923-0.949-1.386-2.238-1.386-3.865
				c0-0.768,0.114-1.479,0.342-2.133c0.228-0.656,0.561-1.217,0.998-1.685c0.436-0.469,0.975-0.828,1.614-1.078
				c0.639-0.25,1.349-0.375,2.128-0.375c1.013,0,1.881,0.213,2.606,0.641c0.726,0.428,1.269,0.98,1.63,1.656
				c0.36,0.678,0.542,1.369,0.542,2.07c0,0.654-0.187,1.076-0.561,1.27C355.131,753.452,354.605,753.549,353.927,753.549z
				 M348.855,752.077h4.701c-0.063-0.887-0.302-1.551-0.717-1.99c-0.415-0.441-0.961-0.66-1.638-0.66
				c-0.646,0-1.177,0.223-1.592,0.668C349.195,750.542,348.944,751.202,348.855,752.077z"/>
			<path style="fill:#C9C0AD;" d="M364.496,756.702v-0.258c-0.348,0.398-0.691,0.725-1.03,0.973
				c-0.339,0.252-0.706,0.441-1.102,0.57c-0.395,0.133-0.828,0.195-1.296,0.195c-0.622,0-1.196-0.131-1.724-0.393
				c-0.529-0.264-0.986-0.639-1.373-1.127c-0.387-0.486-0.679-1.058-0.878-1.719c-0.2-0.658-0.299-1.371-0.299-2.137
				c0-1.621,0.396-2.885,1.187-3.791c0.792-0.904,1.833-1.357,3.125-1.357c0.747,0,1.377,0.129,1.89,0.385
				c0.513,0.256,1.013,0.652,1.5,1.182v-3.826c0-0.533,0.107-0.934,0.319-1.207c0.211-0.271,0.515-0.408,0.907-0.408
				c0.392,0,0.694,0.125,0.907,0.375c0.212,0.252,0.318,0.619,0.318,1.107v11.436c0,0.494-0.114,0.863-0.342,1.111
				c-0.228,0.246-0.522,0.369-0.883,0.369c-0.355,0-0.648-0.127-0.879-0.383C364.612,757.542,364.496,757.176,364.496,756.702z
				 M359.397,752.893c0,0.703,0.108,1.301,0.327,1.795c0.218,0.494,0.517,0.865,0.898,1.115c0.379,0.25,0.794,0.377,1.243,0.377
				c0.456,0,0.873-0.119,1.249-0.357c0.377-0.236,0.678-0.602,0.902-1.092c0.225-0.49,0.337-1.106,0.337-1.838
				c0-0.691-0.112-1.285-0.337-1.783c-0.224-0.496-0.528-0.875-0.912-1.139c-0.384-0.262-0.803-0.393-1.259-0.393
				c-0.474,0-0.899,0.135-1.272,0.402c-0.373,0.269-0.663,0.654-0.869,1.158C359.499,751.643,359.397,752.227,359.397,752.893z"/>
			<path style="fill:#C9C0AD;" d="M375.095,745.266v3.959c0.487-0.506,0.984-0.894,1.491-1.162c0.506-0.269,1.134-0.404,1.881-0.404
				c0.861,0,1.616,0.205,2.266,0.611c0.648,0.41,1.151,1.002,1.51,1.777c0.357,0.775,0.537,1.695,0.537,2.76
				c0,0.785-0.1,1.504-0.299,2.16c-0.2,0.656-0.49,1.225-0.869,1.705c-0.38,0.48-0.841,0.853-1.382,1.117
				c-0.542,0.262-1.139,0.393-1.791,0.393c-0.399,0-0.775-0.047-1.125-0.143c-0.352-0.094-0.651-0.219-0.898-0.375
				c-0.246-0.154-0.457-0.315-0.631-0.479c-0.174-0.164-0.404-0.412-0.689-0.742v0.258c0,0.486-0.117,0.855-0.352,1.107
				c-0.233,0.25-0.531,0.373-0.893,0.373c-0.367,0-0.66-0.123-0.878-0.373c-0.219-0.252-0.328-0.621-0.328-1.107v-11.322
				c0-0.525,0.106-0.924,0.317-1.191c0.212-0.269,0.509-0.404,0.889-0.404c0.399,0,0.706,0.129,0.921,0.385
				C374.987,744.426,375.095,744.79,375.095,745.266z M375.218,752.969c0,1.031,0.236,1.824,0.708,2.377
				c0.472,0.555,1.091,0.834,1.857,0.834c0.652,0,1.214-0.283,1.685-0.852c0.472-0.566,0.708-1.379,0.708-2.436
				c0-0.684-0.097-1.273-0.294-1.768c-0.197-0.494-0.475-0.875-0.835-1.144c-0.361-0.268-0.783-0.402-1.264-0.402
				c-0.494,0-0.935,0.135-1.32,0.402c-0.386,0.269-0.69,0.658-0.912,1.168C375.329,751.659,375.218,752.266,375.218,752.969z"/>
			<path style="fill:#C9C0AD;" d="M386.14,758.506l0.237-0.58l-3.191-8.035c-0.196-0.461-0.295-0.799-0.295-1.008
				c0-0.221,0.058-0.426,0.171-0.615c0.114-0.191,0.27-0.344,0.47-0.457c0.2-0.115,0.407-0.172,0.622-0.172
				c0.373,0,0.655,0.119,0.846,0.357c0.19,0.236,0.357,0.576,0.503,1.02l2.194,6.383l2.08-5.936c0.164-0.48,0.313-0.857,0.446-1.131
				c0.133-0.271,0.273-0.455,0.422-0.549c0.148-0.096,0.359-0.144,0.632-0.144c0.197,0,0.385,0.053,0.565,0.158
				c0.18,0.103,0.319,0.244,0.418,0.422c0.098,0.178,0.148,0.363,0.148,0.56c-0.026,0.119-0.066,0.291-0.124,0.514
				c-0.058,0.221-0.126,0.447-0.208,0.674l-3.381,8.852c-0.292,0.779-0.577,1.389-0.855,1.832c-0.279,0.443-0.647,0.785-1.106,1.022
				c-0.459,0.238-1.078,0.357-1.857,0.357c-0.759,0-1.33-0.082-1.708-0.246c-0.381-0.166-0.57-0.467-0.57-0.904
				c0-0.297,0.089-0.527,0.271-0.688c0.18-0.162,0.448-0.244,0.801-0.244c0.14,0,0.276,0.019,0.409,0.059
				c0.165,0.037,0.307,0.057,0.427,0.057c0.297,0,0.532-0.043,0.704-0.133c0.17-0.088,0.324-0.242,0.461-0.461
				C385.806,759.253,385.963,758.93,386.14,758.506z"/>
		</g>
		<g id="XMLID_47_">
			<path style="fill:#C9C0AD;" d="M423.703,747.864h0.619v-0.777c0-0.815,0.1-1.457,0.307-1.938
				c0.203-0.479,0.555-0.826,1.047-1.045c0.49-0.217,1.162-0.326,2.016-0.326c1.52,0,2.273,0.367,2.273,1.113
				c0,0.238-0.08,0.445-0.24,0.615c-0.154,0.17-0.344,0.256-0.559,0.256c-0.1,0-0.277-0.018-0.527-0.059
				c-0.236-0.033-0.451-0.057-0.623-0.057c-0.467,0-0.766,0.141-0.904,0.416c-0.127,0.275-0.195,0.668-0.195,1.184v0.617h0.633
				c0.99,0,1.48,0.297,1.48,0.897c0,0.418-0.127,0.69-0.392,0.805c-0.262,0.113-0.623,0.17-1.088,0.17h-0.633v6.871
				c0,0.512-0.121,0.9-0.369,1.168c-0.242,0.273-0.555,0.406-0.943,0.406c-0.367,0-0.67-0.133-0.918-0.406
				c-0.244-0.268-0.363-0.656-0.363-1.168v-6.871h-0.715c-0.389,0-0.682-0.084-0.893-0.262c-0.209-0.17-0.315-0.398-0.315-0.678
				C422.4,748.172,422.834,747.864,423.703,747.864"/>
			<path style="fill:#C9C0AD;" d="M432.193,754.438v2.168c0,0.523-0.133,0.92-0.375,1.18c-0.246,0.266-0.559,0.394-0.938,0.394
				c-0.381,0-0.688-0.131-0.926-0.4c-0.236-0.264-0.361-0.656-0.361-1.174v-7.223c0-1.166,0.42-1.748,1.262-1.748
				c0.434,0,0.742,0.135,0.934,0.408c0.19,0.273,0.295,0.674,0.316,1.207c0.309-0.533,0.625-0.934,0.949-1.207
				c0.332-0.273,0.762-0.408,1.309-0.408c0.549,0,1.072,0.135,1.586,0.408c0.516,0.273,0.771,0.637,0.771,1.084
				c0,0.314-0.111,0.58-0.326,0.781c-0.221,0.209-0.455,0.313-0.707,0.313c-0.1,0-0.33-0.063-0.691-0.18
				c-0.365-0.113-0.689-0.174-0.963-0.174c-0.381,0-0.693,0.104-0.932,0.299c-0.242,0.205-0.432,0.496-0.564,0.887
				c-0.129,0.395-0.219,0.865-0.273,1.404C432.215,752.999,432.193,753.661,432.193,754.438"/>
			<path style="fill:#C9C0AD;" d="M444.113,753.545h-5.074c0.01,0.588,0.125,1.111,0.355,1.559c0.234,0.447,0.539,0.787,0.924,1.017
				c0.385,0.227,0.805,0.34,1.269,0.34c0.311,0,0.592-0.033,0.85-0.111c0.254-0.07,0.504-0.185,0.744-0.342
				c0.242-0.152,0.461-0.318,0.664-0.5c0.203-0.174,0.467-0.416,0.791-0.719c0.135-0.113,0.324-0.174,0.568-0.174
				c0.268,0,0.48,0.074,0.648,0.223c0.166,0.147,0.244,0.35,0.244,0.617c0,0.234-0.09,0.508-0.268,0.818
				c-0.188,0.318-0.463,0.617-0.836,0.906c-0.375,0.285-0.84,0.527-1.398,0.715c-0.559,0.189-1.205,0.285-1.932,0.285
				c-1.67,0-2.963-0.473-3.887-1.422c-0.924-0.951-1.391-2.242-1.391-3.867c0-0.768,0.117-1.479,0.348-2.135
				c0.225-0.658,0.557-1.217,0.998-1.688c0.435-0.471,0.971-0.828,1.613-1.078c0.637-0.25,1.346-0.375,2.127-0.375
				c1.012,0,1.881,0.215,2.607,0.647c0.723,0.422,1.273,0.976,1.629,1.654c0.361,0.68,0.541,1.367,0.541,2.074
				c0,0.648-0.188,1.07-0.561,1.266C445.316,753.45,444.791,753.545,444.113,753.545 M439.039,752.071h4.701
				c-0.063-0.885-0.297-1.549-0.713-1.986c-0.418-0.441-0.959-0.66-1.641-0.66c-0.647,0-1.178,0.221-1.592,0.67
				C439.381,750.54,439.127,751.198,439.039,752.071"/>
			<path style="fill:#C9C0AD;" d="M454.9,753.545h-5.072c0.006,0.588,0.125,1.111,0.353,1.559c0.232,0.447,0.539,0.787,0.922,1.017
				c0.383,0.227,0.805,0.34,1.271,0.34c0.307,0,0.592-0.033,0.844-0.111c0.26-0.07,0.506-0.185,0.75-0.342
				c0.242-0.152,0.461-0.318,0.664-0.5c0.199-0.174,0.465-0.416,0.789-0.719c0.135-0.113,0.326-0.174,0.568-0.174
				c0.268,0,0.482,0.074,0.65,0.223c0.164,0.147,0.24,0.35,0.24,0.617c0,0.234-0.088,0.508-0.273,0.818
				c-0.178,0.318-0.455,0.617-0.83,0.906c-0.371,0.285-0.84,0.527-1.396,0.715c-0.557,0.189-1.207,0.285-1.934,0.285
				c-1.668,0-2.959-0.473-3.887-1.422c-0.924-0.951-1.389-2.242-1.389-3.867c0-0.768,0.115-1.479,0.348-2.135
				c0.227-0.658,0.559-1.217,0.996-1.688c0.435-0.471,0.973-0.828,1.613-1.078c0.639-0.25,1.352-0.375,2.129-0.375
				c1.01,0,1.879,0.215,2.613,0.647c0.721,0.422,1.266,0.976,1.621,1.654c0.359,0.68,0.545,1.367,0.545,2.074
				c0,0.648-0.191,1.07-0.561,1.266C456.101,753.45,455.576,753.545,454.9,753.545 M449.828,752.071h4.701
				c-0.064-0.885-0.305-1.549-0.715-1.986c-0.422-0.441-0.963-0.66-1.643-0.66c-0.647,0-1.176,0.221-1.594,0.67
				C450.166,750.54,449.912,751.198,449.828,752.071"/>
			<path style="fill:#C9C0AD;" d="M460.58,749.094v0.31c0.486-0.602,0.994-1.043,1.525-1.324c0.518-0.285,1.117-0.428,1.781-0.428
				c0.795,0,1.535,0.209,2.207,0.617c0.672,0.414,1.199,1.016,1.59,1.807c0.389,0.795,0.586,1.73,0.586,2.814
				c0,0.795-0.113,1.531-0.336,2.201c-0.225,0.668-0.537,1.227-0.93,1.68c-0.393,0.449-0.855,0.801-1.389,1.045
				c-0.543,0.242-1.111,0.363-1.728,0.363c-0.738,0-1.363-0.148-1.865-0.447c-0.502-0.291-0.982-0.732-1.441-1.305v3.893
				c0,1.135-0.416,1.709-1.244,1.709c-0.49,0-0.809-0.146-0.971-0.439c-0.152-0.299-0.234-0.723-0.234-1.291v-11.193
				c0-0.494,0.107-0.859,0.32-1.107c0.215-0.238,0.512-0.363,0.885-0.363c0.369,0,0.666,0.125,0.897,0.373
				C460.466,748.262,460.58,748.62,460.58,749.094 M465.664,752.862c0-0.686-0.105-1.273-0.314-1.764
				c-0.209-0.492-0.498-0.867-0.865-1.127c-0.367-0.264-0.783-0.396-1.232-0.396c-0.715,0-1.318,0.283-1.809,0.844
				c-0.492,0.566-0.74,1.394-0.74,2.492c0,1.027,0.244,1.834,0.736,2.406c0.486,0.574,1.086,0.859,1.813,0.859
				c0.428,0,0.83-0.127,1.197-0.373c0.371-0.252,0.664-0.627,0.883-1.127C465.552,754.174,465.664,753.569,465.664,752.862"/>
			<path style="fill:#C9C0AD;" d="M470.881,746.428c-0.363,0-0.67-0.115-0.924-0.336c-0.26-0.223-0.387-0.531-0.387-0.935
				c0-0.369,0.131-0.67,0.396-0.91c0.262-0.234,0.566-0.355,0.914-0.355c0.34,0,0.635,0.105,0.893,0.318
				c0.26,0.219,0.391,0.535,0.391,0.947c0,0.398-0.127,0.711-0.377,0.935C471.533,746.313,471.232,746.428,470.881,746.428
				 M472.164,749.106v7.502c0,0.516-0.123,0.908-0.369,1.172c-0.25,0.27-0.561,0.4-0.941,0.4c-0.381,0-0.686-0.133-0.928-0.406
				c-0.234-0.275-0.355-0.664-0.355-1.166v-7.428c0-0.51,0.121-0.894,0.355-1.154c0.242-0.264,0.547-0.391,0.928-0.391
				c0.381,0,0.691,0.127,0.941,0.391C472.041,748.286,472.164,748.649,472.164,749.106"/>
			<path style="fill:#C9C0AD;" d="M480.523,756.997l-2.283-3.766l-1.408,1.328v2.066c0,0.498-0.133,0.881-0.396,1.148
				c-0.258,0.273-0.566,0.406-0.906,0.406c-0.398,0-0.715-0.131-0.941-0.4c-0.226-0.264-0.344-0.656-0.344-1.174v-11.063
				c0-0.574,0.115-1.012,0.332-1.314c0.223-0.305,0.545-0.451,0.953-0.451c0.398,0,0.713,0.137,0.949,0.41
				c0.234,0.271,0.353,0.674,0.353,1.203v6.293l2.916-3.063c0.361-0.377,0.633-0.641,0.826-0.779
				c0.189-0.139,0.42-0.207,0.689-0.207c0.326,0,0.594,0.103,0.816,0.309c0.211,0.205,0.32,0.465,0.32,0.773
				c0,0.379-0.353,0.889-1.055,1.521l-1.377,1.262l2.658,4.184c0.193,0.313,0.34,0.543,0.424,0.705
				c0.084,0.16,0.131,0.32,0.131,0.463c0,0.412-0.115,0.734-0.342,0.975c-0.225,0.236-0.523,0.353-0.885,0.353
				c-0.316,0-0.564-0.08-0.734-0.256C481.051,757.753,480.814,757.442,480.523,756.997"/>
			<path style="fill:#C9C0AD;" d="M486.16,758.18c-0.393,0-0.729-0.125-1.014-0.381c-0.285-0.248-0.43-0.605-0.43-1.064
				c0-0.385,0.139-0.719,0.41-0.994c0.275-0.279,0.607-0.42,1.008-0.42c0.398,0,0.736,0.141,1.023,0.412
				c0.279,0.275,0.422,0.613,0.422,1.002c0,0.453-0.143,0.809-0.422,1.061C486.871,758.055,486.539,758.18,486.16,758.18"/>
			<path style="fill:#C9C0AD;" d="M499.058,754.971c0,0.32-0.098,0.668-0.291,1.033c-0.191,0.371-0.488,0.719-0.887,1.051
				c-0.395,0.332-0.891,0.602-1.494,0.803c-0.602,0.203-1.281,0.307-2.031,0.307c-1.605,0-2.857-0.469-3.758-1.4
				c-0.895-0.936-1.346-2.189-1.346-3.76c0-1.068,0.205-2.006,0.619-2.824c0.408-0.814,1.004-1.447,1.781-1.894
				c0.779-0.447,1.717-0.67,2.795-0.67c0.674,0,1.287,0.098,1.852,0.295c0.56,0.195,1.033,0.451,1.426,0.76
				c0.387,0.314,0.686,0.643,0.889,0.992c0.207,0.352,0.309,0.68,0.309,0.986c0,0.309-0.113,0.572-0.344,0.787
				c-0.234,0.215-0.516,0.324-0.838,0.324c-0.219,0-0.398-0.057-0.541-0.166c-0.145-0.111-0.305-0.289-0.479-0.541
				c-0.318-0.478-0.646-0.842-0.996-1.08c-0.344-0.242-0.781-0.361-1.314-0.361c-0.762,0-1.383,0.297-1.854,0.896
				c-0.467,0.596-0.703,1.42-0.703,2.455c0,0.488,0.063,0.94,0.184,1.348c0.117,0.406,0.291,0.756,0.52,1.043
				c0.23,0.287,0.504,0.506,0.826,0.654c0.324,0.154,0.682,0.227,1.064,0.227c0.522,0,0.967-0.121,1.336-0.361
				c0.377-0.24,0.703-0.607,0.986-1.102c0.158-0.291,0.328-0.518,0.51-0.684c0.182-0.164,0.408-0.25,0.676-0.25
				c0.316,0,0.58,0.123,0.785,0.363C498.951,754.442,499.058,754.7,499.058,754.971"/>
			<path style="fill:#C9C0AD;" d="M510.248,752.911c0,0.769-0.121,1.484-0.355,2.139c-0.246,0.652-0.592,1.213-1.049,1.678
				c-0.455,0.469-1.002,0.828-1.633,1.08c-0.639,0.248-1.35,0.375-2.139,0.375c-0.785,0-1.492-0.127-2.121-0.383
				c-0.623-0.248-1.17-0.613-1.625-1.082c-0.461-0.477-0.809-1.033-1.053-1.676c-0.228-0.645-0.35-1.356-0.35-2.131
				c0-0.787,0.123-1.506,0.357-2.158c0.242-0.654,0.59-1.213,1.039-1.674c0.451-0.461,0.994-0.816,1.631-1.07
				c0.645-0.248,1.35-0.373,2.121-0.373c0.785,0,1.498,0.125,2.139,0.381c0.639,0.252,1.184,0.615,1.645,1.08
				c0.457,0.475,0.803,1.029,1.039,1.672C510.129,751.419,510.248,752.128,510.248,752.911 M507.644,752.911
				c0-1.059-0.234-1.881-0.697-2.469c-0.463-0.596-1.09-0.889-1.875-0.889c-0.508,0-0.955,0.133-1.342,0.395
				c-0.387,0.262-0.682,0.648-0.891,1.164c-0.209,0.514-0.315,1.113-0.315,1.799c0,0.678,0.102,1.268,0.309,1.773
				c0.209,0.51,0.502,0.897,0.887,1.166c0.385,0.266,0.834,0.404,1.352,0.404c0.785,0,1.412-0.297,1.875-0.893
				C507.41,754.772,507.644,753.952,507.644,752.911"/>
			<path style="fill:#C9C0AD;" d="M520.14,753.1v3.447c0,0.547-0.121,0.951-0.369,1.227c-0.25,0.273-0.572,0.408-0.978,0.408
				c-0.393,0-0.713-0.135-0.951-0.408c-0.246-0.275-0.371-0.68-0.371-1.227v-4.131c0-0.654-0.022-1.162-0.065-1.525
				c-0.045-0.354-0.168-0.654-0.361-0.883c-0.197-0.234-0.51-0.352-0.932-0.352c-0.85,0-1.406,0.291-1.676,0.881
				c-0.268,0.576-0.406,1.414-0.406,2.508v3.502c0,0.537-0.123,0.945-0.361,1.223c-0.25,0.273-0.568,0.412-0.965,0.412
				c-0.396,0-0.717-0.139-0.967-0.412c-0.252-0.277-0.377-0.686-0.377-1.223v-7.42c0-0.488,0.111-0.859,0.336-1.111
				c0.229-0.256,0.525-0.381,0.889-0.381c0.357,0,0.652,0.123,0.893,0.355c0.236,0.238,0.354,0.566,0.354,0.984v0.244
				c0.453-0.535,0.935-0.932,1.445-1.18c0.516-0.26,1.082-0.387,1.713-0.387c0.65,0,1.211,0.131,1.678,0.391
				c0.469,0.26,0.853,0.654,1.16,1.176c0.439-0.527,0.908-0.922,1.41-1.18c0.5-0.258,1.053-0.387,1.662-0.387
				c0.705,0,1.32,0.143,1.834,0.42c0.51,0.277,0.893,0.68,1.147,1.195c0.221,0.473,0.33,1.209,0.33,2.217v5.063
				c0,0.547-0.121,0.951-0.367,1.227c-0.246,0.273-0.574,0.408-0.979,0.408c-0.394,0-0.715-0.139-0.965-0.412
				c-0.25-0.277-0.377-0.686-0.377-1.223v-4.361c0-0.559-0.023-1.004-0.068-1.338c-0.047-0.338-0.178-0.621-0.383-0.848
				c-0.213-0.227-0.531-0.344-0.953-0.344c-0.342,0-0.666,0.107-0.975,0.309c-0.307,0.197-0.547,0.477-0.721,0.813
				C520.238,751.215,520.14,751.991,520.14,753.1"/>
		</g>
		<g id="XMLID_14_">
			<path style="fill:#C9C0AD;" d="M399.435,752.282c-0.002-0.004-0.002-0.01-0.002-0.018
				C399.433,752.272,399.433,752.278,399.435,752.282z"/>
			<path style="fill:#C9C0AD;" d="M399.566,753.112c0.002,0,0.002,0,0.003,0c-0.05-0.236-0.088-0.471-0.119-0.703
				C399.481,752.643,399.519,752.878,399.566,753.112z"/>
			<path style="fill:#C9C0AD;" d="M400.425,755.518c-0.006-0.01-0.011-0.022-0.017-0.033
				C400.414,755.497,400.419,755.508,400.425,755.518z"/>
			<path style="fill:#C9C0AD;" d="M400.342,755.358c-0.022-0.045-0.044-0.09-0.065-0.135
				C400.299,755.27,400.32,755.313,400.342,755.358z"/>
			<path style="fill:#C9C0AD;" d="M399.807,754.038c0.127,0.4,0.28,0.789,0.457,1.158c-0.18-0.377-0.33-0.766-0.454-1.158
				C399.81,754.038,399.808,754.038,399.807,754.038z"/>
			<path style="fill:#C9C0AD;" d="M409.472,742.346c0.502,0,0.871,0.039,1.295,0.111l0.121-0.764c0,0-1.172-0.359-2.711-0.234
				l-0.121-0.414c0.479-0.102,0.838-0.527,0.838-1.035c0-0.582-0.474-1.053-1.057-1.053c-0.583,0-1.056,0.471-1.056,1.053
				c0,0.508,0.358,0.934,0.836,1.035l0.134,0.463c-1.634,0.225-2.935,0.861-2.935,0.861l0.23,0.705
				c0.989-0.328,1.846-0.529,2.624-0.613C408.432,742.381,409.006,742.346,409.472,742.346z"/>
			<path style="fill:#C9C0AD;" d="M400.405,746.204l0.006-0.008c0.039-0.049,0.076-0.096,0.113-0.143l-0.313-0.225l-0.488-0.357
				c-0.027,0.039-0.795,0.744-1.401,2.049c-0.025-0.041-0.056-0.082-0.09-0.119c-0.182-0.199-0.436-0.301-0.758-0.295
				c-0.004,0-0.009,0-0.015,0c-0.2,0-0.337-0.066-0.427-0.147c0.089-0.113,0.143-0.256,0.143-0.414c0-0.367-0.3-0.668-0.669-0.668
				c-0.369,0-0.669,0.301-0.669,0.668c0,0.371,0.3,0.67,0.669,0.67c0.058,0,0.113-0.01,0.167-0.021
				c0.164,0.184,0.425,0.342,0.808,0.334c0.197-0.002,0.341,0.049,0.438,0.156c0.111,0.121,0.148,0.295,0.16,0.428
				c-0.001,0.002-0.001,0.004-0.003,0.004c-0.435,1.189-0.311,2.67-0.311,2.67l1.057,0.043c0.021-0.539,0.099-1.482,0.372-2.23
				C399.719,747.149,400.378,746.243,400.405,746.204z"/>
			<path style="fill:#C9C0AD;" d="M418.672,743.229c-0.367,0-0.668,0.299-0.668,0.67c0,0.057,0.008,0.111,0.023,0.164
				c-0.184,0.166-0.344,0.428-0.338,0.811c0.004,0.197-0.047,0.34-0.154,0.438c-0.084,0.074-0.191,0.115-0.295,0.141
				c-0.787-1.104-1.756-1.775-1.756-1.775l-0.76,0.813c0.574,0.522,1.16,1.176,1.729,1.99c0.395,0.564,0.799,1.291,1.137,2.016
				l1.023-0.486c0,0-0.467-1.156-1.125-2.191c0.113-0.041,0.228-0.104,0.33-0.193c0.201-0.18,0.299-0.436,0.293-0.758
				c-0.002-0.207,0.066-0.348,0.148-0.441c0.115,0.088,0.258,0.143,0.412,0.143c0.371,0,0.67-0.299,0.67-0.668
				C419.341,743.528,419.043,743.229,418.672,743.229z"/>
			<path style="fill:#C9C0AD;" d="M416.015,752.432c-1.41,0.685-3.729,1.594-6.782,2.02c-1.198,0.166-2.359,0.227-3.428,0.227
				c-1.391,0-2.62-0.103-3.563-0.223c-1.076-0.135-1.917-0.301-2.432-0.418c0.124,0.393,0.273,0.781,0.454,1.158
				c0.003,0.01,0.008,0.021,0.013,0.027c0.022,0.045,0.043,0.09,0.065,0.135c0.022,0.043,0.043,0.086,0.065,0.127
				c0.006,0.012,0.011,0.023,0.017,0.033c0.303,0.57,0.667,1.094,1.081,1.549c1.44,1.574,2.907,1.824,2.921,1.826l0.023,0.002
				l0.021,0.008c0.013,0.006,1.314,0.426,3.292,0.426c1.945,0,3.855-0.393,5.673-1.168c1.348-0.69,2.623-1.736,3.254-2.67
				c0.488-0.723,0.842-1.492,1.051-2.293c0.111-0.426,0.199-1.107,0.147-1.826C417.49,751.639,416.863,752.018,416.015,752.432z"/>
			<path style="fill:#C9C0AD;" d="M400.858,746.538c-0.041,0.061-0.652,0.926-1.135,2.254c-0.362,0.994-0.346,2.443-0.346,2.459
				v0.004c0,0.34,0.019,0.676,0.057,1.01c0,0.008,0,0.014,0.002,0.018c0.004,0.043,0.011,0.084,0.015,0.127
				c0.03,0.232,0.069,0.467,0.119,0.703c0.7,0.178,4.878,1.152,9.548,0.502c2.927-0.408,5.15-1.273,6.5-1.928
				c1.121-0.543,1.842-1.035,2.119-1.238c-0.277-1.027-1.041-2.641-1.742-3.647c-2.006-2.865-4.168-3.6-5.277-3.783
				c-0.424-0.068-0.764-0.109-1.244-0.109c-0.447,0-1.002,0.037-1.743,0.115c-0.743,0.076-1.572,0.271-2.532,0.596
				c-1.348,0.451-2.567,1.158-3.527,2.047l-0.033,0.031C401.496,745.829,401.199,746.104,400.858,746.538z M413.127,745.872
				c0.961,0,1.744,0.781,1.744,1.742c0,0.963-0.783,1.744-1.744,1.744c-0.961,0-1.742-0.781-1.742-1.744
				C411.384,746.653,412.166,745.872,413.127,745.872z M404.885,745.801c1.557,0,2.817,1.262,2.817,2.818
				c0,1.555-1.26,2.814-2.817,2.814c-1.555,0-2.816-1.26-2.816-2.814C402.07,747.063,403.331,745.801,404.885,745.801z"/>
		</g>
	</g>
</g>
<g id="OBJECTS">
	<g>
		<polygon style="fill:#D8D0BB;" points="608,195.834 608,252.735 743.774,398.667 783.862,398.667 783.862,195.834 		"/>
		<rect x="167.852" y="372.621" style="fill:#D8D0BB;" width="406.814" height="95.436"/>
		<g>
			<g>
				<path style="fill:#878E91;" d="M214.463,800h-60V618.657c0-72.16,58.706-130.866,130.866-130.866h250.635
					c44.974,0,81.561-36.589,81.561-81.563s-36.588-81.563-81.561-81.563h-83.209c-69.436,0-125.926-56.49-125.926-125.926V0h60
					v198.74c0,36.352,29.574,65.926,65.926,65.926h83.209c78.058,0,141.561,63.505,141.561,141.563s-63.504,141.563-141.561,141.563
					H285.329c-39.076,0-70.866,31.79-70.866,70.866V800z"/>
			</g>
			<g>
				<path style="fill:#F9F8F7;" d="M185.963,798.568h-3v-10.925h3V798.568z M185.963,772.644h-3v-15h3V772.644z M185.963,742.644h-3
					v-15h3V742.644z M185.963,712.644h-3v-15h3V712.644z M185.963,682.644h-3v-15h3V682.644z M185.963,652.644h-3v-15h3V652.644z
					 M185.963,622.644h-3v-3.986c0-3.723,0.202-7.474,0.6-11.149l2.982,0.322c-0.386,3.569-0.582,7.212-0.582,10.827V622.644z
					 M189.222,593.319l-2.9-0.764c1.286-4.892,2.954-9.729,4.956-14.376l2.756,1.188
					C192.09,583.877,190.471,588.571,189.222,593.319z M200.863,566.294l-2.549-1.582c2.667-4.294,5.681-8.426,8.956-12.282
					l2.287,1.941C206.377,558.115,203.452,562.127,200.863,566.294z M219.917,543.856l-1.975-2.258
					c3.81-3.334,7.898-6.409,12.152-9.141l1.621,2.524C227.586,537.633,223.616,540.619,219.917,543.856z M244.699,527.95
					l-1.229-2.736c4.616-2.072,9.431-3.813,14.311-5.174l0.807,2.891C253.852,524.251,249.179,525.94,244.699,527.95z
					 M273.059,520.041l-0.367-2.977c4.162-0.514,8.414-0.773,12.638-0.773h2.51v3h-2.51
					C281.228,519.291,277.1,519.544,273.059,520.041z M527.839,519.291h-15v-3h15V519.291z M497.839,519.291h-15v-3h15V519.291z
					 M467.839,519.291h-15v-3h15V519.291z M437.839,519.291h-15v-3h15V519.291z M407.839,519.291h-15v-3h15V519.291z
					 M377.839,519.291h-15v-3h15V519.291z M347.839,519.291h-15v-3h15V519.291z M317.839,519.291h-15v-3h15V519.291z
					 M542.925,519.081l-0.182-2.994c4.915-0.299,9.848-0.932,14.662-1.882l0.58,2.943
					C553.04,518.124,547.974,518.774,542.925,519.081z M572.652,513.205l-0.973-2.838c4.646-1.593,9.231-3.52,13.626-5.728
					l1.348,2.681C582.136,509.588,577.426,511.568,572.652,513.205z M599.729,499.607l-1.695-2.476
					c4.057-2.776,7.965-5.853,11.614-9.145l2.01,2.228C607.908,493.596,603.894,496.756,599.729,499.607z M622.229,479.316
					l-2.287-1.941c3.182-3.751,6.139-7.752,8.788-11.892l2.527,1.617C628.535,471.353,625.497,475.463,622.229,479.316z
					 M638.568,453.782l-2.721-1.264c2.071-4.462,3.856-9.106,5.306-13.806l2.867,0.885
					C642.531,444.425,640.697,449.197,638.568,453.782z M647.504,424.816l-2.959-0.49c0.799-4.833,1.28-9.784,1.43-14.713
					l2.998,0.09C648.819,414.767,648.325,419.851,647.504,424.816z M645.443,394.838c-0.503-4.896-1.343-9.798-2.497-14.569
					l2.916-0.705c1.186,4.902,2.049,9.938,2.565,14.968L645.443,394.838z M638.509,366.169c-1.788-4.573-3.905-9.069-6.294-13.363
					l2.621-1.458c2.454,4.411,4.63,9.03,6.468,13.729L638.509,366.169z M624.182,340.403c-2.943-3.938-6.181-7.713-9.622-11.223
					l2.143-2.101c3.535,3.605,6.859,7.483,9.882,11.528L624.182,340.403z M603.525,319.337c-3.881-3.023-8.002-5.81-12.249-8.283
					l1.51-2.593c4.362,2.541,8.596,5.403,12.583,8.509L603.525,319.337z M578.023,304.488c-4.548-1.881-9.265-3.469-14.019-4.718
					l0.762-2.901c4.887,1.283,9.732,2.915,14.404,4.848L578.023,304.488z M549.487,296.989c-4.452-0.546-9.002-0.823-13.523-0.823
					h-1.255v-3h1.255c4.642,0,9.315,0.284,13.889,0.845L549.487,296.989z M519.709,296.166h-15v-3h15V296.166z M489.709,296.166h-15
					v-3h15V296.166z M459.709,296.166h-6.954c-2.723,0-5.468-0.114-8.159-0.337l0.248-2.99c2.609,0.217,5.271,0.327,7.911,0.327
					h6.954V296.166z M429.578,293.393c-4.919-1.2-9.782-2.801-14.453-4.759l1.16-2.767c4.525,1.897,9.237,3.449,14.004,4.612
					L429.578,293.393z M401.603,281.673c-4.302-2.659-8.433-5.681-12.276-8.98l1.953-2.276c3.727,3.199,7.73,6.127,11.901,8.705
					L401.603,281.673z M378.588,261.917c-3.287-3.854-6.296-7.997-8.942-12.313l2.557-1.568c2.566,4.183,5.482,8.198,8.669,11.935
					L378.588,261.917z M362.728,236.045c-1.94-4.677-3.525-9.548-4.71-14.48l2.918-0.7c1.147,4.778,2.683,9.499,4.564,14.03
					L362.728,236.045z M355.637,206.539c-0.204-2.581-0.308-5.205-0.308-7.798v-7.308h3v7.308c0,2.515,0.101,5.059,0.298,7.562
					L355.637,206.539z M358.329,176.432h-3v-15h3V176.432z M358.329,146.432h-3v-15h3V146.432z M358.329,116.432h-3v-15h3V116.432z
					 M358.329,86.432h-3v-15h3V86.432z M358.329,56.432h-3v-15h3V56.432z M358.329,26.432h-3v-15h3V26.432z"/>
			</g>
		</g>
		<g>
			<rect x="345.391" y="80.096" style="fill:#FC6460;" width="42.865" height="81.509"/>
			<polygon style="fill:#3B4D57;" points="382.401,116.052 351.246,116.052 349.496,98.941 384.152,98.941 			"/>
			<polygon style="fill:#3B4D57;" points="384.152,147.243 349.496,147.243 350.926,137.496 382.721,137.496 			"/>
			<rect x="349.496" y="82.466" style="fill:#F9F8F7;" width="7.56" height="3.344"/>
			<rect x="376.592" y="82.466" style="fill:#F9F8F7;" width="7.56" height="3.344"/>
			<rect x="349.496" y="156.774" style="fill:#F9F8F7;" width="7.56" height="3.344"/>
			<rect x="376.592" y="156.774" style="fill:#F9F8F7;" width="7.56" height="3.344"/>
		</g>
		<g>
			
				<rect x="440.601" y="476.113" transform="matrix(-1.836970e-16 1 -1 -1.836970e-16 978.9006 54.8344)" style="fill:#FC8B60;" width="42.865" height="81.509"/>
			<polygon style="fill:#3B4D57;" points="466.832,532.445 466.832,501.29 483.944,499.539 483.944,534.196 			"/>
			<polygon style="fill:#3B4D57;" points="435.642,534.196 435.642,499.539 445.389,500.97 445.389,532.765 			"/>
			
				<rect x="494.966" y="501.647" transform="matrix(-1.836970e-16 1 -1 -1.836970e-16 1002.0651 4.5736)" style="fill:#F9F8F7;" width="7.56" height="3.344"/>
			
				<rect x="494.966" y="528.743" transform="matrix(-1.836970e-16 1 -1 -1.836970e-16 1029.1613 31.6698)" style="fill:#F9F8F7;" width="7.56" height="3.344"/>
			
				<rect x="420.658" y="501.647" transform="matrix(-1.836970e-16 1 -1 -1.836970e-16 927.7574 78.8814)" style="fill:#F9F8F7;" width="7.56" height="3.344"/>
			
				<rect x="420.658" y="528.743" transform="matrix(-1.836970e-16 1 -1 -1.836970e-16 954.8536 105.9775)" style="fill:#F9F8F7;" width="7.56" height="3.344"/>
		</g>
		<g>
			<rect x="176.89" y="673.816" style="fill:#9DBF9F;" width="42.865" height="81.509"/>
			<polygon style="fill:#3B4D57;" points="213.9,709.772 182.745,709.772 180.995,692.66 215.651,692.66 			"/>
			<polygon style="fill:#3B4D57;" points="215.651,740.962 180.995,740.962 182.425,731.215 214.22,731.215 			"/>
			<rect x="180.995" y="676.186" style="fill:#F9F8F7;" width="7.56" height="3.344"/>
			<rect x="208.091" y="676.186" style="fill:#F9F8F7;" width="7.56" height="3.344"/>
			<rect x="180.995" y="750.494" style="fill:#F9F8F7;" width="7.56" height="3.344"/>
			<rect x="208.091" y="750.494" style="fill:#F9F8F7;" width="7.56" height="3.344"/>
		</g>
		<g>
			<path style="fill:#FCBF60;" d="M582.865,276.569v49.396h-82.012c-1.583,0-2.865-1.283-2.865-2.865v-43.665
				c0-1.583,1.283-2.865,2.865-2.865H582.865z"/>
			
				<rect x="531.631" y="275.07" transform="matrix(6.123234e-17 -1 1 6.123234e-17 253.6864 856.2212)" style="fill:#F9F8F7;" width="46.645" height="52.395"/>
			<polygon style="fill:#3B4D57;" points="503.556,279.487 503.556,323.048 510.585,321.868 510.585,280.667 			"/>
		</g>
		<rect x="14.688" y="11.432" style="fill:#D8D0BB;" width="141.257" height="120.85"/>
		<path style="fill:#C9C0AD;" d="M28.722,19.452h113.189c2.573,0,4.659,2.086,4.659,4.659v95.492c0,2.573-2.086,4.659-4.659,4.659
			H28.722c-2.573,0-4.659-2.086-4.659-4.659V24.111C24.062,21.538,26.148,19.452,28.722,19.452z"/>
		<rect x="167.852" y="11.432" style="fill:#D8D0BB;" width="146.864" height="158.558"/>
		<polygon style="fill:#D8D0BB;" points="14.688,142.369 155.945,142.369 155.945,239.841 14.688,338.828 		"/>
		<rect x="167.852" y="179.576" style="fill:#D8D0BB;" width="146.864" height="183.949"/>
		<rect x="14.688" y="417.199" style="fill:#D8D0BB;" width="141.257" height="93.975"/>
		<rect x="14.688" y="519.233" style="fill:#D8D0BB;" width="116.145" height="146.495"/>
		<rect x="14.688" y="676.186" style="fill:#D8D0BB;" width="116.145" height="94.856"/>
		<path style="fill:#FC8B60;" d="M29.69,688.438l63.471,14.17c13.25,2.958,22.672,14.716,22.672,28.292v27.891H29.69V688.438z"/>
		<path style="fill:#C9C0AD;" d="M212.344,67.391h-32.639c-1.49,0-2.698-1.208-2.698-2.698V22.15c0-1.49,1.208-2.698,2.698-2.698
			h32.639c1.49,0,2.698,1.208,2.698,2.698v42.543C215.042,66.183,213.835,67.391,212.344,67.391z"/>
		<path style="fill:#C9C0AD;" d="M215.042,99.35V83.24c0-1.736-1.407-3.143-3.143-3.143h-31.748c-1.736,0-3.143,1.407-3.143,3.143
			v34.468c0,1.736,1.407,3.143,3.143,3.143h23.638h11.253h55.595c1.736,0,3.143-1.407,3.143-3.143v-12.071
			c0-1.736-1.407-3.143-3.143-3.143h-52.451C216.45,102.494,215.042,101.086,215.042,99.35z"/>
		<path style="fill:#FCBF60;" d="M303.088,82.466H259.92c-1.698,0-3.074-1.376-3.074-3.074V22.526c0-1.698,1.376-3.074,3.074-3.074
			h43.168c1.698,0,3.074,1.376,3.074,3.074v56.866C306.162,81.09,304.786,82.466,303.088,82.466z"/>
		<path style="fill:#C9C0AD;" d="M303.846,158.446H179.324c-1.279,0-2.316-1.037-2.316-2.316v-16.318
			c0-1.279,1.037-2.316,2.316-2.316h124.522c1.279,0,2.316,1.037,2.316,2.316v16.318
			C306.162,157.409,305.125,158.446,303.846,158.446z"/>
		<path style="fill:#C9C0AD;" d="M144.099,186.486H26.534c-1.365,0-2.471-1.107-2.471-2.471v-30.58c0-1.365,1.107-2.471,2.471-2.471
			h117.565c1.365,0,2.471,1.106,2.471,2.471v30.58C146.57,185.38,145.464,186.486,144.099,186.486z"/>
		<path style="fill:#C9C0AD;" d="M64.985,266.721L31.15,291.276c-2.951,2.142-7.087,0.033-7.087-3.613v-87.363
			c0-2.466,1.999-4.465,4.465-4.465h33.836c2.466,0,4.465,1.999,4.465,4.465v62.808C66.828,264.537,66.143,265.881,64.985,266.721z"
			/>
		<path style="fill:#C9C0AD;" d="M48.673,447.543H28.43c-0.661,0-1.197-0.536-1.197-1.197v-20.243c0-0.661,0.536-1.197,1.197-1.197
			h20.243c0.661,0,1.197,0.536,1.197,1.197v20.243C49.87,447.008,49.334,447.543,48.673,447.543z"/>
		<path style="fill:#C9C0AD;" d="M80.074,447.543H60.318c-0.796,0-1.441-0.645-1.441-1.441v-19.756c0-0.796,0.645-1.44,1.441-1.44
			h19.756c0.796,0,1.44,0.645,1.44,1.44v19.756C81.515,446.898,80.87,447.543,80.074,447.543z"/>
		<path style="fill:#C9C0AD;" d="M116.167,475.076H96.263c-0.755,0-1.367-0.612-1.367-1.367v-47.436
			c0-0.755,0.612-1.367,1.367-1.367h19.904c0.755,0,1.367,0.612,1.367,1.367v47.436
			C117.533,474.464,116.921,475.076,116.167,475.076z"/>
		<path style="fill:#9DBF9F;" d="M297.479,275.208l-100.767,42.455c-9.356,3.942-19.704-2.927-19.704-13.08V189.962h129.154v72.167
			C306.162,267.838,302.741,272.992,297.479,275.208z"/>
		
			<ellipse transform="matrix(0.9248 -0.3804 0.3804 0.9248 -203.0724 55.7374)" style="fill:#FC8B60;" cx="39.475" cy="541.626" rx="9.786" ry="9.786"/>
		
			<ellipse transform="matrix(0.1607 -0.987 0.987 0.1607 -532.2173 519.7224)" style="fill:#FC8B60;" cx="39.475" cy="572.792" rx="9.786" ry="9.786"/>
		<path style="fill:#FC8B60;" d="M49.261,603.957c0,5.404-4.381,9.786-9.786,9.786c-5.404,0-9.786-4.381-9.786-9.786
			c0-5.404,4.381-9.786,9.786-9.786C44.88,594.172,49.261,598.553,49.261,603.957z"/>
		
			<ellipse transform="matrix(0.9735 -0.2288 0.2288 0.9735 -121.9915 31.0142)" style="fill:#9DBF9F;" cx="72.761" cy="541.626" rx="9.786" ry="9.786"/>
		
			<ellipse transform="matrix(0.2095 -0.9778 0.9778 0.2095 -445.7773 531.8472)" style="fill:#9DBF9F;" cx="106.046" cy="541.626" rx="9.786" ry="9.786"/>
		<g id="XMLID_4_">
			<g>
				<path style="fill:#FC6460;" d="M331.439,434.384c0,3.741-0.838,7.28-2.282,10.472h0.014l-0.217,0.405
					c-0.303,0.635-0.636,1.257-0.982,1.878l-21.811,41.267l-21.811-41.267c-0.347-0.621-0.679-1.242-0.982-1.878l-0.217-0.405h0.014
					c-1.459-3.192-2.282-6.731-2.282-10.472c0-13.953,11.31-25.277,25.277-25.277C320.13,409.107,331.439,420.431,331.439,434.384z
					 M321.704,434.384c0-8.58-6.962-15.542-15.542-15.542c-8.594,0-15.556,6.962-15.556,15.542c0,8.594,6.962,15.556,15.556,15.556
					C314.742,449.94,321.704,442.978,321.704,434.384z"/>
			</g>
		</g>
		<path style="fill:#D8D0BB;" d="M421.273,23.406v71.581c0,2.184,1.77,3.954,3.954,3.954h164.788c2.184,0,3.954-1.77,3.954-3.954
			V23.406c0-2.184-1.77-3.954-3.954-3.954H425.227C423.043,19.452,421.273,21.222,421.273,23.406z"/>
		<path style="fill:#D8D0BB;" d="M604.913,23.214v71.964c0,2.078,1.684,3.762,3.762,3.762H780.1c2.078,0,3.762-1.684,3.762-3.762
			V23.214c0-2.078-1.685-3.762-3.762-3.762H608.675C606.597,19.452,604.913,21.136,604.913,23.214z"/>
		<path style="fill:#D8D0BB;" d="M421.273,112.874v67.55c0,1.718,1.392,3.11,3.11,3.11h81.546c0.737,0,1.451-0.262,2.013-0.739
			l79.572-67.55c2.207-1.873,0.882-5.481-2.013-5.481H424.383C422.665,109.764,421.273,111.156,421.273,112.874z"/>
		<path style="fill:#D8D0BB;" d="M604.913,113.724v65.85c0,2.187,1.773,3.96,3.96,3.96h81.555c2.187,0,3.96-1.773,3.96-3.96v-65.85
			c0-2.187-1.773-3.96-3.96-3.96h-81.555C606.686,109.764,604.913,111.537,604.913,113.724z"/>
		<path style="fill:#D8D0BB;" d="M703.727,113.688v65.922c0,2.167,1.757,3.924,3.924,3.924h72.286c2.167,0,3.924-1.757,3.924-3.924
			v-65.922c0-2.167-1.757-3.924-3.924-3.924h-72.286C705.484,109.764,703.727,111.521,703.727,113.688z"/>
		<path style="fill:#C9C0AD;" d="M469.55,91.121h-39.025c-0.636,0-1.152-0.516-1.152-1.152V28.424c0-0.636,0.516-1.152,1.152-1.152
			h39.025c0.636,0,1.152,0.516,1.152,1.152v61.545C470.702,90.605,470.186,91.121,469.55,91.121z"/>
		<path style="fill:#C9C0AD;" d="M503.795,91.121H478.27c-0.635,0-1.15-0.515-1.15-1.15V28.422c0-0.635,0.515-1.15,1.15-1.15h25.524
			c0.635,0,1.15,0.515,1.15,1.15v61.549C504.945,90.606,504.43,91.121,503.795,91.121z"/>
		<path style="fill:#C9C0AD;" d="M582.14,48.34h-70.377c-0.614,0-1.111-0.497-1.111-1.111V28.383c0-0.614,0.497-1.111,1.111-1.111
			h70.377c0.614,0,1.111,0.497,1.111,1.111v18.846C583.251,47.843,582.754,48.34,582.14,48.34z"/>
		<path style="fill:#C9C0AD;" d="M643.31,69.288V29.473c0-0.779-0.632-1.411-1.411-1.411h-26.878c-0.779,0-1.41,0.632-1.41,1.411
			v41.226V88.92c0,0.779,0.631,1.41,1.41,1.41h28.288h26.372c0.779,0,1.411-0.632,1.411-1.41V72.109
			c0-0.779-0.631-1.411-1.411-1.411H644.72C643.941,70.698,643.31,70.067,643.31,69.288z"/>
		<path style="fill:#9DBF9F;" d="M702.636,64.764h-50.549c-0.603,0-1.091-0.489-1.091-1.091V29.153c0-0.603,0.488-1.091,1.091-1.091
			h50.549c0.603,0,1.091,0.489,1.091,1.091v34.519C703.727,64.275,703.239,64.764,702.636,64.764z"/>
		<path style="fill:#C9C0AD;" d="M702.925,71.039h-24.76c-0.443,0-0.803,0.359-0.803,0.803v17.686c0,0.443,0.359,0.803,0.803,0.803
			h24.76c0.443,0,0.803-0.359,0.803-0.803V71.841C703.727,71.398,703.368,71.039,702.925,71.039z"/>
		<path style="fill:#C9C0AD;" d="M742.371,90.33h-31.713c-0.786,0-1.424-0.637-1.424-1.424V29.486c0-0.786,0.637-1.424,1.424-1.424
			h31.713c0.786,0,1.424,0.638,1.424,1.424v59.421C743.795,89.693,743.157,90.33,742.371,90.33z"/>
		<path style="fill:#C9C0AD;" d="M774.885,90.33h-24.679c-0.53,0-0.96-0.43-0.96-0.96V29.022c0-0.53,0.43-0.96,0.96-0.96h24.679
			c0.53,0,0.96,0.43,0.96,0.96V89.37C775.845,89.9,775.415,90.33,774.885,90.33z"/>
		<path style="fill:#FC8B60;" d="M470.889,176.337h-41.423c-0.755,0-1.368-0.612-1.368-1.368v-56.641
			c0-0.755,0.612-1.368,1.368-1.368h41.423c0.755,0,1.368,0.612,1.368,1.368v56.641
			C472.257,175.724,471.645,176.337,470.889,176.337z"/>
		<path style="fill:#C9C0AD;" d="M503.558,176.337h-20.896c-0.766,0-1.387-0.621-1.387-1.387v-56.602
			c0-0.766,0.621-1.387,1.387-1.387h20.895c0.766,0,1.387,0.621,1.387,1.387v56.602
			C504.945,175.716,504.324,176.337,503.558,176.337z"/>
		<path style="fill:#C9C0AD;" d="M646.504,146.649h-31.911c-0.542,0-0.982-0.44-0.982-0.982v-28.077c0-0.542,0.44-0.982,0.982-0.982
			h31.911c0.542,0,0.982,0.44,0.982,0.982v28.077C647.486,146.209,647.047,146.649,646.504,146.649z"/>
		<path style="fill:#C9C0AD;" d="M684.954,175.834h-70.385c-0.529,0-0.958-0.429-0.958-0.958v-21.197
			c0-0.529,0.429-0.958,0.958-0.958h70.385c0.529,0,0.958,0.429,0.958,0.958v21.197
			C685.912,175.405,685.483,175.834,684.954,175.834z"/>
		<path style="fill:#9DBF9F;" d="M741.449,175.834h-27.723c-0.522,0-0.945-0.423-0.945-0.946v-57.336
			c0-0.522,0.423-0.945,0.945-0.945h27.723c0.522,0,0.945,0.423,0.945,0.945v57.336
			C742.394,175.411,741.971,175.834,741.449,175.834z"/>
		<path style="fill:#C9C0AD;" d="M774.879,148.387h-24.668c-0.533,0-0.965-0.432-0.965-0.965v-29.849
			c0-0.533,0.432-0.965,0.965-0.965h24.668c0.533,0,0.966,0.432,0.966,0.965v29.849
			C775.845,147.955,775.412,148.387,774.879,148.387z"/>
		<polygon style="fill:#D8D0BB;" points="155.945,250.647 14.688,348.903 14.688,409.107 155.945,409.107 		"/>
		<polygon style="fill:#D8D0BB;" points="324.333,363.525 324.333,262.333 393,363.759 		"/>
		<g>
			<rect x="445" y="360.5" style="fill:#F9F8F7;" width="9" height="119"/>
		</g>
		<g>
			<rect x="224.5" y="368.625" style="fill:#F9F8F7;" width="9" height="102.75"/>
		</g>
		<g>
			<rect x="356" y="368.625" style="fill:#F9F8F7;" width="9" height="102.75"/>
		</g>
		<g>
			<rect x="360.5" y="415.5" style="fill:#F9F8F7;" width="89" height="9"/>
		</g>
		<polygon style="fill:#D8D0BB;" points="593.969,127.833 593.969,252.333 519.667,252.333 519.667,192.667 		"/>
		<g>
			<rect x="683.333" y="336.833" style="fill:#F9F8F7;" width="108.334" height="9"/>
		</g>
		<g>
			<rect x="720.833" y="193.333" style="fill:#F9F8F7;" width="9" height="148"/>
		</g>
		<g>
			<rect x="608" y="248.235" style="fill:#F9F8F7;" width="117.333" height="9"/>
		</g>
		<g id="XMLID_5_">
			<g>
				<path style="fill:#FC6460;" d="M678.781,257.178c0,3.741-0.838,7.28-2.282,10.472h0.014l-0.217,0.405
					c-0.303,0.635-0.636,1.257-0.982,1.878L653.504,311.2l-21.811-41.267c-0.347-0.621-0.679-1.242-0.982-1.878l-0.217-0.405h0.014
					c-1.459-3.192-2.282-6.731-2.282-10.472c0-13.953,11.31-25.278,25.277-25.278C667.471,231.901,678.781,243.225,678.781,257.178z
					 M669.046,257.178c0-8.58-6.962-15.542-15.542-15.542c-8.594,0-15.556,6.962-15.556,15.542c0,8.594,6.962,15.556,15.556,15.556
					C662.084,272.735,669.046,265.773,669.046,257.178z"/>
			</g>
		</g>
		<rect x="497.988" y="380.667" style="fill:#C9C0AD;" width="67.679" height="36.667"/>
		<rect x="543.667" y="429" style="fill:#C9C0AD;" width="22" height="29"/>
		<rect x="557.833" y="215.5" style="fill:#C9C0AD;" width="28.167" height="28.167"/>
		<rect x="737.167" y="204" style="fill:#C9C0AD;" width="39.833" height="23.583"/>
		<rect x="763.75" y="235.5" style="fill:#C9C0AD;" width="13.25" height="55"/>
		<rect x="177.008" y="382.25" style="fill:#C9C0AD;" width="20.492" height="39.25"/>
		<rect x="177.008" y="429.75" style="fill:#C9C0AD;" width="20.492" height="13.75"/>
		<rect x="105.234" y="359.164" style="fill:#C9C0AD;" width="41.336" height="41.336"/>
		<rect x="105.234" y="338.828" style="fill:#C9C0AD;" width="41.336" height="12.276"/>
		<rect x="498.746" y="429" style="fill:#C9C0AD;" width="37.754" height="29"/>
		<rect x="753.5" y="353.75" style="fill:#C9C0AD;" width="23.5" height="13.5"/>
		<rect x="615.333" y="204" style="fill:#C9C0AD;" width="26.667" height="19.667"/>
		<text transform="matrix(1 0 0 1 284.1055 694.2168)" style="fill:#C9C0AD; font-family:'BebasNeueBook'; font-size:56.2594px;">Road Location</text>
		<g>
			<path style="fill:#D8D0BB;" d="M562.803,719.726H256.964v-91.059h305.839V719.726z M260.964,715.726h297.839v-83.059H260.964
				V715.726z"/>
		</g>
		<g>
			<path style="fill:#D8D0BB;" d="M785.862,768.667h-227.06v-50.941h4v46.941h123.864v-298.61h99.195V768.667z M690.667,764.667
				h91.195v-294.61h-91.195V764.667z"/>
		</g>
		<g>
			<polygon style="fill:#D8D0BB;" points="747,690.438 560.803,690.438 560.803,686.438 743,686.438 743,633.5 747,633.5 			"/>
		</g>
		<g>
			<rect x="688.667" y="528.415" style="fill:#D8D0BB;" width="95.195" height="4"/>
		</g>
		<g>
			<rect x="714.667" y="468.057" style="fill:#D8D0BB;" width="4" height="62.358"/>
		</g>
		<g>
			<path style="fill:#D8D0BB;" d="M690.667,690.438H635.5V652.5h55.167V690.438z M639.5,686.438h47.167V656.5H639.5V686.438z"/>
		</g>
		<g>
			<path style="fill:#D8D0BB;" d="M690.667,656.5H635.5v-95h55.167V656.5z M639.5,652.5h47.167v-87H639.5V652.5z"/>
		</g>
		<g>
			<rect x="688.667" y="631.5" style="fill:#D8D0BB;" width="95.195" height="4"/>
		</g>
		<g>
			<rect x="560.803" y="739.017" style="fill:#D8D0BB;" width="127.864" height="4"/>
		</g>
	</g>
</g>
</svg>
